<?xml version="1.0" encoding="UTF-8"?><svg id="Layer_2" xmlns="http://www.w3.org/2000/svg" xmlns:xlink="http://www.w3.org/1999/xlink" viewBox="0 0 792 612"><defs><style>.cls-1{fill:none;}.cls-2{fill:#fa8334;}.cls-3{fill:url(#_6_dpi_20_);}</style><pattern id="_6_dpi_20_" x="0" y="0" width="48" height="48" patternTransform="translate(-2436)" patternUnits="userSpaceOnUse" viewBox="0 0 48 48"><g><rect class="cls-1" width="48" height="48"/><g><path class="cls-2" d="M24,50.4c1.32,0,2.4-1.07,2.4-2.4s-1.08-2.4-2.4-2.4-2.4,1.08-2.4,2.4,1.07,2.4,2.4,2.4Z"/><path class="cls-2" d="M48,50.4c1.32,0,2.4-1.07,2.4-2.4s-1.08-2.4-2.4-2.4-2.4,1.08-2.4,2.4,1.07,2.4,2.4,2.4Z"/><path class="cls-2" d="M24,26.4c1.32,0,2.4-1.07,2.4-2.4s-1.08-2.4-2.4-2.4-2.4,1.08-2.4,2.4,1.07,2.4,2.4,2.4Z"/><path class="cls-2" d="M48,26.4c1.32,0,2.4-1.07,2.4-2.4s-1.08-2.4-2.4-2.4-2.4,1.08-2.4,2.4,1.07,2.4,2.4,2.4Z"/><path class="cls-2" d="M36,38.4c1.32,0,2.4-1.07,2.4-2.4s-1.08-2.4-2.4-2.4-2.4,1.08-2.4,2.4,1.07,2.4,2.4,2.4Z"/><path class="cls-2" d="M12,38.4c1.32,0,2.4-1.07,2.4-2.4s-1.08-2.4-2.4-2.4-2.4,1.08-2.4,2.4,1.07,2.4,2.4,2.4Z"/><path class="cls-2" d="M36,14.4c1.32,0,2.4-1.07,2.4-2.4s-1.08-2.4-2.4-2.4-2.4,1.08-2.4,2.4,1.07,2.4,2.4,2.4Z"/><path class="cls-2" d="M12,14.4c1.32,0,2.4-1.07,2.4-2.4s-1.08-2.4-2.4-2.4-2.4,1.08-2.4,2.4,1.07,2.4,2.4,2.4Z"/></g><g><path class="cls-2" d="M0,50.4c1.32,0,2.4-1.07,2.4-2.4S1.32,45.6,0,45.6s-2.4,1.08-2.4,2.4S-1.33,50.4,0,50.4Z"/><path class="cls-2" d="M0,26.4c1.32,0,2.4-1.07,2.4-2.4S1.32,21.6,0,21.6s-2.4,1.08-2.4,2.4S-1.33,26.4,0,26.4Z"/></g><g><path class="cls-2" d="M24,2.4C25.32,2.4,26.4,1.33,26.4,0s-1.08-2.4-2.4-2.4S21.6-1.32,21.6,0s1.07,2.4,2.4,2.4Z"/><path class="cls-2" d="M48,2.4C49.32,2.4,50.4,1.33,50.4,0s-1.08-2.4-2.4-2.4S45.6-1.32,45.6,0s1.07,2.4,2.4,2.4Z"/></g><path class="cls-2" d="M0,2.4C1.32,2.4,2.4,1.33,2.4,0S1.32-2.4,0-2.4-2.4-1.32-2.4,0-1.33,2.4,0,2.4Z"/></g></pattern></defs><g id="Layer_5"><rect class="cls-3" width="792" height="612"/></g></svg>