<?xml version="1.0" encoding="UTF-8"?><svg id="Layer_2" xmlns="http://www.w3.org/2000/svg" xmlns:xlink="http://www.w3.org/1999/xlink" viewBox="0 0 361.54 557.1"><defs><style>.cls-1,.cls-2,.cls-3{fill:none;}.cls-4,.cls-2,.cls-5{stroke-linecap:round;stroke-linejoin:round;}.cls-4,.cls-2,.cls-5,.cls-6,.cls-7,.cls-3{stroke:#0400b7;}.cls-4,.cls-6{fill:#0400b7;}.cls-5,.cls-8{fill:#fa8334;}.cls-9{fill:#fff1e9;}.cls-10{fill:url(#_6_dpi_20_);}.cls-6,.cls-7,.cls-3{stroke-miterlimit:10;}.cls-7{fill:#fff;}</style><pattern id="_6_dpi_20_" x="0" y="0" width="48" height="48" patternTransform="translate(-1817.39 -19.63)" patternUnits="userSpaceOnUse" viewBox="0 0 48 48"><g><rect class="cls-1" width="48" height="48"/><g><path class="cls-8" d="M24,50.4c1.32,0,2.4-1.07,2.4-2.4s-1.08-2.4-2.4-2.4-2.4,1.08-2.4,2.4,1.07,2.4,2.4,2.4Z"/><path class="cls-8" d="M48,50.4c1.32,0,2.4-1.07,2.4-2.4s-1.08-2.4-2.4-2.4-2.4,1.08-2.4,2.4,1.07,2.4,2.4,2.4Z"/><path class="cls-8" d="M24,26.4c1.32,0,2.4-1.07,2.4-2.4s-1.08-2.4-2.4-2.4-2.4,1.08-2.4,2.4,1.07,2.4,2.4,2.4Z"/><path class="cls-8" d="M48,26.4c1.32,0,2.4-1.07,2.4-2.4s-1.08-2.4-2.4-2.4-2.4,1.08-2.4,2.4,1.07,2.4,2.4,2.4Z"/><path class="cls-8" d="M36,38.4c1.32,0,2.4-1.07,2.4-2.4s-1.08-2.4-2.4-2.4-2.4,1.08-2.4,2.4,1.07,2.4,2.4,2.4Z"/><path class="cls-8" d="M12,38.4c1.32,0,2.4-1.07,2.4-2.4s-1.08-2.4-2.4-2.4-2.4,1.08-2.4,2.4,1.07,2.4,2.4,2.4Z"/><path class="cls-8" d="M36,14.4c1.32,0,2.4-1.07,2.4-2.4s-1.08-2.4-2.4-2.4-2.4,1.08-2.4,2.4,1.07,2.4,2.4,2.4Z"/><path class="cls-8" d="M12,14.4c1.32,0,2.4-1.07,2.4-2.4s-1.08-2.4-2.4-2.4-2.4,1.08-2.4,2.4,1.07,2.4,2.4,2.4Z"/></g><g><path class="cls-8" d="M0,50.4c1.32,0,2.4-1.07,2.4-2.4S1.32,45.6,0,45.6s-2.4,1.08-2.4,2.4S-1.33,50.4,0,50.4Z"/><path class="cls-8" d="M0,26.4c1.32,0,2.4-1.07,2.4-2.4S1.32,21.6,0,21.6s-2.4,1.08-2.4,2.4S-1.33,26.4,0,26.4Z"/></g><g><path class="cls-8" d="M24,2.4C25.32,2.4,26.4,1.33,26.4,0s-1.08-2.4-2.4-2.4S21.6-1.32,21.6,0s1.07,2.4,2.4,2.4Z"/><path class="cls-8" d="M48,2.4C49.32,2.4,50.4,1.33,50.4,0s-1.08-2.4-2.4-2.4S45.6-1.32,45.6,0s1.07,2.4,2.4,2.4Z"/></g><path class="cls-8" d="M0,2.4C1.32,2.4,2.4,1.33,2.4,0S1.32-2.4,0-2.4-2.4-1.32-2.4,0-1.33,2.4,0,2.4Z"/></g></pattern></defs><g id="Layer_5"><g><ellipse class="cls-10" cx="117.98" cy="96.62" rx="83.15" ry="71.07"/><g><path class="cls-9" d="M145.58,110.19c.12,.22,.25,.45,.38,.66-.13-.22-.25-.44-.38-.66Z"/><path class="cls-9" d="M0,0V557.1H361.54V0H0ZM289.27,496.18c-1.61,8.54-8.67,15.8-17.16,17.63-58.22,12.59-119.43,19.52-176.92,3.93-9.12-2.47-16.53-10.4-18.39-19.66-1.19-5.97-.05-12.31,2.92-17.62,1.63-2.93,3.82-5.55,6.47-7.61,35.09-27.25,70.17-54.49,105.25-81.74,1.03-.8,1.94-1.74,2.71-2.78,2.61-3.48,3.71-8.12,2.75-12.38-1.24-5.54-5.25-7.98-11.4-11.4-14.97-8.32-37.04-11.91-55.07-17.6-13.76-4.35-21.73-5.46-28.51-17.42-4.32-7.62-4.02-17.09,.92-24.31,7.51-10.98,20.39-16.89,33.1-20.46,20.15-5.66,41.13-6.24,58.11-15.7,5.15-2.88,6.79-7.65,6.66-12.15-.17-5.78-2.88-9.79-9.69-15.4-20.39-16.83-42.13-30.41-63.52-45.8-.01-.01-.02-.01-.03-.02-1.27-.73-2.46-1.58-3.55-2.57-.02-.02-.05-.04-.07-.06-6.26-4.58-12.49-9.34-18.63-14.41-10.59-7.67-17.44-14.58-25.33-21.5-.18-.16-.37-.33-.56-.49-5.44-4.84-9.32-11.88-8.65-18.73,.56-5.65,5.19-10.97,10.74-14.75,1.79-5.49,4.17-10.89,6.92-16.17-2.83,4.81-6.5,9.28-11.32,12.09-4.82,2.82-10.92,3.8-16.08,1.66-5.16-2.14-7.44-7.01-6.56-12.53,.87-5.52,9.39-10.31,11.67-10.87-6.21,.26-13.22-2.61-14.59-8.43-1.37-5.82,2.23-12.08,7.49-14.91s11.75-2.67,17.44-.82c1.88,.61,3.77,1.51,5.65,2.5-2.12-1.31-4.14-2.7-5.93-4.13-4.84-3.85-8.79-9.19-9.68-15.32-.89-6.12,1.87-12.96,7.42-15.69,5.55-2.73,13.47,.05,15.1,6.01-1.3-6.57,3.56-13.71,10.14-14.93,6.58-1.21,13.67,3.73,14.8,10.33,.97,5.63,1.54,11.32,1.74,17.03,.05-.81,.1-1.61,.18-2.41,.58-5.78,2.32-11.71,6.38-15.87,4.05-4.16,10.82-6.04,15.89-3.2,3.8,2.14,5.62,7.26,4.37,11.23,4.93-5.37,14.2-6.76,20.08-2.18,6.98,5.43,7.77,17.08,.81,22.56-5.59,4.4-11.18,8.8-17.13,13.22,4.93-2.19,9.15-3.9,14.44-4.97,5.28-1.07,10.98-.93,15.82,1.44,4.84,2.37,8.64,7.24,8.77,12.64,.13,5.39-4.08,10.82-10.38,10.33-.51-.06-3.02-.12-3.52-.18,5.25,1.31,7.65,5.29,8.3,9.45,25.31,1.12,51.14,4.59,74.07,10.54,5.48,1.42,18.36,5.58,26.02,12.46,6.25,5.61,8.05,14.72,3.35,20.34h0c-4.18,5.8-10.03,11.61-16.85,17.37-.16,.15-.31,.27-.44,.37-18.62,15.66-44.29,30.98-63.14,44.68-9.15,6.64-5.13,14.65,2.54,23.53,6.09,7.07,10.85,13.73,9.39,21.01-3.28,16.39-21.49,23.32-32.74,25.61-6.65,1.36-13.75,3.19-20.23,5.23-12.81,4.04-34.07,6.72-37.26,22.47-1.92,9.48,4.1,11.8,16.38,15.52,8.35,2.53,20.28,4.78,32.49,8.48,19.01,5.76,32.04,9.48,42.75,17.21,9.58,6.92,10.78,14.57,9.14,18.72-5.04,12.75-26.39,16.61-32.96,22.54-1.49,1.35-2.58,2.86-3.28,4.46-2.33,5.27-.48,11.42,5.04,15.07l85.79,56.85c1.79,1.19,3.38,2.65,4.73,4.32,4.12,5.05,6.05,11.92,4.84,18.34Z"/><path class="cls-9" d="M89.25,79.71c1.3,.69,2.57,1.32,3.82,1.81-1.24-.55-2.52-1.17-3.82-1.81Z"/></g><path class="cls-3" d="M260.47,165.18c-40.33,14.28-89.56,17.56-130.93,9.83,.27-.2,.52-.39,.76-.56,8.07-5.9,16.35-8.54,34.31-12.47,13.08-2.86,19.61-4.29,24.39-4.83,20.07-2.25,35,.35,50.79,3.23,5.48,1,14.49,2.64,20.68,4.8Z"/><path class="cls-7" d="M283.08,154.41c-4.18,5.79-10.03,11.6-16.85,17.36,.47-.43,.99-1.06,.98-1.83-.01-1.78-2.8-3.38-6.74-4.76,6.39-2.25,12.55-4.78,18.42-7.59,1.74-.83,3.13-1.92,4.19-3.18Z"/><path class="cls-7" d="M120.69,187.81c.23,1.75,1.18,3.42,3.16,5.25-6.26-4.58-12.49-9.34-18.63-14.41-10.59-7.67-17.44-14.58-25.33-21.5,1.66,1.41,3.46,2.61,5.3,3.54,12.86,6.49,27.99,11.27,44.35,14.32-3.6,2.68-9.55,7.54-8.85,12.8Z"/><path class="cls-3" d="M225.11,374.6c-5.04,12.75-26.39,16.61-32.96,22.54-1.49,1.35-2.58,2.86-3.28,4.46-.96-1.48-1.47-3.39-.34-4.76,2.03-2.49,4.04-5.71,5.62-8.51,2.61-3.48,3.71-8.12,2.75-12.38-1.24-5.54-5.25-7.98-11.4-11.4-14.97-8.32-37.04-11.91-55.07-17.6-13.76-4.35-21.73-5.46-28.51-17.42-4.32-7.62-4.02-17.09,.92-24.31,7.51-10.98,20.39-16.89,33.1-20.46,20.15-5.66,41.13-6.24,58.11-15.7,5.15-2.88,6.79-7.65,6.66-12.15-.17-5.78-2.88-9.79-9.69-15.4-20.39-16.83-42.13-30.41-63.52-45.8,7.7,4.41,18.37,4.43,26.97,3.72,13.89-1.14,17.08-3.75,32.87-6.51,12.22-2.13,10.2-.54,28.95-2.83,0,0,32.15-3.93,49.5-17.95-18.62,15.66-44.29,30.98-63.14,44.68-9.15,6.64-5.13,14.65,2.54,23.53,6.09,7.07,10.85,13.73,9.39,21.01-3.28,16.39-21.49,23.32-32.74,25.61-6.65,1.36-13.75,3.19-20.23,5.23-12.81,4.04-34.07,6.72-37.26,22.47-1.92,9.48,4.1,11.8,16.38,15.52,8.35,2.53,20.28,4.78,32.49,8.48,19.01,5.76,32.04,9.48,42.75,17.21,9.58,6.92,10.78,14.57,9.14,18.72Z"/><path class="cls-3" d="M266.23,171.77c-.16,.15-.31,.27-.44,.37"/><path class="cls-7" d="M279.7,473.52l-85.79-56.85c-5.52-3.65-7.37-9.8-5.04-15.07-.96-1.48-1.47-3.39-.34-4.76,2.03-2.49,4.04-5.71,5.62-8.51-.77,1.04-1.68,1.98-2.71,2.78-35.08,27.25-70.16,54.49-105.25,81.74-2.65,2.06-4.84,4.68-6.47,7.61,12.39-3.69,3.54-2.55,16.32-6.33,7.16-2.12,18.06-.9,28.23-5.89,10.15-4.99,26.35-6.54,37.14-12.33,4.73-2.54,7.88-3.19,10.88-4.63,2.34-1.11,4.78-3.29,6.52-3.37,2.67-.13,3.9,3.8,9.08,5.69,3.02,1.1,7.37,3.44,13.41,4.51,5.71,1.01,13,.72,20.35,2.55,7.26,1.81,14.98,5.99,25,6.98,10.6,1.04,23.21,5.55,37.78,10.2-1.35-1.67-2.94-3.13-4.73-4.32Zm-102.93-37.09c-.27,0-.5-.22-.5-.5s.23-.5,.5-.5,.5,.23,.5,.5-.22,.5-.5,.5Zm.5-16.65c-.31,0-.56-.25-.56-.56s.25-.56,.56-.56,.57,.25,.57,.56-.26,.56-.57,.56Zm2.29,24.65c-.41,0-.75-.34-.75-.75s.34-.75,.75-.75,.75,.33,.75,.75-.34,.75-.75,.75Zm1.77-15.78c-.31,0-.56-.25-.56-.56s.25-.56,.56-.56,.56,.25,.56,.56-.25,.56-.56,.56Zm.83-14.73c-.46,0-.83-.37-.83-.83s.37-.82,.83-.82,.82,.37,.82,.82-.37,.83-.82,.83Zm2.75-6.18c-.35,0-.63-.28-.63-.62s.28-.63,.63-.63,.62,.28,.62,.63-.28,.62-.62,.62Z"/><path class="cls-3" d="M289.27,496.18c-1.61,8.54-8.67,15.8-17.16,17.63-58.22,12.59-119.43,19.52-176.92,3.93-9.12-2.47-16.53-10.4-18.39-19.66-1.19-5.97-.05-12.31,2.92-17.62,12.39-3.69,3.54-2.55,16.32-6.33,7.16-2.12,18.06-.9,28.23-5.89,10.15-4.99,26.35-6.54,37.14-12.33,4.73-2.54,7.88-3.19,10.88-4.63,2.34-1.11,4.78-3.29,6.52-3.37,2.67-.13,3.9,3.8,9.08,5.69,3.02,1.1,7.37,3.44,13.41,4.51,5.71,1.01,13,.72,20.35,2.55,7.26,1.81,14.98,5.99,25,6.98,10.6,1.04,23.21,5.55,37.78,10.2,4.12,5.05,6.05,11.92,4.84,18.34Z"/><path class="cls-3" d="M127.5,195.71s-.02-.01-.03-.02c-1.21-.87-2.42-1.75-3.62-2.63"/><path class="cls-3" d="M283.81,153.38c-.23,.34-.47,.68-.72,1.02"/><path class="cls-6" d="M185.53,407.12c0,.34-.28,.62-.62,.62s-.63-.28-.63-.62,.28-.63,.63-.63,.62,.28,.62,.63Z"/><circle class="cls-6" cx="179.79" cy="443.45" r=".98"/><path class="cls-6" d="M182.48,427.8c0,.47-.38,.85-.85,.85s-.85-.38-.85-.85,.38-.85,.85-.85,.85,.38,.85,.85Z"/><path class="cls-6" d="M178.37,419.48c0,.46-.38,.82-.84,.82s-.82-.37-.82-.82,.37-.82,.82-.82,.84,.37,.84,.82Z"/><circle class="cls-6" cx="176.99" cy="436.16" r=".72"/><path class="cls-6" d="M182.98,413.09c0,.46-.37,.83-.82,.83s-.83-.37-.83-.83,.37-.82,.83-.82,.82,.37,.82,.82Z"/><path class="cls-3" d="M79.72,480.46c-.11,.03-.22,.07-.33,.1"/><path class="cls-3" d="M267.21,169.94c.01,.77-.51,1.4-.98,1.83-.16,.15-.31,.27-.44,.37-17.35,14.02-49.5,17.95-49.5,17.95-18.75,2.29-16.73,.7-28.95,2.83-15.79,2.76-18.98,5.37-32.87,6.51-8.6,.71-19.27,.69-26.97-3.72-.01-.01-.02-.01-.03-.02-1.27-.73-2.46-1.58-3.55-2.57-.02-.02-.05-.04-.07-.06-1.98-1.83-2.93-3.5-3.16-5.25-.7-5.26,5.25-10.12,8.85-12.8,.27-.2,.52-.39,.76-.56,8.07-5.9,16.35-8.54,34.31-12.47,13.08-2.86,19.61-4.29,24.39-4.83,20.07-2.25,35,.35,50.79,3.23,5.48,1,14.49,2.64,20.68,4.8,3.94,1.38,6.73,2.98,6.74,4.76Z"/><g><path class="cls-7" d="M279.74,134.06c-7.66-6.88-20.54-11.04-26.02-12.46-22.93-5.95-48.76-9.42-74.07-10.54,.72,4.61-.7,9.44-2.78,11.11-8.08,6.46-19.33,2.16-26.69-5.69,1.41,1.56,2.91,3.04,4.41,4.49,3.76,3.62,7.67,7.21,10.32,11.7,2.65,4.49,3.81,10.09,1.99,14.99-1.21,3.26-4.89,9.56-12.08,6.78-3.36-1.3-5.09-5.99-6.18-8,1.71,4.82-.33,10.69-4.66,13.41-4.33,2.72-10.51,1.99-14.65-1.44-.73-.71-1.34-1.25-2.23-2.46-.22-.3-.57-.95-.84-1.5l-.57-.08c-2.02,2.72-4.87,4.74-8.2,5.25-5.15,.79-10.71-3.16-11.42-8.09l-.4-.06c-2.7,.74-5.78-.1-7.73-2.11s-2.7-5.12-1.87-7.8c-2.15,3.53-6.02,6.21-10.15,6.04-4.13-.17-8.07-3.79-7.8-7.91,.36-5.57,1.54-11.08,3.31-16.5-5.55,3.78-10.18,9.1-10.74,14.75-.67,6.85,3.21,13.89,8.65,18.73,.19,.16,.38,.33,.56,.49,1.66,1.41,3.46,2.61,5.3,3.54,12.86,6.49,27.99,11.27,44.35,14.32,.27-.2,.52-.39,.76-.56,8.07-5.9,16.35-8.54,34.31-12.47,13.08-2.86,19.61-4.29,24.39-4.83,20.07-2.25,35,.35,50.79,3.23,5.48,1,14.49,2.64,20.68,4.8,6.39-2.25,12.55-4.78,18.42-7.59,1.74-.83,3.13-1.92,4.19-3.18h0c4.7-5.63,2.9-14.74-3.35-20.35Z"/><path class="cls-7" d="M146.8,112.21s-.01-.02-.02-.02c0,0,.01,.02,.02,.02Z"/></g><g><path class="cls-2" d="M105.67,151.46c-2.7,.74-5.78-.1-7.73-2.11s-2.7-5.12-1.87-7.8c-2.15,3.53-6.02,6.21-10.15,6.04s-8.07-3.79-7.8-7.91c.73-11.2,4.77-22.17,10.23-32.67-2.83,4.81-6.5,9.28-11.32,12.09-4.82,2.82-10.92,3.8-16.08,1.66s-7.44-7.01-6.56-12.53c.87-5.52,9.39-10.31,11.67-10.87-6.21,.26-13.22-2.61-14.59-8.43-1.37-5.82,2.23-12.08,7.49-14.91s11.75-2.67,17.44-.82,11.48,6.25,16.68,8.32c-5.65-2.53-12.11-6.09-16.96-9.94s-8.79-9.19-9.68-15.32,1.87-12.96,7.42-15.69c5.55-2.73,13.47,.05,15.1,6.01-1.3-6.57,3.56-13.71,10.14-14.93s13.67,3.73,14.8,10.33c1.81,10.56,2.29,21.36,1.41,32.04,.38-5.8-.06-11.64,.51-17.42,.58-5.78,2.32-11.71,6.38-15.87s10.82-6.04,15.89-3.2,6.6,10.99,2.09,14.65c3.6-8.09,15.38-11.04,22.37-5.6s7.77,17.08,.81,22.56c-5.59,4.4-11.18,8.8-17.13,13.22,4.93-2.19,9.15-3.9,14.44-4.97s10.98-.93,15.82,1.44,8.64,7.25,8.77,12.64-4.08,10.82-10.38,10.33c-.51-.06-3.02-.12-3.52-.18,11.06,2.76,9.48,17.39,5.52,20.56-10.46,8.36-26.22-1.29-32-13.36,2.21,4.73,5.96,8.54,9.72,12.15s7.67,7.21,10.32,11.7,3.81,10.09,1.99,14.99c-1.21,3.26-4.89,9.56-12.08,6.78-3.36-1.3-5.09-5.99-6.18-8,1.71,4.82-.33,10.69-4.66,13.41-4.33,2.72-10.51,1.99-14.65-1.44-.73-.71-1.34-1.25-2.23-2.46-.22-.3-.57-.95-.84-1.5l-20.59-2.97Z"/><path class="cls-5" d="M118.91,117.09c7.02-.38,14.16-1.52,20.32-4.9s11.24-9.3,12.18-16.26c.94-6.97-3.94-12.87-9.87-16.64-7.23-4.6-15.2-4.38-23.05-4.86s-16.05,.87-22.58,5.28-11.04,12.21-10.14,20.03,8.26,12.98,15.07,15.06c9.25,2.82,14.44,2.5,18.07,2.3Z"/><path class="cls-5" d="M109.09,132.36c2.94,4.88-1.99,11.23-2.99,16.84-1.05,5.91,5.45,11.31,11.39,10.4,5.93-.92,10.32-6.59,11.26-12.52,.94-5.93-.96-11.97-3.66-17.33s-6.19-10.3-8.8-15.71c-1.95-4.03-7.94-4.98-11.54-2.32s-4.71,7.87-3.33,12.13,6.13,5.96,7.67,8.51Z"/></g><path class="cls-4" d="M111.47,87.24c-5.32-1.31-12.06,.77-15.75,5.56-2.13-1.49,3.44-5.34,6.05-6.71,2.7-1.42,7.74-1.13,9.7,1.15Z"/><path class="cls-7" d="M109.14,93.51c-4.39,1.65-9.33,1.46-12.95-.41-.09-.04-.16-.09-.23-.14,3.64-4.89,10.29-7.02,15.54-5.68,1.94,2.33,1.03,4.96-2.36,6.23Z"/><path class="cls-4" d="M137.54,86.79c-3.17-2.23-6.79-3.18-11.87-2.74-2.11,.18-3.56,1.34-4.83,2.69,.03-1.25,.5-2.56,1.85-3.3,2.61-1.44,7.06-1.58,9.98-.3,3.02,1.33,3.35,1.84,4.49,2.98,.22,.22,.34,.45,.38,.67Z"/><path class="cls-7" d="M133.08,89.95c-3.15,.92-6.41,1.54-9.33,.57-1.24-.41-2.91-2.16-2.92-3.47,0-.08,0-.15,0-.22,1.27-1.35,2.72-2.51,4.83-2.69,5.08-.44,8.7,.51,11.87,2.74,.2,1.21-2.13,2.38-4.46,3.07Z"/><ellipse class="cls-6" cx="126.51" cy="86.68" rx=".63" ry="1.25" transform="translate(31.62 207.16) rotate(-86.19)"/><path class="cls-5" d="M258.92,127.4c-19.94-1.31-39.88-2.62-59.82-3.93,2.19-4.61,7.37-7.62,12.46-7.23,5.09,.39,6.68,4.25,13.22,8.54l22.77,1.55c-3.56-9.23-7.17-18.58-12.95-26.61-5.77-8.03-13.96-15.27-23.78-16.52-3.56-.46-6.29-.22-6.99-.13-10.87,1.41-17.47,9.96-19.44,12.74h0c-1.52,3.58-4.97,6.33-9.52,5.97-.51-.06-3.02-.12-3.52-.18,11.06,2.76,9.48,17.39,5.52,20.56-8.08,6.46-19.33,2.16-26.69-5.69,1.41,1.56,2.91,3.04,4.41,4.49,3.76,3.62,7.67,7.21,10.32,11.7,2.65,4.49,3.81,10.09,1.99,14.99-.26,.7-.65,1.55-1.15,2.42,.1,.03,.19,.06,.28,.09,31.16,1.92,62.51,.9,93.48-3.02,4.84-.61,8.81-5.27,8.67-10.14-.15-4.87-4.4-9.28-9.26-9.6Z"/><ellipse class="cls-6" cx="105.74" cy="89.45" rx="1.12" ry=".55"/><path class="cls-2" d="M116.93,98.73c-.07,.96,.9,1.64,1.85,1.54s1.69-1.16,1.43-2.09"/><line class="cls-2" x1="120.84" y1="86.83" x2="120.83" y2="86.84"/></g></g></svg>