<?xml version="1.0" encoding="UTF-8"?><svg id="Layer_2" xmlns="http://www.w3.org/2000/svg" viewBox="0 0 552.51 1071"><defs><style>.cls-1{fill:#fff;}.cls-2{fill:#d3926d;}.cls-3{fill:#e0b7a2;}.cls-4{fill:#5b453f;}</style></defs><g id="Layer_1-2"><g><path class="cls-4" d="M338.29,23c-4.18,2.07-18.94,11.37-31,6-5.49-2.45-7.99-6.85-18.31-12.33,0,0-7.2-.61-13.44-5.56-15.61-12.39-60.73,4.5-92.53,26.85-75.06,52.76-100.05,153.12-109.08,188.38-14.88,58.08-15.58,111.14-16,143.4-.87,66.84,8.31,63.98,5.17,119.26-4.27,75.13-21.69,88.39-18.19,156.95,1.32,25.89,4.08,29.33,7.19,76.67,.59,8.93,2.79,43.87,2.88,92.89,.13,76.61,.31,114.91-5.75,128.28-10.54,23.25-25.56,38.3-19.94,59.2,3.2,11.88,12.94,25.18,24.29,26.15,9.97,.85,22.22-10.92,45.98-35.22,24.68-25.23,26.73-15.46,58.96-44.23,20.98-18.73,42.01-37.51,55.01-68.38,5.83-13.83,3.29-14.07,13.6-51.32,9.34-33.74,12.37-36.97,20.13-63.59,16.08-55.14,25.94-88.97,9.79-112.68-8.41-12.36-15.99-10.37-28.84-22.31-30.33-28.2-44.48-79.2-27.75-97.06,9.69-10.35,28.35-8.08,39.72-6.69,8.23,1,8.79,2.87,15.43,3.7,18.23,2.28,29.34-8.52,45.76-15.6,16.16-6.97,46.9-14.4,64.49-2.04,16.24,11.41,16.29,36.17,16.19,60.93-.05,12.67-1.62,47.86-27.62,96.38-5.25,9.8-10.01,17.38-14.45,23.7-13.78,19.64-21.29,27.01-27.99,36.55-13.96,19.87-15.71,40.71-17.72,64.73-2.3,27.44,1.86,47.91,9,83,5.4,26.53,8.1,39.8,13,51,3.85,8.8,14.96,31.7,72,78,40.42,32.81,66.74,54.17,78.78,46.25,7.04-4.63,3.97-14.93,7.62-65.27,3.72-51.37,12.42-58.03,19.59-106.55,6.51-44.05,2.32-58.71,.9-105.25-1.35-44.52,2.74-52.12,2.72-64.44-.02-7.51-1.29-13.12-1.99-16.63,0,0-4.19-27.1-6.69-56.12-.23-2.68-.4-4.85-.5-6.14,1.31-.12,3.24-.32,5.56-.69,2.76-.44,3.8-.9,5.9-1.14,0,0,2.69-.31,6.11,.1,8.61,1.02,15.97,7.25,19.15,5.79,2.46-1.13,3.87-7.56-2.55-33.28,0,0-4.93-24.89-3.04-86.46,.03-.85,.34-5.27,.34-5.28,0,0,0,0,0,0,0,0,0,0,0,0,.4-4.21,.93-5.82,1.25-15.57,.65-19.88-1.47-37.7-3.77-79-6.42-115.23,2.62-110.7-4.35-166.79-12.94-104-47.33-156.19-47.33-156.19C386.52,24.74,353.28,15.58,338.29,23Z"/><path d="M357.07,9.53c-6.38-2.32-15.92-5.63-24.09-1.39-9.68,5.03-10.46,17.03-19,18.53-6.1,1.07-11.51-4.03-13.44-5.56-15.61-12.39-60.73,4.5-92.53,26.85-75.06,52.76-100.05,153.12-109.08,188.38-14.88,58.08-15.58,111.14-16,143.4-.87,66.84,8.31,63.98,5.17,119.26-4.27,75.13-21.69,88.39-18.19,156.95,1.32,25.89,4.08,29.33,7.19,76.67,.59,8.93,2.79,43.87,2.88,92.89,.12,72.02,.19,108.03-5.75,128.28-10.56,36.02-28.06,61.96-16.22,76.83,6.65,8.35,18.8,8.52,20.58,8.52,17.68,0,28.04-16.87,45.98-35.22,24.68-25.23,26.73-15.46,58.96-44.23,20.98-18.73,42.01-37.51,55.01-68.38,5.83-13.83,3.29-14.07,13.6-51.32,9.34-33.74,12.37-36.97,20.13-63.59,16.08-55.14,25.94-88.97,9.79-112.68-8.41-12.36-15.99-10.37-28.84-22.31-30.33-28.2-44.48-79.2-27.75-97.06,9.69-10.35,28.35-8.08,39.72-6.69,8.23,1,8.79,2.87,15.43,3.7,18.23,2.28,29.34-8.52,45.76-15.6,16.16-6.97,46.9-14.4,64.49-2.04,16.24,11.41,16.29,36.17,16.19,60.93-.05,12.67-1.62,47.86-27.62,96.38-17.67,32.98-29.86,40.82-42.44,60.25-36.68,56.64-31.87,142.59-3.26,203.61,39.76,84.79,133.31,138.1,158.32,119.38,9.49-7.1,4.41-21.05,7.62-65.27,3.72-51.37,12.42-58.03,19.59-106.55,6.51-44.05,2.32-58.71,.9-105.25-1.35-44.52,2.74-52.12,2.72-64.44-.02-7.51-1.29-13.12-1.99-16.63,0,0-4.19-27.1-6.69-56.12-.23-2.68-.4-4.85-.5-6.14,1.31-.12,3.24-.32,5.56-.69,2.76-.44,3.8-.9,5.9-1.14,0,0,2.69-.31,6.11,.1,8.61,1.02,15.97,7.25,19.15,5.79,2.46-1.13,3.87-7.56-2.55-33.28,0,0-4.93-24.89-3.04-86.46,.03-.85,.34-5.27,.34-5.28h0s0,0,0,0c.4-4.21,.93-5.82,1.25-15.57,.65-19.88-1.47-37.7-3.77-79-6.42-115.23,2.62-110.7-4.35-166.79-12.94-104-47.33-156.19-47.33-156.19s-41.33-62.18-133.92-95.81Z"/><path class="cls-3" d="M466.53,225.27c-6.33-46.64-27.18-78.76-36.22-92.32-24.68-37.04-77.83-93.56-116.58-80.91-11.42,3.73-10.2,9.75-31.14,30.17-32.06,31.26-54.08,30.77-88.05,59.62-37.83,32.13-56.74,48.19-64.74,62.03-25.43,44.02-18.41,92.23-9.73,151.82,6.86,47.14,17,73.66,22.38,85.64,13.01,28.92,21.57,47.95,42.19,62.28,19.01,13.21,31.88,11.03,42.72,27.56,12.24,18.65,9.19,41.78,9.05,42.75-2.12,14.62-8.15,17.05-7,23.54,4.63,26.07,113.08,48.82,142.41,9.93,11.88-15.76-2.1-24.57,9.27-76.45,3.55-16.22,9.51-42.46,26.07-71.12,7.22-12.49,10.18-14.6,16.09-26.63,12.6-25.67,14.89-48.24,16.03-58.03,9.46-81.58,34.7-95.02,27.25-149.87Z"/><path class="cls-2" d="M458.21,242.11c-5.7-44.79-24.48-75.63-32.62-88.65-22.22-35.57-70.1-89.84-104.99-77.7-10.29,3.58-9.18,9.36-28.05,28.97-28.88,30.02-48.71,29.54-79.3,57.25-34.07,30.85-51.1,46.27-58.31,59.57-22.9,42.27-16.58,88.56-8.76,145.79,6.68,48.89,14.12,70.18,20.16,82.24,13.12,26.21,21.95,43.84,37.31,51.7,3.23,1.65,13.52,6.34,19.46,17.14,2.7,4.91,3.01,8.37,4.27,12.73,3.83,13.27,12.67,21.72,20.75,29.43,4.83,4.61,35.34,33.75,67.18,26.41,14.53-3.35,22.6-12.74,37.53-30.12,13.81-16.07,16.99-26,51.91-89.55,4-7.27,3.97-7.12,4.83-8.82,6.67-13.2,13.5-31.72,24.1-72.48,19.18-73.8,28.77-110.7,24.54-143.92Z"/><g><g><path class="cls-1" d="M107.3,706.16s-.03,.05-.05,.07c.03,0,.05-.02,.08-.02v-.07s-.02,.02-.03,.02Z"/><path class="cls-1" d="M16.21,997.41s-.02-.02-.02-.02v.03s.03,.03,.05,.03l-.03-.05Z"/><path d="M133.75,706.31c-.26,.49-.51,1-.77,1.51,.18,.1,.34,.2,.53,.28,.28-.44,.57-.89,.87-1.33-.21-.15-.41-.31-.62-.46ZM42.24,1018.35c-.23,.18-.53,.33-.64,.57-.05,.11,.25,.39,.43,.71,.23-.26,.51-.44,.53-.64,.02-.2-.2-.43-.31-.64Z"/><path d="M404.48,478.24v.02s.03-.02,.05-.03c-.02,.02-.03,.02-.05,.02Z"/><path d="M404.37,478.31h-.02s0,.08,.02,.11c.02-.03,.05-.05,.07-.08,.02-.03,.03-.05,.05-.08-.03,.02-.08,.03-.11,.05Z"/><path d="M23.99,1003.78s-.02,.02-.02,.03c.1,.16,.21,.34,.34,.53,.03-.07,.05-.13,.05-.2,0-.1-.2-.2-.38-.36Z"/><path d="M518.79,775.79c.61-.36,.79-1.38,1.21-2.15-1.35-1.02-2.48-1.62-2.53-3.45-.25-7.37-.71-14.74-1.2-22.1-.3-4.4-.66-8.8-1.21-13.18-.08-.67-.15-1.31-.15-1.95-.16-.67-.25-1.36-.18-2.05,.13-1.62,.18-3.27,.07-4.89,0-.26-.03-.51-.05-.75t-.02-.05c-.2-.84-.38-1.66-.64-2.48-.3-.92-.39-1.85-.31-2.76l-8.66-40.22c-.9-1.97-1.61-3.87-2.63-5.61-.1-.2-.23-.39-.34-.57-.89-.28-1.66-.69-2.31-1.2-.8-.03-1.56-.15-2.25-.38-.51,.49-1.02,1-1.41,1.64-.71,1.15-1.46,2.13-1.61,3.48-.31,2.95-.64,5.91-.95,8.86-.25,2.48-.69,4.96-.69,7.42,.03,4.32,.26,8.63,.54,12.95,.67,10.32,1.41,20.66,2.12,30.98,.15,2,.23,4.02,.41,6.02,.56,6.5,1.44,12.98,1.69,19.49,.33,8.71,.23,17.46,.21,26.19-.02,12.85,.38,25.71-.54,38.56-.67,9.35-1.26,18.72-1.85,28.08-.08,1.21,.3,2.61-.16,3.63-.87,1.87-.53,3.76-.75,5.64-.41,3.4-.95,6.78-1.33,10.19-.44,3.99-.77,7.97-1.17,11.96-.08,.75-.15,1.51-.3,2.25-.62,3-1.38,5.97-1.89,8.99-.87,5.19-1.58,10.4-2.4,15.61-.16,1.13-.61,2.23-.74,3.36-.66,5.81-1.48,11.57-2.64,17.3-1.28,6.19-2.38,12.41-3.51,18.62-.77,4.22-1.51,8.45-2.25,12.68-.57,3.3-.95,6.63-1.71,9.88-1.08,4.74-2.81,9.3-3.1,14.28-.16,2.77-.02,5.55-.21,8.25-.33,4.73,.41,9.35,.38,14.05-.02,2.18,.56,4.36,.79,6.55,.18,1.77,.25,3.54,.36,5.42-1.54,.43-3.1,.39-3.82,1.16-1.33,1.39-3.02,1.38-4.5,1.44-1.61,.08-3.76-.26-4.79-1.3-2.43-2.4-4.84-4.76-7.43-7.01-2.95-2.56-5.58-5.5-8.53-8.07-4.96-4.33-9.45-9.19-14.9-13-1.87-1.3-3.54-1.87-5.55-.97-.98,.44-1.79,.46-2.74,.07-1.15-.48-2.31-.92-3.51-1.28-1.77-.54-3.54-1.46-5.61-.18-.33-1.03-.62-1.84-.82-2.64-1.85-7.22-3.77-14.44-5.46-21.69-1.08-4.66-1.84-9.4-2.67-14.11-.13-.82-.1-1.74,.13-2.53,.43-1.39,1.48-1.76,2.64-.87,.79,.61,1.39,1.46,2.07,2.22-.89-3.58-1.82-7.22-3.54-10.4-1.79-3.28-3.51-6.51-4-10.19-1.35-9.89-2.56-19.79-3.76-29.68-.43-3.51-.71-7.04-1-10.57-.1-1.1-.02-2.23-.02-3.25,1.43-.46,2.86-.36,2.79-2.02-.07-2.13-2.05-1.18-3.23-1.99-.11-2.07-.21-4.25-.34-6.45-.16-2.87-.39-5.73-.56-8.6-.07-1.38-.97-2.08-2.1-2.23-2.25-.3-2.54-.41-2.69-2.4-.1-1.35-.02-2.69-.15-4.04-.56-5.78-1.25-11.55-.11-17.33,.03-.2,.05-.39,.05-.57-.02-4.92,.82-9.73,1.8-14.54,1.53-7.38,2.77-14.82,5.14-21.99,.41-1.26,1.28-2.41,1.51-3.69,.87-4.86,3.02-9.24,4.78-13.78,.75-1.97,1.77-3.82,2.67-5.74,.38,1.58,.48,3,.36,4.41-.62,8.32-1.41,16.62-1.95,24.96-1.21,18.58-2.48,37.15-3.4,55.76-.39,7.83-.23,15.72,.1,23.56,.3,6.61,1.31,13.19,1.74,19.79,.3,4.46,1.3,8.83,1.48,13.32,.16,3.81,.9,7.58,1.43,11.37,.08,.61,.41,1.16,.71,1.97,.87-1.85,.95-1.87,.64-4.05-.41-2.95-.03-5.69,1.36-8.37,.46-.89,.64-2,.64-3.02,0-3.15-.11-6.3-.3-9.45-.33-6.1-.69-12.21-1.1-18.31-.34-5.45-.95-10.88-1.08-16.34-.15-5.35,.2-10.72,.23-16.1,0-2.53,.18-4.96,1.61-7.14,.25-.38,.36-.92,.31-1.38-.38-4.69,1.87-9.17,1.1-13.9-.08-.41,.18-.95,.44-1.33,.9-1.33,.85-2.76,.44-4.15-.43-1.53-.41-2.94,0-4.5,.51-1.82,.79-3.74,.84-5.61,.07-3.31-.21-6.63-.15-9.93,.03-1.89,.41-3.79,.71-5.66,.51-3.27,1.03-6.51,1.61-9.75,.05-.33,.38-.59,.87-1.33,.59,1.02,1.16,1.64,1.35,2.38,.66,2.69,1.33,5.38,1.76,8.12,.59,3.89,.98,7.79,1.46,11.7,1.05,8.53,2.15,17.05,3.13,25.6,.54,4.74,.84,9.53,1.41,14.28,1.02,8.29,2.17,16.54,3.3,24.81,1.03,7.71,2.18,15.39,3.15,23.1,.36,2.94,.39,5.91,.53,8.88,.07,1.61-.03,3.23,.07,4.84,.1,1.82,.39,3.63,.49,5.43,.3,5.84,.54,11.68,.8,17.54,.2,4.38,.31,8.8,.62,13.18,.15,1.95-.16,4.02,1.1,6.27,.77-3.33,1.44-6.25,2.15-9.34,3.18,1.35,.41,4.41,2.08,6.02,.71-4.28,1.64-8.42,2.02-12.6,.36-4,.2-8.04,.18-12.06-.05-6.14-.16-12.26-.26-18.38-.02-.48-.02-.98-.18-1.41-1.99-5.17-2.13-10.68-2.95-16.06-.62-4.05-.49-8.24-2.38-12.04-.25-.49-.21-1.13-.3-1.69-.36-2.82-.57-5.63-2.44-8.04-.71-.9-.82-2.33-1-3.53-.69-4.35-1.28-8.7-1.9-13.06-.36-2.54-.69-5.09-1.03-7.58,2.17-1.87,2.25-2.02,2.15-3.2-.23-3.04-.46-6.07-.67-9.12-.28-3.86-.51-7.73-.82-11.58-.15-1.71-.51-3.4-.69-5.09-.54-5.33-1.03-10.67-1.56-15.98-.03-.3-.11-.57-.16-.85-.64-3.38-1.2-6.78-1.95-10.14-1.38-6.05-2.89-12.09-4.3-18.15-.57-2.43-1.35-4.76-2.79-6.86-.39-.61-.61-1.48-.54-2.2,.18-2.38,.54-4.76,.8-7.14,.44-4.27,.94-8.53,1.28-12.8,.15-1.82,.57-3.36,2.2-4.41,.41-.28,.8-.84,.89-1.33,.77-5.1,1.41-10.22,2.23-15.33,1.13-6.97,2.38-13.93,3.61-20.89,.18-1.02,.39-2.03,.75-2.99,1.05-2.66,2.15-5.3,3.28-7.91,.3-.69,.89-1.25,1.21-1.92,.89-1.82,2.22-3.63,2.44-5.55,.39-3.2,2.22-5.84,2.82-8.93,.15-.75,.95-1.38,1.43-2.07,1.66-2.33,3.4-4.61,4.89-7.04,.53-.82,.77-2.08,.56-3.04-.39-1.9-.1-3.71,.61-5.35,1.02-2.35,1-4.59,.21-6.92-.03-.15,.13-.34,.15-.39,4.12-1.77,8.16-3.5,12.26-5.27,.07,.03,.28,.05,.43,.15,.85,.53,1.62,1.79,2.72,.85,1-.85,.3-1.92-.28-2.82-.1-.15-.08-.36-.16-.74,3.81-2.97,7.75-5.81,12.5-7.47-1.92,3.79-4.86,6.97-5.84,11.55,.84,.07,1.77,.44,2.18,.13,1.43-1.08,2.94-2.22,3.94-3.66,2.15-3.13,4.04-6.48,5.99-9.75,.77-1.31,1.44-2.69,2.15-4.02,.31-.59,.49-1.49,.97-1.71,2.35-.97,3.27-3.17,4.53-5.02,.48-.71,.85-1.87,.61-2.58-.67-1.97,0-3.58,.77-5.25,.28-.59,.46-1.21,.69-1.82-.18-.1-.36-.2-.56-.28-1.48,1.46-2.95,2.92-4.33,4.28-1.54,0-3.07-.11-4.56,.05-1.3,.13-2.58,.53-3.84,.87-2.48,.66-5.05,1.13-7.4,2.13-2.89,1.25-5.71,2.76-8.3,4.53-2.64,1.8-6.2,1.94-8.25,4.76-.34,.46-1.13,.59-1.71,.85-.66-.41-1.2-.77-1.87-1.2-3.31,3.3-7.33,4.12-11.86,4.04-2.82-.05-5.69,.69-8.48,1.35-2.61,.61-5.15,1.51-7.68,2.38-5.56,1.94-10.58,4.91-15.54,7.99-1.51,.92-3.07,1.74-4.63,2.61-.84-1.61-.07-2.1,.97-2.41,1.23-.36,2.03-1.02,1.89-2.61-.84,.05-1.67,.08-2.41,.13-2.48,4.23-4.82,4.86-7.91,2.05-4.91,.94-9.89,1.87-14.88,2.82-.1-.2-.2-.38-.31-.56,1.38-1.92,2.76-3.84,4.14-5.76,.61-.85,1.49-1.61,1.82-2.54,1.62-4.78,3.08-9.58,4.68-14.37,.98-2.97,1.99-5.96,3.2-8.86,1.53-3.71,3.68-7.15,4.15-11.26,.26-2.26,.72-4.53,1.31-6.74,2.43-9.21,3.27-18.67,4.61-28.06,.33-2.36,.51-4.78,1.05-7.09,.61-2.69,1.95-5.22,1.67-8.11-.05-.43,.23-.9,.41-1.33,.9-1.99,1.18-3.97,.28-6.07-.26-.61-.31-1.69,.05-2.1,2.51-2.76,2.79-6.2,3.12-9.63,.23-2.46-.2-5.09,.56-7.35,1.74-5.28,1.02-10.73,1.77-16.08,.08-.61-.08-1.51-.49-1.87-1.41-1.26-2.2-2.79-2.72-4.58-.25-.85-1.05-1.62-1.76-2.25-.89-.77-1.74-.89-3.07-.33-3.17,1.35-5.19,3.89-7.27,6.33-.89,1.03-1.69,2.44-1.82,3.76-.74,6.76-1.28,13.54-1.82,20.31-.33,4-.34,8.04-.85,12.01-.59,4.58-.62,9.09,.41,13.75-2.18,2.95-2.72,6.28-1.33,9.88,.13,.34,.1,.75,.07,1.12-.59,5.32-1.21,10.65-1.79,15.97-.16,1.53-.07,3.08-.33,4.59-.59,3.36-1.41,6.69-1.99,10.08-.33,1.85-.2,3.81-.56,5.64-.34,1.81-.94,3.51,.1,5.28,.21,.36,.16,.97,.05,1.41-1.48,5.43-2.76,10.93-4.55,16.26-2.17,6.42-4.76,12.7-7.22,19.02-.21,.57-.64,1.23-1.15,1.48-1.59,.75-3.27,1.35-5.3,2.17,.11-1.95,.25-3.48,.3-4.99,.03-1.61,.33-3.31-.08-4.82-.53-1.85-.66-3.46,.28-5.19,.46-.82,.92-1.81,.87-2.69-.13-2,1.18-3.38,1.76-5.07,.36-1.05,.9-2.05,1.26-3.12,1.3-3.84,1.12-8.12,3.45-11.68,.33-.51,.23-1.3,.36-1.95,.44-2.15,.74-4.33,1.41-6.42,.75-2.33,1.85-4.56,2.77-6.84,.16-.44,.2-.94,.28-1.41,.75-4.53,1.56-9.06,2.25-13.6,.92-6.05,1.77-12.13,2.64-18.18,.53-3.68,1.07-7.35,1.51-11.03,.31-2.74,.62-5.5,.62-8.25,0-2.18-.48-4.38-.71-6.56-.34-3.12-.9-6.17,.31-9.32,.94-2.43,1.13-5.14,1.67-7.73,.38-1.84,.38-3.89,1.26-5.45,.92-1.61,.98-3.25,1.38-4.89,.34-1.36,.71-2.81,1.46-3.95,2.43-3.72,5.27-7.15,7.09-11.32,1.67-3.84,3.94-7.4,5.86-11.13,1.44-2.77,2.89-5.56,2.63-8.88-.07-.72,.2-1.61,.61-2.18,2.2-3.02,3.17-6.99,6.94-8.83,.69-.33,1.12-1.25,1.61-1.95,.59-.85,1.05-1.84,1.69-2.66,2.12-2.69,4.5-5.19,5.89-8.4,.28-.64,1-1.13,1.59-1.61,2.15-1.66,4.22-3.17,4.71-6.27,.39-2.38,1.82-4.58,2.71-6.89,.77-2.03,1.74-4.07,2.08-6.2,.64-4.04,.84-8.16,1.33-12.22,.21-1.69,.53-3.43,1.18-4.97,.74-1.84,2.02-3.43,2.86-5.23,.85-1.8,1.51-3.71,2.18-5.6,.3-.87,.25-1.84-.82-2.15-1.74-.49-1.79-1.71-1.61-3.15,.13-1.15,.11-2.3,.21-3.45,.48-5.22,2.22-10.22,2.58-15.49,.23-3.38,1.25-6.71,1.9-10.06,.66-3.35,1.16-6.74,2.03-10.06,.9-3.48,1.46-7.12,3.72-10.14,1.46-1.95,1.9-2.03,3.3-.11,.87-.59,1.74-1.13,2.56-1.76,1.77-1.39,3.59-2.74,5.23-4.27,2.95-2.76,3.22-6.61,4-10.24,1.25-5.81,0-11.8,1.26-17.61,.21-1.02,.48-2.23,.13-3.12-1.1-2.86,.08-5.6,.02-8.37-.11-5.64,1.02-11.22,.66-16.9-.34-5.61-.26-11.26-.33-16.9-.03-4.51-1.53-9.04,.02-13.55,.07-.18-.02-.38,0-.57,.08-2.59,0-5.19,.33-7.75,.28-2.15,.33-4.12-.72-6.12-.44-.82-.53-1.74-1.46-2.3-1.31-.77-1.53-2.1-1.48-3.51,.02-.75,.07-1.58-.23-2.22-2.03-4.68-6.96-7.22-11.95-6.24-.51,.11-1.07,.48-1.38,.89-1.94,2.41-4.22,4.73-3.35,8.3,.07,.26-.05,.56-.07,.85-.59,6.68-1.13,13.37-1.77,20.05-.66,6.78-1.3,13.55-2.17,20.3-.67,5.23-1.74,10.4-2.58,15.61-.92,5.78-1.71,11.57-2.66,17.33-.94,5.56-2.03,11.13-3.05,16.69-2.07,11.11-4.09,22.23-6.2,33.33-1.36,7.15-3.1,14.24-4.28,21.41-1.41,8.6-2.56,17.26-3.53,25.93-.46,4.04-.95,7.93-2.94,11.58-2.74,5.1-4.87,10.49-9.19,14.65-2.38,2.3-4.14,5.25-6.22,7.86-1.95,2.43-3.56,5.14-5.19,7.76-1.71,2.77-5.63,3.87-5.76,7.75-.02,.08-.38,.13-.49,.26-1.95,2.44-3.92,4.87-5.84,7.33-.82,1.05-1.33,2.51-2.36,3.18-1.62,1.07-2.66,2.46-3.59,4.02-2.08,3.48-4.97,5.87-8.78,7.4-2.35,.94-4.66,2.23-6.6,3.84-2.71,2.25-5.1,4.89-7.56,7.43-3.79,3.91-7.52,7.88-11.04,11.58-1.88-.3-3.34-.54-4.87-.8-.59,.13-1.23,.2-1.91,.2-.05,0-.09,0-.13-.01-.21,.09-.46,.14-.69,.21-1.1,1.01-2.57,1.69-4.37,1.88-.65,.29-1.37,.49-2.16,.6-.68,.39-1.46,.67-2.32,.84-.84,.51-1.82,.86-2.94,1.02-1.09,.63-2.42,1-3.98,1.01-3.06,.89-6.06,1.93-9.07,2.98-6.1,2.13-12.21,4.33-18.33,6.47-2.87,1-5.76,1.94-8.68,2.79-7.09,2.05-14.24,3.77-21.68,3.87-5.55,.08-11.09,.11-16.64,.08-.9,0-1.95-.25-2.67-.75-4.51-3.18-9.44-5.91-12.32-10.94-.31-.54-.97-.9-1.54-1.21-1.85-1-3.72-1.95-5.6-2.9-3.33-1.69-6.65-3.4-9.99-5.02-2.12-1.03-4.41-1.76-6.43-2.94-4.18-2.41-8.5-4.53-12.67-6.92-3.4-1.94-6.78-3.86-8.94-7.42-3.58-5.89-7.45-11.58-11.21-17.36-1.54-2.38-2.95-4.87-4.73-7.07-1.8-2.23-3.68-4.38-4.81-7.07-.15-.34-.3-.74-.56-1-2.2-2.18-3.69-4.82-5.07-7.56-.34-.69-1.1-1.3-1.8-1.69-1.61-.87-2.61-2.13-3.22-3.86-.51-1.43-1.23-2.79-1.94-4.15-.92-1.79-2-3.5-2.86-5.3-1.64-3.46-3.13-6.99-4.74-10.45-.53-1.12-1.62-2.1-1.76-3.22-.3-2.64-.54-5.38-.13-7.97,.34-2.13-.2-3.71-1.21-5.38-.71-1.13-1.58-2.28-1.87-3.53-1.05-4.69-2.87-9.04-4.82-13.41-1.21-2.71-4-5.12-2.67-8.68,.05-.15-.13-.36-.18-.54-.53-2.25-1.02-4.48-2.44-6.4-.43-.57-.72-1.43-.69-2.13,.1-3.72-1.35-7.14-2.07-10.68-1.31-6.53-2.66-13.06-3.95-19.59-.26-1.31-.26-2.66-.46-3.99-.39-2.66-1.05-5.28-1.2-7.94-.34-5.74-.49-11.5-.59-17.26-.05-2.38,.15-4.78,.38-7.15,.61-6.19,1.28-12.36,1.92-18.54,.13-1.23,.21-2.48,.41-3.71,.8-4.87,1.72-9.75,2.46-14.64,.67-4.56,1.12-9.14,1.72-13.7,.34-2.66,.89-5.28,1.17-7.94,.34-3.22-.16-6.56,1.66-9.52,.13-.23,.13-.56,.16-.84,.48-4.35,.94-8.7,1.41-13.05,.08-.66,.33-1.3,.44-1.95,.46-2.44,1.02-4.87,1.33-7.33,.31-2.69-1.31-5.15-3.53-5.5-3.38-.51-6.76-.92-10.16-1.38-1.95,3.36-3.92,6.73-5.86,10.12-.23,.41-.31,.9-.43,1.36-.64,2.3-1.08,4.66-1.94,6.86-.92,2.41-1.87,4.68-1.25,7.37,.23,.97-.21,2.08-.43,3.12-.57,2.99-1.25,5.97-1.8,8.96-1.2,6.6-2.33,13.19-3.5,19.79-.46,2.53-1.03,5.04-1.36,7.58-.57,4.28-.94,8.58-1.49,12.86-1.33,10.17-2.79,20.33-2.07,30.65,.07,1.13,.02,2.31-.21,3.43-.94,4.82-.28,9.53,.75,14.24,.66,2.97,1.18,5.99,1.71,8.99,.66,3.66,1.15,7.35,1.87,11.01,.54,2.81,1.31,5.58,2.05,8.35,1.44,5.46,2.77,10.96,4.5,16.33,1.56,4.92,3.2,9.89,5.55,14.46,2.05,3.99,1.69,7.02-1.31,10.04-.11,.1-.33,.11-.49,.16-.38-.49-.75-.98-1.21-1.59-.43,.38-.77,.57-.95,.87-.9,1.44-1.82,2.86-2.56,4.38-.25,.48-.16,1.39,.15,1.84,2.36,3.18,2.74,7.09,3.95,10.67,.39,1.16,.18,2.53,.64,3.64,1.58,3.79,3.43,7.47,4.96,11.29,.95,2.41,2.79,4.56,2.4,7.47-.08,.57,.34,1.36,.77,1.82,1.82,1.97,2.89,4.27,3.5,6.86,.23,1.02,.61,2.03,1.12,2.94,5.58,9.83,11.36,19.53,18.53,28.29,2.48,3.04,4.81,6.24,7.58,8.99,5.15,5.14,10.81,9.7,17.02,13.59,.85,.54,1.58,1.28,2.48,2.02-2.3,2.64-2.67,5.53-2.22,8.57,.62,4.17,1.31,8.34,1.99,12.49,.07,.38,.05,.85,.26,1.12,1.41,1.69,.67,3.28-.05,5.45-1.76-2.26-2.66-5.23-5.81-4.32-.74,1.3-1.1,2.64-1.99,3.36-3.46,2.89-4.04,7.09-5.07,10.99-.48,1.85-1.08,3.61-1.69,5.4-.49,1.48-.67,3.08-.84,4.66-.11,.94,.21,1.92,.1,2.86-.46,3.5,.77,6.92,.28,10.4-.05,.28,.07,.59,.2,.84,1.02,2.07,.72,4.3,.85,6.5,.13,2.2,.38,4.38,.66,6.56,.26,2.22,.62,4.41,.95,6.63-2.12-2.74-4.55-4.68-8.06-5.15-.64,1.66,.13,4.07-2.54,5.12,.46-3.1,.9-5.92,1.31-8.73,.84-5.69,1.72-11.37,2.49-17.07,.38-2.82,.51-5.69,.77-8.53,.18-1.9,.36-3.81,.57-5.71,.11-1.03,.38-2.05,.43-3.08,.21-4.28,.39-8.58,.54-12.86,.03-.74,.11-1.77-.3-2.18-1.66-1.64-3.5-3.08-5.19-4.55-1.46,1.66-2.71,2.97-3.79,4.38-.44,.57-.71,1.38-.8,2.12-.41,2.74-.8,5.5-1.07,8.27-.82,8.48-1.25,17.05-2.46,25.48-1.33,9.27-3.31,18.46-5.1,27.67-.72,3.74-1.85,7.4-2.56,11.13-.94,4.99-1.64,10.01-2.44,15.03-.38,2.41-.82,2.76-3.2,3.38-2.58,.67-5.12,1.49-7.68,2.26-.46,.13-.9,.34-1.36,.46-1.69,.43-2.3,.05-2.58-1.67-.1-.56,.03-1.15-.05-1.72-.23-1.79-.46-3.58-.79-5.35-.1-.51-.49-1.1-.92-1.38-1.43-.92-2.9-1.79-4.4-2.56-1.72-.9-3.56-.87-5.28-.05-1.3,.61-2.46,1.46-3.69,2.2-.62,.38-1.25,.74-2.48,1.48,.31-1.33,.43-2.02,.66-2.67,.28-.8,.8-1.54,1-2.36,1.1-4.61,2.86-9.12,2.25-14.03-.07-.54,.26-1.31,.66-1.72,1.35-1.36,1.92-2.99,2.31-4.81,.44-2,.64-4.18,2.86-5.35,1.3-.69,1.12-1.87,.38-2.97-.72-1.08-.82-2.12,.03-3.18,.23-.3,.43-.66,.49-1.02,.8-4.12,1.58-8.25,2.33-12.39,.61-3.38,1.18-6.76,1.77-10.14,.38-2.25,.79-4.5,1.15-6.76,.08-.46-.03-.95,.05-1.43,.71-4.3,1.66-8.57,2.13-12.88,.66-6.09,1.05-12.21,1.43-18.31,.15-2.26-.1-4.56-.11-6.86-.03-6.17,.13-12.36-.11-18.53-.2-4.56-.9-9.12-1.43-13.67-.36-3.23-.62-6.48-1.26-9.66-.9-4.5-2.07-8.94-3.25-13.37-.57-2.18-1.39-4.3-2.9-6.58-.48,1.43-.82,2.46-1.12,3.31-1.08-4.33-2.12-8.8-3.31-13.21-1.08-3.95-2.33-7.86-3.53-11.8-1.36-4.55-3.02-9.04-4.02-13.67-.77-3.53-.75-7.22-1.03-10.85-.25-3.12-.41-6.24-.62-9.35-.75,.36-1.1,.79-1.23,1.26-.64,2.4-1.25,4.79-1.82,7.2-.18,.74-.38,1.49-.39,2.23,0,2.3,.05,4.59,.11,6.88,.08,2.84-.07,5.61,.77,8.47,1.44,4.96,1.38,10.26,3.23,15.15,.16,.43,.08,.95,.08,1.43,0,2.17-.25,4.38,.03,6.51,.54,4.07,1.51,8.09,2.08,12.18,.72,5.12,1.2,10.27,1.82,15.41,.07,.64,.21,1.69,.59,1.82,1.89,.67,1.58,2.1,1.54,3.53-.02,.87,.02,1.74,.18,2.58,1.3,7.12,1.23,14.23-.1,21.32-.26,1.48-.92,2.89-1.15,4.36-.57,3.48-.97,6.99-1.51,10.49-.13,.82-.28,1.97-.82,2.33-1.84,1.21-.95,2.35,.05,3.71-1.99,.39-2.08,1.77-2.28,3.28-.36,2.64-.74,5.3-1.46,7.86-.85,2.94-2.07,5.76-3.15,8.61-.2,.54-.46,1.05-.71,1.58,.1-5.51-.43-10.78-1.31-16.1-.64-3.91-.2-8.01-.16-12.03,.05-4.4,.26-8.8,.28-13.18,.02-2,.16-4.2-.59-5.94-.69-1.61-.77-3.1-.82-4.69-.02-.87,.05-1.74-.08-2.59-.75-4.79-1.39-9.6-.48-14.46,.1-.53-.11-1.12-.2-1.67-.72,.57-1.03,1.15-1.08,1.76-.23,4.02-.53,8.04-.59,12.06-.11,7.86-.1,15.72-.18,23.58,0,.95-.36,1.87-.46,2.82-.2,1.71-.36,3.41-.46,5.14-.07,1.23,.07,2.48-.03,3.71-.2,2.86-.41,5.73-.79,8.57-.15,1.25-.67,2.46-1.12,3.97,.69,1.58,1.02,3.25,.39,5.22-1.08,3.51-1.02,7.15-1.46,10.73-.33,2.63-1.15,5.17-1.59,7.78-.23,1.41-.39,2.89-.16,4.27,.21,1.21,.02,2.2-.34,3.31-1.46,4.55-2.82,9.12-3.22,13.91-.05,.66-.49,1.62-1,1.84-1.48,.61-1.92,1.67-2.08,3.1-.08,.69-.44,1.33-.67,1.99-.54-.48-.69-.9-.71-1.33-.13-2.67-.16-5.37-.33-8.04-.34-5.73-.67-11.47-1.15-17.2-.49-5.83-1.2-11.62-1.71-17.44-.15-1.59-.07-3.25,.16-4.84,.56-3.87,1.48-7.71,1.84-11.6,.31-3.4,1.17-6.73,.89-10.26-.43-5.5-.33-11.04-.48-16.56-.13-5.45-.02-10.91-.56-16.31-.44-4.55-.43-9.29-2.79-13.5-.26-.48-.2-1.12-.34-1.67-.15-.54-.2-1.33-.56-1.56-2.05-1.26-2.23-3.41-2.81-5.35,.51-.39,.98-.77,1.48-1.15-1.76,.05-2.89-2.4-5.04-.36,.13-1.92,.23-3.18,.31-4.53,.69,.25,1.05,.38,1.44,.53-.21-3-.43-5.76-.57-8.52-.08-1.61,.07-3.25-.1-4.86-.36-3.48-.46-6.97-.97-10.45-.53-3.64-.1-7.43-.13-11.16-.02-3.84,.18-7.7-.18-11.5-.39-4.1-1.07-8.17-.3-12.29,.07-.36,0-.77-.11-1.13-.43-1.36-1.17-2.74,.79-3.63,.25-.11,.21-.89,.25-1.35,.15-2.58-.02-5.19,.46-7.68,.46-2.41-1.12-5.23,1.35-7.25,.05-.05,.02-.2,.03-.3,.3-5.53,.64-11.08,.9-16.62,.15-3.05,.07-6.12,.25-9.17,.23-3.92,.66-7.81,.92-11.73,.53-7.55,.95-15.1,1.54-22.64,.2-2.66,.67-5.32,1.13-7.96,.15-.79,.51-1.64,1.02-2.28,1.28-1.62,1.66-3.95,.61-5.63-.71-1.1-.75-1.99,.02-3.13,.51-.79,.75-1.95,.69-2.9-.11-1.48,.36-2.12,1.87-2.28,.21,1.61,.56,3.13,.56,4.64-.02,4.97-.2,9.94-.21,14.92,0,1.8,.36,3.58-1.12,5.09-.38,.39-.46,1.35-.33,1.94,.69,2.86-.15,5.68-.03,8.53,.13,3.53,.31,7.06-.48,10.6-.43,1.92-.18,4-.1,6.01,.08,2.4,.53,4.78,.46,7.14-.1,3.46-.53,6.89-.75,10.34-.07,1,.05,2,.08,2.92,1.21,.23,2.08,.28,2.87,.56,1.07,.39,1.61,1.07,1.43,2.43-.77,5.89-1.39,11.78-2.07,17.69-.41,3.51-1.26,7.06-1.12,10.53,.23,5.51-1.35,10.8-1.48,16.23-.02,.36-.16,.75-.33,1.08-1.13,2.25-1.13,4.73-1.48,7.15-.26,2.02,.18,4-.87,6.09-.84,1.72-1.02,4.32-.36,6.1,.74,1.99,.95,3.84,.92,5.84,0,.57,.13,1.16,.21,1.74,.97-2.38,1.03-4.73,.61-7.11-.3-1.54-.34-3.07,1.3-4.68,.16,3.97,.75,7.42-.62,10.76-.25,.61-.31,1.3-.39,1.97-.49,3.74,1.12,7.52-.05,11.27-.11,.33-.08,.82,.1,1.12,1.41,2.33,.94,4.78,.61,7.24-.2,1.53-.31,3.07-.25,4.59,.03,.44,.77,1.17,1.25,1.23,.51,.07,1.21-.39,1.62-.82,.28-.28,.23-.9,.3-1.36,1.08-7.94,2.15-15.88,3.22-23.83,.05-.38,.05-.77,.07-1.15,.53-7.94,1.03-15.88,1.59-23.83,.08-1.15-.2-3.02,1.54-2.86,1.64,.16,1.17,2.03,1.05,3.13-.31,2.99-.16,5.92,.38,8.88,.15,.84,.1,1.72,.07,2.58-.11,2.87-.25,5.74-.38,8.63-.05,1.02-.21,2.08,.82,2.49,2.05-1.66,3.92-3.17,5.94-4.81,.02-.13,.11-.53,.08-.89-.62-6.78-1.31-13.54-1.89-20.33-.18-2.02-1.13-4.15,.49-6.05,.16-.18,.16-.61,.07-.84-.98-2.36-1.21-4.73-.41-7.2,.15-.49-.18-1.12-.23-1.69-.11-1.44-.18-2.87-.28-4.32-.15-1.99-.31-3.97-.49-5.97-.15-1.71-.39-3.41-.46-5.12-.05-1.53,.2-3.05,.11-4.58-.11-2-.53-3.99-.59-5.99-.1-2.59,.05-5.17,.02-7.76-.05-4.4-.41-8.83-.16-13.21,.36-6.22,1.02-12.41,.82-18.64-.02-.39-.02-.77,.03-1.15,.74-5.79,.34-11.65,1.72-17.41,.92-3.89,.98-7.96,2.81-11.68,.66-1.33,1.26-3.05-.31-4.74-3.66,2.13-3.38,6.33-5.32,9.8,.18-2.13,.43-3.84,.48-5.55,.15-5.09,2.44-10.01,1.1-15.21-.07-.26,.05-.57,.13-.85,.67-2.66,.46-5.56,2.31-7.89,.28-.36,.43-.9,.46-1.36,.11-2.76,1.53-5.37,.84-8.22-.08-.33,.11-.74,.18-1.1,.94-4.59,2.07-9.14,2.77-13.77,.9-6.05,1.84-12.11,3.56-17.98,1.02-3.41,.62-6.96,1.9-10.37,1.72-4.64,2.71-9.57,4-14.37,.28-1.07,.66-2.28,1.95-2.05,1.51,.26,.95,1.66,.8,2.61-.56,3.51-1.21,6.99-1.77,10.49-.18,1.13-.28,2.3-.25,3.45,.03,1.15,.38,2.22,1.76,2.43,.18-.28,.36-.43,.38-.61,.26-2.13,.98-3.69,3.38-4.41,1.02-.31,2.25-1.9,2.33-2.99,.25-3.64,1.97-6.56,3.76-9.52,2.89-4.74,5.84-9.45,8.61-14.26,1.26-2.18,2.43-4.33,4.68-5.71,.62-.38,1.1-1.07,1.51-1.71,1.92-3.02,3.59-6.17,5.87-9.02,3.56-4.48,6.38-9.53,9.62-14.29,4.3-6.32,8.68-12.59,13.06-18.85,.64-.9,1.66-1.56,2.23-2.48,.94-1.54,2.74-1.59,3.94-2.59,2.18-1.87,4.28-3.82,6.45-5.69,1.53-1.31,3.07-2.61,4.64-3.84,3.38-2.67,6.84-5.23,10.17-7.96,1.79-1.48,1.69-1.69,.62-4.28-.51,.2-1.08,.31-1.53,.62-2.08,1.48-4.02,3.25-6.24,4.5-5.53,3.13-10.24,7.19-14.47,11.85-.44,.48-1.13,.71-1.69,1.07-.11-.15-.23-.3-.34-.43,.77-1.31,1.53-2.63,2.3-3.92-.16-.11-.33-.23-.49-.36-.33,.3-.72,.53-.97,.87-3.74,5.07-7.48,10.14-11.19,15.24-3.4,4.69-6.79,9.4-10.16,14.13-1.48,2.1-2.9,4.23-4.28,6.4-2.87,4.51-5.69,9.04-8.53,13.55-.05,.08-.08,.16-.13,.25-2.69,4.28-5.4,8.55-8.07,12.83-1.61,2.58-3.15,5.2-4.81,7.75-.33,.51-1.07,.77-2.02,1.41,.05-1.07,.02-1.53,.1-1.97,.61-3.02,1.23-6.01,1.82-9.01,.23-1.13,.33-2.28,.59-3.4,.71-2.86,1.49-5.68,2.23-8.52,.61-2.4,1.07-4.84,1.82-7.19,1.07-3.28,2.23-6.51,3.53-9.7,2.38-5.84,4.84-11.65,7.37-17.43,.84-1.94,2.02-3.66,4.1-4.64,.75-.36,1.26-1.28,1.77-2.03,1.69-2.54,3.22-5.2,5.04-7.65,1.41-1.9,3.25-3.48,4.78-5.3,1.21-1.46,2.18-3.13,3.36-4.63,1.97-2.46,4.02-4.86,6.02-7.3,1.21-1.48,2.4-2.97,3.54-4.5,1.08-1.44,2.13-2.92,3.12-4.43,1.44-2.2,2.58-4.63,4.23-6.63,2.23-2.71,4.84-5.12,7.3-7.65,4.02-4.1,8.06-8.19,12.06-12.29,.66-.67,1.49-1.33,1.84-2.15,.98-2.41,2.77-4.05,4.64-5.73,3.82-3.4,7.56-6.89,11.14-10.17-.3-1.31-.53-2.31-.77-3.43-.51-.07-1.08-.28-1.59-.16-.61,.13-1.2,.84-1.72,.77-2.36-.31-3.97,1.03-5.48,2.43-3.1,2.84-6.1,5.79-9.07,8.75-1.9,1.89-3.58,4.04-5.56,5.81-3.15,2.81-6.56,5.28-9.7,8.07-4,3.58-7.84,7.32-11.77,10.98-.56,.51-1.18,.94-1.79,1.41-.15-.18-.3-.36-.46-.54,4.32-6.97,9.42-13.36,14.88-19.58-.67-1.05-1.41-1.3-2.33-.41-1.16,1.13-2.25,2.35-3.48,3.41-.75,.66-1.64,1.36-2.58,1.58-2.22,.53-3.74,1.71-4.74,3.71-.28,.57-.67,1.25-1.2,1.54-1.95,1.08-3.12,2.82-4.09,4.69-1.97,3.82-3.74,7.73-5.79,11.5-1.9,3.53-3.87,7.06-6.15,10.35-1.94,2.81-4.46,5.2-6.5,7.94-2.84,3.84-5.83,7.58-7.93,11.91-1.36,2.81-2.76,5.6-4.1,8.4-.18,.38-.33,1.08-.13,1.28,1.46,1.56,.18,2.9-.33,4.23-.49,1.31-1.43,2.44-1.99,3.74-1.02,2.38-1.84,4.82-2.84,7.2-1.23,2.9-2.74,5.69-3.81,8.65-1.99,5.5-4.23,10.81-7.53,15.72-1.58,2.33-2.81,5.04-2.44,8.11,.11,.92,.05,1.95-.25,2.81-1.54,4.51-3.23,8.98-4.78,13.47-.69,1.99-1.28,4.02-1.74,6.07-1.02,4.46-1.61,9.04-2.95,13.41-1.66,5.38-1.99,11.16-4.87,16.18-.21,.38-.18,.94-.26,1.39-1.25,6.48-2.58,12.95-3.72,19.44-.8,4.51-1.33,9.09-2.02,13.62-.11,.79-.41,1.54-.62,2.31-.72-4.28-1.12-8.47-1.07-12.65,.05-3.23,.62-6.47,1.05-9.68,.46-3.69,1.13-7.37,1.51-11.06,.57-5.61,.98-11.24,1.44-16.87,.46-5.71,.56-11.47,2.1-17.05,.46-1.62,.87-3.33,0-5.05-.21-.43,0-1.12,.1-1.66,.59-3,1.36-5.99,1.76-9.01,.41-3.02,.61-6.01,1.62-8.98s1.64-6.02,3.31-8.76c.72-1.2,.94-2.69,1.43-4.02,.2-.51,.49-.97,.82-1.41,.39-.53,.97-.94,1.26-1.51,1.03-2.03,1.9-4.15,2.97-6.19,2.25-4.32,4.53-8.61,6.89-12.86,2.15-3.84,4.38-7.63,6.68-11.39,.79-1.28,1.97-2.31,2.84-3.56,3-4.3,5.94-8.66,8.93-12.96,.66-.94,1.51-1.72,2.2-2.63,2.54-3.35,4.89-6.86,7.63-10.04,1.74-2.03,2.38-4.38,3.23-6.74-.53,.18-.92,.43-1.25,.75-6.2,6.51-11.58,13.72-17,20.89-2.97,3.95-5.46,8.25-8.32,12.31-2.46,3.51-3.87,7.61-6.42,11.11-2.03,2.81-3.35,6.1-5.07,9.14-.74,1.3-1.69,2.48-2.56,3.72,.11-2.02,.49-3.89,1.21-5.61,2.15-5.19,4.33-10.37,6.71-15.46,2.92-6.25,6.04-12.41,9.12-18.58,1.71-3.4,3.45-6.79,5.25-10.14,1.26-2.33,2.77-4.53,3.99-6.89,.95-1.8,1.38-3.89,3.22-5.19,.44-.3,.69-.9,.95-1.43,1.82-3.66,3.4-7.48,6.14-10.62,.38-.43,.67-.98,.82-1.53,.92-3.61,3.27-6.24,5.92-8.63,1.35-1.2,3-2.07,4.25-3.35,2.71-2.79,5.25-5.74,7.86-8.63,.89-1,1.71-2.05,2.66-2.97,1.61-1.56,1.71-2.13,.8-4.25-.3-.71-.56-1.87-.21-2.31,1.51-1.94,3-4.14,5.96-3.84,1.36,.13,2.28-.3,3.27-1.3,4.82-4.82,10.24-8.93,16-12.59,1.58-1.02,3.23-1.74,5.23-2.07,1.94-.31,4.1-1.43,5.41-2.87,1-1.12,1.9-1.59,3.2-1.92,1.71-.46,3.66-.49,4.66-2.41,.18-.33,.79-.48,1.23-.61,4.86-1.36,9.71-2.76,14.6-4.02,1.1-.28,2.05-.54,3-1.31,1.15-.9,2.66-1.48,4.09-1.85,5.84-1.54,11.68-2.97,17.56-4.4,3.25-.79,6.61-1.2,9.78-2.23,3.97-1.28,7.96-1.81,12.08-1.89,4.68-.11,9.4,.21,13.85-1.18-.13-1.44-.26-2.81-.39-4.17-2.38-1.31-4.94-1.9-7.7-1.51-.54,.08-1.13-.03-1.69-.15-2.05-.44-4.07-1.07-6.14-1.35-2.64-.38-5.38-.18-7.97-.77-3.56-.8-7.01-.69-10.5,.15-2.15,.49-4.32,1-6.5,1.15-3.94,.28-7.71,.95-11.45,2.31-7.17,2.63-14.51,4.78-21.69,7.38-5.48,1.99-10.86,4.27-15.92,7.24-3.77,2.22-7.66,4.25-11.29,6.68-4.14,2.74-8.12,5.69-12,8.78-2.84,2.26-5.35,4.92-8.04,7.35-3.95,3.54-7.01,7.83-9.83,12.27-2.17,3.4-4.45,6.66-7.43,9.44-1.84,1.72-3.43,3.72-5.12,5.61-2.28,2.56-4.43,5.25-6.86,7.65-2.56,2.54-5.48,4.74-7.04,8.16-.15,.34-.41,.66-.67,.94-4.23,4.48-7.55,9.58-10.58,14.92-2.97,5.23-6.07,10.4-9.07,15.62-3.48,6.04-7.27,11.93-10.26,18.2-2.76,5.83-5.48,11.73-7.01,18.1-1.33,5.6-3.23,11.04-4.58,16.62-1.49,6.24-2.71,12.55-3.97,18.84-1.07,5.46-2.08,10.93-3.02,16.41-.97,5.66-1.72,11.37-2.69,17.03-1.23,7.17-2.64,14.33-3.81,21.51-1.21,7.37-2.25,14.78-3.31,22.19-.64,4.55-1.26,9.11-1.79,13.67-.48,4.19-.86,8.4-1.25,12.55,.2,1.46,.07,2.97-.4,4.35-.16,4.14-.24,8.22-.9,12.36-.08,.5-.23,.97-.41,1.41-.08,.95-.16,1.87-.22,2.78-.31,4.69-.33,9.42-.98,14.06-.66,4.74,.18,9.55-1.03,14.23-.2,.72-.07,1.53-.13,2.3-.11,1.03-.28,2.05-.41,3.15-.04,0-.07,.01-.11,.02,.08,.65,.09,1.32,.03,1.97,.06,.76,.04,1.52-.08,2.27,.04,.04,.09,.06,.13,.11,0,1.18,.03,2.41-.02,3.66-.21,6.04-.48,12.06-.69,18.1-.05,1.53-.02,3.07,.11,4.59,.2,2.36,.71,4.71,.77,7.09,.16,6.12,.18,12.26,.25,18.39,.02,1.21,.02,2.45,.02,3.45-.05,.03-.09,.05-.13,.08,.1,.55,.15,1.11,.14,1.68,.25,1.13,.3,2.3,.12,3.45,.3,.49,.44,1.1,.45,1.87,.07,4.59,.26,9.21,.46,13.8,.15,3.74,.31,7.47,.53,11.21,.1,1.71-.08,3.61,.57,5.1,1.1,2.48,1.36,5.1,1.2,7.6-.2,3.13-.11,6.01,.64,9.17,1.05,4.38,1.31,8.99,.85,13.69-.8,8.11-.8,16.28-1.25,24.42-.21,3.82-.67,7.65-1.07,11.45-.21,2-.49,3.99-.79,5.97-.43,2.84-.89,5.68-1.35,8.52-.03,.13-.11,.25-.21,.38-.07,.61-.21,1.2-.4,1.78,0,.77-.11,1.54-.3,2.28,0,0,0,0,0,0-.39,1.61-.79,2.95-1.03,4.35-.64,3.68-1.1,7.38-1.84,11.04-.92,4.59-2.1,9.14-3.04,13.72-.49,2.44-.57,4.96-1.12,7.37-1.1,4.97-2.38,9.88-3.58,14.82-1.03,4.36-1.94,8.78-3.1,13.09-.8,2.94-2.03,5.76-2.94,8.66-1.59,5.12-3.28,10.14-7.84,13.55-.21,.16-.33,.44-.51,.69-4.4,5.86-6.71,12.8-9.76,19.33-.87,1.87-1.74,3.59-3.1,4.12-.54,1.85-.77,3.25-1.36,4.46-1.58,3.23-3.3,6.4-4.97,9.6-.08,.15-.08,.34-.08,.53-.15,4.59-2.9,8.34-4.22,12.55-.98,3.23-2.94,6.22-4.74,9.14-1.36,2.18-1.56,4.02,.36,5.89,.11,.1,.07,.36,.13,.72-.26,.45-.52,.91-.77,1.36,.77,.7,1.4,1.62,1.79,2.81,.88,.62,1.97,1.25,3.14,1.82,2.26-.02,4.63,.2,7.06,.55,.7-.26,1.47-.43,2.32-.49,.42-.1,.85-.19,1.32-.23,.15-.04,.3-.06,.45-.09,.96-.41,2.06-.65,3.31-.65,.04,0,.08,0,.12,0,.97-.43,2.07-.7,3.36-.7,7.05,0,9.33,7.25,6.98,12.11-.03,.71-.14,1.41-.33,2.08-.06,.43-.14,.86-.27,1.27-.1,.57-.24,1.13-.44,1.67-.18,1.08-.55,2.13-1.1,3.06-.13,3.78,.1,7.59,.18,11.38,.21,11.13,.1,22.27,1.44,33.33,.56,4.63,1.26,9.24,2.77,13.75,1.56,4.61,3.68,8.84,6.48,12.73,1.08,1.51,1.69,2.82,1.31,4.71-.28,1.44-.49,2.97,.64,4.4,.43,.53,.18,1.64,.16,2.49-.03,.66-.31,1.33-.28,1.99,.23,4.28,.62,8.57,0,12.86-.2,1.3,.1,2.67,.13,4,.02,.75,.05,1.54-.1,2.28-.62,3.08-1.12,6.12-.25,9.29,.31,1.13-.02,2.46-.11,3.71-.08,.85-.38,1.69-.41,2.54-.15,5.37-.23,10.75-.39,16.11-.13,4.36-.2,8.75-.54,13.11-.53,6.48-.72,13-1.05,19.48-.31,5.89-1.89,11.77-.97,17.74,.03,.26-.07,.56-.1,.85-.49,4.17-1.02,8.34-1.43,12.52-.49,5.14-.85,10.27-1.31,15.41-.38,4.18-1.3,8.27-1.41,12.52-.11,4.07-1.26,8.11-1.97,12.14-.11,.67-.25,1.33-.3,2-.43,4.86-1.67,9.58-2.66,14.34-.66,3.18-1.74,6.3-2.05,9.52-.21,2.18-.71,3.63-3.22,4.09,.54,1.51,1.21,3.97,.89,6.89-.39,3.46-1.94,5.48-2.43,6.69-.9,2.22,.15,5.6,2.44,9.35,0-.02,.02-.02,.02-.03,.18,.16,.38,.26,.38,.36,0,.07-.02,.13-.05,.2,7.2,11.32,25.29,25.55,35.66,20.92,3.3-1.48,3.35-3.74,13.09-11.57,3.54-2.86,3.81-2.48,8.53-6.33,6.22-5.07,12.41-10.21,18.51-15.42,4.07-3.48,7.97-7.14,11.91-10.78,3.45-3.17,6.84-6.42,10.26-9.63,1.51-1.43,3.02-2.89,4.58-4.27,3.05-2.72,6.05-5.61,11.01-4.35-1.1,1.33-2,2.71-3.18,3.77-1.66,1.49-2.63,3.15-2.77,5.45-.07,1.05-.66,2.17-1.28,3.08-1.08,1.58-1.35,3.38-.48,5,.49,.92,.97,1.85,1.49,2.82,1.03,.31,2.12,.62,3.17,.94,1.69-1.61,3.54-2.17,5.78-1.43,1.3,.44,2.3,.08,3.31-.97,1.72-1.77,3.68-3.33,5.55-4.94,3.25-2.76,5.63-6.25,8.02-9.7,2.38-3.45,4.5-7.09,6.68-10.67,1.26-2.07,2.84-4,3.05-6.63-2.28,.07-2.86-.31-2.84-2.18,.02-1.02,.36-2.05,.72-3,.34-.98,.92-1.89,1.35-2.86,1.05-2.41,2.08-4.82,3.07-7.27,.61-1.49,1.15-3.04,1.61-4.59,.15-.51,.25-1.33-.05-1.62-1.49-1.54-.62-2.99-.05-4.5,.33-.9,.49-1.85,.71-2.79,.48-2.15,.62-4.43,1.49-6.42,1.25-2.86,1.9-5.78,2.35-8.83,.34-2.23,.69-4.45,2.07-6.48,.85-1.25,.87-3.08,1.21-4.66,.2-.92,.31-1.87,.44-2.81,.03-.13-.1-.28-.1-.3-.61,.23-1.18,.44-2.02,.77-.38-2.95-2.28-4.2-4.74-4.3-2.84-.11-5.69,.23-8.07,2.08-.3,.23-.51,.57-.72,.89-2.48,3.95-4.43,8.17-6.02,12.52-.95,2.59-1.39,5.35-2.05,8.04-.61,2.51-1.12,5.04-1.82,7.52-.36,1.26-1.13,2.41-1.58,3.68-.64,1.79-1.02,3.68-1.76,5.41-.92,2.2-1.43,4.48-.79,6.73,.74,2.53-.13,4.45-1.58,6.53-3.64-.95-6.74,.21-9.66,2.33-3.56,2.59-7.37,4.87-10.8,7.61-3.33,2.64-7.96,3.51-10.26,7.53-.08,.15-.31,.2-.48,.3-2.9,1.74-5.89,3.13-9.42,2.9-.94-.07-1.89,.33-2.82,.49-2.36,.41-4.71,.84-7.07,1.21-3.69,.59-7.4,1.08-10.35,3.74-.25,.23-.61,.34-.94,.51,.28-1.18,.84-2.17,1.64-2.81,2.54-2.02,5.27-3.77,7.76-5.84,5.38-4.45,10.7-8.96,15.95-13.54,4.27-3.69,8.52-7.4,12.57-11.32,4.61-4.43,9.01-9.09,13.42-13.7,3.72-3.87,7.3-7.88,9.83-12.68,.66-1.21,1.15-2.35,.54-3.81-.23-.57-.07-1.49,.25-2.1,.61-1.18,1.43-2.25,2.2-3.35,.49-.71,1.12-1.33,1.56-2.07,.84-1.43,.72-3.51-.15-4.3-1.1-.97-3.04-.95-4.51,.1-.79,.56-1.43,1.31-2.22,1.82-1.36,.89-2.82,2.33-4.17,2.26-1.64-.08-2.25,.62-3.04,1.54-1.31,1.54-2.61,3.07-3.87,4.63-2.26,2.84-4.38,5.83-6.78,8.55-4.92,5.6-9.96,11.08-15.51,16.06-2.35,2.1-4.56,4.27-7.09,6.19-4.1,3.13-7.96,6.6-11.98,9.86-1.92,1.58-3.87,3.17-6.45,4.33,1.79-4.04,3.48-7.68,5.04-11.37,.36-.85,.28-1.89,.54-2.81,.57-2,.75-4.36,1.97-5.89,1.95-2.49,2.94-5.35,4.2-8.12,.95-2.08,2.13-4.25,2.35-6.45,.2-2.28,.95-4.27,1.71-6.32,.75-2.08,1.61-4.12,2.3-6.22,1-3.07,2.41-5.99,2.13-9.44-.13-1.8,.69-3.74,1.3-5.55,1.71-5.14,3.54-10.26,5.32-15.38,.1-.28,.11-.57,.16-.85,.89-5.66,1.74-11.34,2.67-17,.39-2.46,1.03-4.87,1.49-7.32,.92-4.99,1.94-9.98,2.58-15,.23-1.72-.54-3.56-.85-5.33-.77,.64-1.07,1.23-1.17,1.85-.51,3.02-.92,6.05-1.46,9.06-.62,3.4-1.28,6.78-2.02,10.14-.74,3.36-1.79,6.68-2.36,10.08-1.43,8.55-4.36,16.59-8.06,24.4-1.31,2.77-2.66,5.53-3.77,8.39-2.56,6.48-4.87,13.06-7.5,19.53-4.28,10.55-8.73,21.04-13.13,31.54-.36,.84-.89,1.61-1.33,2.41,.26-4.18,.82-8.22,1.44-12.27,.57-3.68,1.3-7.35,1.79-11.04,.21-1.51-.1-3.07,.05-4.59,.57-6.38,1.02-12.78,1.94-19.12,.57-3.94,1.72-7.83,2.95-11.63,1.31-4,3.08-7.84,4.53-11.78,3.04-8.25,3.82-17,5.55-25.53,1.39-6.94,2.12-14.01,2.95-21.05,.51-4.17,.84-8.37,.92-12.57,.11-5.84-.03-11.68-.18-17.52-.13-4.87-.44-9.75-.71-14.62-.2-3.53-.64-7.01,.02-10.57,.38-2.02,.03-4.22-.31-6.27-.59-3.59-1.44-7.12-2.17-10.68-.15-.66-.3-1.35-.23-1.99,.25-2.99,.03-5.86-1.41-8.6-.41-.8-.34-1.85-.56-2.77-.97-4.09-1.92-8.16-2.95-12.21-.11-.51-.72-.89-1.02-1.38-.33-.54-.82-1.18-.79-1.76,.15-2.08-.85-3.63-1.97-5.2-.43-.61-.75-1.33-.95-2.07-.89-3.54-2.79-6.61-4.51-9.78-.56-1-1.33-1.87-1.89-2.86-1.97-3.51-3.86-7.06-5.84-10.55-.36-.64-.95-1.23-1.56-1.66-1.9-1.31-2.94-3.23-3.91-5.22-.3-.61-.53-1.3-.97-1.77-1.46-1.56-1.66-3.33-1.26-5.33,.16-.84,.2-1.72,.16-2.58-.02-.46-.33-.92-.66-1.72-.56,.77-.9,1.18-1.18,1.64-1.79,2.89-2.28,6.45-4.86,8.98-.54,.53-.53,1.79-.49,2.69,.02,.84,.41,1.66,.67,2.59-1.71,1.12-1.72,2.56-.85,4.22,1.13,2.1,1.95,4.41,3.33,6.32,2.35,3.22,3.95,6.83,5.97,10.19,2.59,4.33,3.68,9.44,7.01,13.36,.28,.31,.2,.9,.28,1.38,.15,.74,.26,1.49,.48,2.23,1.9,6.81,3.81,13.62,5.76,20.43,.41,1.44,1.08,2.82,1.54,4.25,.3,.89,.61,1.82,.61,2.72,.05,5.5,1.07,10.85,2.49,16.1,.57,2.13,1.26,4.17,1.26,6.38-.02,3.74-.13,7.47,.95,11.13,.56,1.89,.8,3.89,1.02,5.87,.25,2.35,.39,4.73,.41,7.11,.02,5.27,.31,10.58-.18,15.82-.74,7.71-2.05,15.38-3.15,23.05-.26,1.84-.66,3.64-1,5.46-.25,.05-.48,.08-.72,.13-.54-.8-1.43-1.54-1.59-2.43-.71-3.56-1.23-7.15-1.77-10.75-.75-5-1.41-10.03-2.22-15.03-.23-1.46-.82-2.86-1.31-4.53-2.05,1.43-1.79,3.27-1.85,4.89-.1,3.35,.02,6.71-.03,10.06-.02,1.53,.1,3.1-.54,4.58-.33-.85-.46-1.71-.44-2.54,.02-5.84,.2-11.67,.08-17.51-.13-6.12-.33-12.27-.87-18.38-.62-7.07-1.71-14.1-4.3-20.79-.07-.16,.11-.43,.34-1.21,1.85,4.04,2.56,7.88,3.41,11.65,.87,3.82,1.53,7.7,2.35,12,2.18-6.92-5.58-32.18-10.93-35.39,.54,1.41,.92,2.46,1.36,3.48,.46,1.05,1.02,2.07,1.46,3.13,.39,.9,1.41,1.67,.94,3.07-2.41-2.3-2.12-6.02-5.15-7.97-.34,.61-.98,1.2-.89,1.64,.48,2.12,1.07,4.23,1.76,6.3,.39,1.13,1.18,2.13,1.56,3.27,.95,2.89,2.05,5.76,2.59,8.71,.49,2.74,.92,5.43,2.23,7.93,.23,.46,.03,1.13,.08,1.71,.2,3.15,.41,6.3,.64,9.45,.18,2.38,.56,4.76,.61,7.12,.05,2.58-.11,5.15-.26,7.73-.33,6.01,.2,12.04-.79,18.02-.34,2.13-1.28,4.25-.18,6.48,.18,.39-.31,1.08-.34,1.64-.13,2.64-.92,5.51-.18,7.88,1.07,3.4,.69,6.61,.48,9.93-.3,4.48-.72,8.96-1.15,13.44-.11,1.15-.11,2.08,1.58,2.56,.28-5.2,1-10.19,2.99-14.95,.28,.92,.26,1.82,.16,2.69-.08,.85-.51,1.79-.3,2.54,.71,2.38,.18,4.76,.13,7.12-.13,5.15-.25,10.3-.51,15.44-.3,5.74-2.17,11.32-1.71,17.13,.03,.36-.16,.74-.23,1.12-.59,3.77-1.41,7.53-1.74,11.32-.54,6.4-1.56,12.72-2.84,19-1,4.96-2.36,9.86-3.17,14.85-.79,4.84-2.28,9.42-3.84,14.01-.59,1.71-1.18,3.45-1.46,5.22-.54,3.33-2.82,5.61-4.33,8.52-2.22-2.35,.34-4.3,0-6.53-2.72,2.12-3.43,4.94-3.87,7.86-.34,2.28-.49,4.59-1.05,6.81-.84,3.31-.3,4.76,2.72,6.01,.15,.07,.25,.3,.44,.54-.03,.28,.02,.69-.13,1.02-1.76,3.89-4.4,7.35-5.68,11.52-.16,.56-1.07,.97-1.71,1.3-1.35,.67-2.77,1.17-4.09,1.85-.31,.16-.33,.89-.67,1.95,2.3-.97,4-1.69,5.74-2.43,.53,.44,1.08,.89,1.79,1.44-2.3,1.23-3.31,3.77-5.35,4.2-1.61-.9-2.79-1.56-4.4-2.44,.13-.61,.07-1.77,.59-2.51,1.15-1.61,1.51-3.18,1.05-5.14-.36-1.46,.11-2.81,1.82-3.41,.44,.89,.84,1.66,1.38,2.74,.98-1.15,1.58-2.22,2.48-2.79,1.51-.97,1.54-2.33,1.44-3.76-.15-2.12-2.1-3.28-3.91-2.17-1.08,.66-1.64,2.15-2.72,2.79-1.15,.69-2.84,.39-3.74,1.77-.1,.16-.31,.25-.38,.41-.26,.67-.49,1.35-.72,2.02,.59,.15,1.2,.28,1.79,.46,.13,.05,.2,.28,.44,.67-1.31,.69-2.63,1.36-3.95,2.07-.84-.69-1.62-1.21-2.53-1.21-.71,0-1.13,.33-1.44,.43-.98,.33-2.86-.74-6.76-6.66,.95,.87,1.61,1.48,2.72,2.51,.16-1.54,.25-2.56,.41-3.54,.15-.9,.3-1.84,.61-2.69,.66-1.77,1.33-3.58,2.2-5.25,.85-1.62,.67-3.74,2.38-5.14,1.3,1.79-1.67,3.51,.28,5.17,2.22-1.72,2.71-4.33,3.3-6.76,1.44-6.05,2.67-12.16,4.02-18.23,.48-2.12,1.08-4.2,1.62-6.32,1.2,.69,1.74,.18,1.95-1.02,.49-2.89,.49-5.96,2.9-8.17,.28-.25,.13-.9,.21-1.36,.44-2.25,.44-4.71,1.43-6.69,1.95-3.95,1.51-8.22,2.3-12.31,.46-2.3,.98-4.61-.23-6.88-.13-.26,.15-.74,.23-1.1,.62-2.59,1.36-5.17,1.85-7.79,.94-5.17,1.99-10.34,2.56-15.56,.94-8.39,1.54-16.8,2.25-25.2,.05-.74-.11-1.53-.25-2.26-.66-3.91-1.12-7.78,.77-11.54,.41-.82,.46-1.85,.54-2.79,.21-2.95,.43-5.91,.51-8.86,.07-2.38-.33-4.81-.03-7.15,.77-6.01,1.18-12,.9-18.03-.02-.48,.15-.94,.18-1.41,.38-4.38,.98-8.75,1.07-13.13,.13-7.14,0-14.29,.43-21.43,.48-8.22,1.44-16.43,.51-24.7-.1-.94,0-1.92,.18-2.86,.87-4.61,.25-9.16-.31-13.72-.2-1.71-.33-3.43-.56-5.14-.34-2.74-.75-5.48-1.13-8.22-.08-.67-.07-1.35-.16-2-.54-3.87-.54-7.83-2.05-11.54-.57-1.39-1.35-3.12-.98-4.4,.67-2.49-.16-4.55-.97-6.61-1.61-4.09-1.43-8.71-3.89-12.5-.05-.08-.05-.2-.07-.28-.77-4.04-1.67-8.04-2.28-12.09-.39-2.64-.31-5.37,.56-7.96,.51-1.59,1.13-2.87,3.35-2.84,1.38,.02,2.76-1.07,4.14-1.62,.87-.36,1.77-.98,2.63-.92,3.15,.21,4.76-1.94,6.48-3.94,2.54-2.94,4.53-6.43,8.32-8.11,.43-.18,.79-.54,1.12-.87,3.43-3.53,7.47-5.5,12.52-5.07,3.94,.33,7.84,.15,11.7-.95,1.2-.34,2.54-.18,3.89-.25-.26,9.02-.53,17.64-.75,26.27-.03,.85-.21,1.94,.23,2.53,1.05,1.43,.71,2.89,.57,4.4-.3,3.72-.67,7.45-.87,11.17-.18,3.45-.16,6.89-.21,10.34,0,.62,.15,1.25,.28,2.25,1.35-.62,2.4-1.1,3.41-1.59,1.46-1.99,2.44-4.15,2.92-6.63,.23-1.25,.9-2.87,1.89-3.41,1.76-.97,2.08-2.33,2.28-3.99,.16-1.43,.43-2.84,.54-4.27,.11-1.38,.66-2.41,1.94-2.94,1.66-.67,2.26-2,2.44-3.61,.23-2.08,.46-4.18,.59-6.28,.07-1,.43-1.67,1.41-1.89,2.38-.54,4.76-1.03,7.19-1.56,.08,.46,.18,.74,.16,1-.61,5.53-1.21,11.06-1.84,16.57-.07,.57-.28,1.12-.39,1.67-.21,1.1-.49,2.2-.61,3.33-.15,1.61-.05,3.25-.28,4.86-.9,6.27-1.64,12.52-1.67,18.89-.02,3.51-.72,7.02-1.17,10.52-.43,3.33-.98,6.65-1.33,9.99-.1,.98,.15,2.12,.56,3.04,.43,.97,1.51,.85,1.92-.18,.26-.67,.08-1.62,1.13-1.74,1.31-.13,1.74-1.16,2.07-2.13,.51-1.53,.84-3.12,1.21-4.69,.33-1.39,.61-2.77,.92-4.17,.3,2.81,.43,5.61-.1,8.3-1.46,7.35-2.4,14.74-2.86,22.22-.53,8.52-1.08,17.03-1.66,25.55-.11,1.69-.31,3.38-.49,5.3,.38,.18,.95,.43,1.49,.66-.18,2.26-.39,4.45-.51,6.65-.1,1.51,.05,3.05-.13,4.56-.75,5.99-1.66,11.96-2.36,17.95-.2,1.69,.1,3.43,.11,5.15,.03,1.62,.2,3.27-.08,4.84-.57,3-1.43,5.96-2.13,8.94-.25,1.02-.48,2.05-.59,3.1-.05,.46,.21,.97,.51,2.17,.61-1.15,.97-1.64,1.15-2.18,.74-2.17,.85-4.87,2.26-6.42,1.99-2.17,2.02-4.63,2.54-7.06,.41-1.97,.51-4,.94-5.97,.34-1.67,.61-3.54,1.54-4.89,1.23-1.74,1.89-3.51,2.15-5.53,.05-.41,.31-.79,.57-1.38,1.53,2.51,2.43,4.86,2.17,7.53-.05,.48-.1,1.03,.08,1.43,.23,.46,.69,1.05,1.08,1.08,.44,.05,1.17-.38,1.35-.79,.33-.75,.48-1.66,.49-2.49,.13-3.36,.15-6.71,.26-10.08,.03-.62,.38-1.25,.57-1.87,.21,.05,.41,.08,.62,.13,.08,1.41,.21,2.82,.23,4.23,.05,8.93,.07,17.85,.13,26.78,.03,3.64,.46,7.3,.23,10.93-.44,7.29-2.46,14.29-4.12,21.36-1.9,8.07-4.84,15.92-5.68,24.25-.03,.28-.11,.56-.2,.82-1.05,3.79-2.13,7.55-3.13,11.34-.33,1.28-.08,2.43,1.64,3.05,1.84-4.48,4.94-8.09,5.91-13.01,.98-4.94,3.15-9.63,4.84-14.42,.21-.61,.51-1.61,.92-1.69,2.72-.53,3.12-3.17,4.56-4.81,.48-.54,.84-1.31,.92-2.02,.67-5.51,1.35-11.03,1.85-16.56,.61-6.56,.25-13.14,1.36-19.72,.94-5.5,2.41-11.03,1.85-16.75-.11-1.08,.59-2.22,.8-3.33,.28-1.59,.48-3.2,.67-4.81,.13-1.12,.2-2.26,.3-3.4,.18-2.17,.72-4.33-.8-6.37-.49-.66-.3-1.85-.44-2.79-.07-.46-.21-.92-.31-1.38-.21,.02-.44,.02-.66,.03-.13,2.23-.26,4.48-.38,6.73-.11,2.23-.25,4.45-2.48,6.28-.07-1.15-.13-1.89-.15-2.64-.15-6.22-.41-12.44-.41-18.67,0-7.38-.49-14.75-1.31-22.09-.66-5.92-1.58-11.78-3.48-17.46-.54-1.61-1.03-3.27-1.25-4.94-.15-1.3,.16-2.64,.26-3.95,.36-5.56,.61-11.11-.64-16.61-.26-1.1,.02-2.31-.18-3.43-.67-3.94-1.44-7.84-2.18-11.77-.02-.05-.18-.05-.44-.11-1,2.2,1.15,4.41,.05,7.22-.54-1.05-.95-1.54-1.05-2.1-.54-2.76-.54-5.48-.03-8.29,.57-3.18,.8-6.43,1.08-9.66,.16-1.81,1.41-3.64,.02-5.46-.07-.08,.15-.34,.21-.51,1.59-4.07,1.9-8.39,2.4-12.67,.56-5.02,1.15-10.06,1.82-15.08,.49-3.61,1.1-7.19,1.71-10.76,.43-2.53,.92-5.05,1.36-7.38,1.36-.51,2.33-.95,3.33-1.25,4.14-1.18,5.96,.16,6.1,4.43,.03,.87,.03,1.76,.26,2.56,.89,3.02,1.97,5.97,2.79,8.99,.95,3.5,2.82,6.6,3.59,10.22,.9,4.15,2.41,8.19,4.38,12.09,2.97,5.87,5.25,12.09,7.94,18.12,1.23,2.79,2.66,5.51,4.12,8.19,.54,.97,1.87,1.62,2.12,2.61,.57,2.38,1.74,4.18,3.66,5.61,.36,.26,.64,.72,.84,1.15,2.33,5.15,4.66,10.29,6.91,15.47,.57,1.3,.53,3.08,1.41,3.97,.97,.95,2.71,1.1,4.22,1.62,.75,1.84,1.56,3.77,2.36,5.71,.33,.82,.67,1.67-.2,2.36-1.56,1.25-3,2.84-4.79,3.56-1.87,.74-2.44,2.03-2.76,3.63-.36,1.87-.64,3.79-.71,5.69-.21,6.42-.34,12.83-.43,19.25-.02,1.87-.15,3.74,1.05,5.5,.64,.92,.59,2.4,.62,3.63,.08,3.54,0,7.09,.05,10.65,.05,3.43,.2,6.88,.26,10.3,.03,1.53-.07,3.07,0,4.59,.18,5.33,.43,10.65,.49,15.98,.13,12.88-.66,25.71-1.36,38.56-.07,1.21-.38,2.2-1.58,2.9,0-.36-.02-.64,0-.9,.28-3.13,.56-6.25,.82-9.39,.11-1.44-.62-2.07-2.23-2.12-.21,.77-.48,1.48-.59,2.2-.74,5.22-1.46,10.44-2.18,15.65-.46,3.41-.89,6.83-2.25,10.04-.8,1.92-1.36,3.97-1.84,5.99-.61,2.51-1.07,5.07-1.49,7.63-.89,5.27-1.71,10.55-2.58,15.83-.08,.56-.3,1.1-.39,1.67-.66,3.66-1.3,7.32-1.9,10.98-.21,1.23-.36,2.48-.41,3.71-.05,1.25,.08,2.48,.1,3.72,.02,1.26,0,2.53,0,3.94,2.05-.16,2.26-1.66,2.82-2.77,.53-1.02,.72-2.3,1.48-3.05,1.38-1.39,1.92-3.04,2.26-4.84,.31-1.71,.66-3.4,1.03-5.07,.62-2.71,1.25-5.4,1.92-8.09,.39-1.56,.94-3.1,1.3-4.66,.46-1.92,.95-3.79,2.15-5.45,.21,.51,.26,.95,.21,1.39-.46,4.4-.95,8.76-1.38,13.16-.3,3.13-.34,6.32-.77,9.44-.48,3.4-1.38,6.74-1.89,10.14-.41,2.84-.48,5.71-.75,8.57-.11,1.02-.33,2.05-.69,3-.57,1.49-.67,2.89,.02,4.33q2.28-.61,2.67-1.89c.1-.38,.18-.75,.21-1.13,.2-2,.53-3.86,1.97-5.5,1.03-1.16,1.8-2.76,2.18-4.28,.84-3.45,1.35-6.97,2.05-10.44,.79-3.84,1.66-7.66,2.46-11.5,.39-1.85,.77-3.72,1.02-5.61,.18-1.31-.38-3.02,.26-3.92,1.3-1.82,1.2-3.76,1.44-5.69,.66-5.02,1.38-10.04,1.95-15.08,.41-3.61,.62-7.25,.92-10.88,.75-8.78,1.51-17.56,2.23-26.34,.13-1.72,.02-3.46,.13-5.19,.53-8.12,1.08-16.25,1.61-24.38,.15-2.28,.23-4.59,.3-6.89,.13-4.3-.16-8.66,.49-12.86,.59-3.86,.53-7.78,1.84-11.58,1.1-3.17,.33-6.74,.74-10.16,.56-4.61,.49-9.3,.74-13.98,.03-.67,.28-1.35,.43-2.03,.56,.87,.79,1.69,.95,2.53,1.43,7.29,2.35,14.67,4.36,21.87,1.12,3.94,1.74,8.11,1.87,12.19,.18,5.84,1.62,11.55,1.2,17.44-.23,3.33,.08,6.71,0,10.08-.16,6.68-.85,13.32-1.58,19.99-.77,7.25-2.05,14.39-3.81,21.45-.87,3.51-1.69,7.06-2.67,10.53-.38,1.35-.77,3-1.76,3.74-1.43,1.1-2,2.51-2.69,3.95-.75,1.56-1.2,3.3-2.13,4.71-2.03,3.12-2.95,6.56-3.56,10.16-.23,1.33-.25,2.61,.97,3.35,1.21,.74,2.38,.07,3.45-.62,1.16-.77,2.36-1.48,3.66-2.28,.15-.62,.34-1.36,.48-2.12,.44-2.54,.75-5.12,1.3-7.65,.71-3.27,2.3-6.14,3.95-9.09,3.43-6.09,5.73-12.68,7.15-19.61,1.07-5.15,2.22-10.24,2.38-15.56,.11-3.79,.72-7.56,1.12-11.36,.11-1.15,.21-2.3,.33-3.45,.18-1.8,.38-3.61,.51-5.41,.15-2.02-.03-4.09,.38-6.02,.39-1.77-.1-4.17,2.53-4.94,.3-.1,.41-1.02,.48-1.58,.43-4.36,.9-8.75,1.21-13.13,.57-8.3,.94-16.62,1.61-24.91,1.07-13.11,.61-26.22,.72-39.33,.02-.77-.07-1.54-.13-2.3-.31-3.04-.62-6.07-.97-9.11-.05-.44-.3-.85-.44-1.3-.2,.03-.38,.07-.56,.1-.07,3.89-.13,7.78-.2,11.67-1.44-3.92,.46-8.12-1.39-12.01-2,.25-2.02,1.61-2,2.82,.13,7.65-.62,15.34,.74,22.96,.11,.61-.26,1.3-.3,1.94-.08,2.58-.56,5.23-.07,7.7,.43,2.07-.05,3.59-1,5.28-.39-1.25-.44-2.51-.56-3.77-.07-.94-.03-1.92-.33-2.79-.8-2.49-.92-5.22-2.59-7.42-.2-.25-.1-.75-.08-1.13,.18-3.05-1.39-5.92-.95-9.01,.02-.16-.1-.36-.15-.56-.87-3.22-1.77-6.43-2.63-9.65-.44-1.64-.49-3.45-1.21-4.94-1.23-2.56-.97-5.46-2.22-7.97-.41-.82-1.36-1.85-1.15-2.41,.9-2.26-.67-3.86-1.12-5.74-.87-3.59-2.38-6.99-2.61-10.78-.23-3.99-2.18-7.61-3.05-11.52-.89-4.05-2.95-7.84-4.45-11.77-.44-1.2-.69-2.48-1.1-4q3.5,1.71,5.22,.85c-.48-2.05-.21-4.02,1.72-5.6,.8,1.26,1.44,2.41,2.23,3.43,.8,.98,1.77,1.85,2.82,2.94-.49,2.33,.28,4.46,2.12,6.3,.59,.59,.98,1.41,1.38,2.18,.95,1.87,1.79,3.81,2.79,5.64,2.43,4.43,4.92,8.83,7.38,13.24,.87,1.54,.74,3.27,1.08,4.86,.34,1.54,2.95,2.12,3.36,4.02,.87,3.87,3.97,6.61,5,10.39,.79,2.94,1.94,5.78,2.54,8.73,.77,3.72,2.25,7.32,2.2,11.21,1.8,2.81,1.89,5.97,1.85,9.16-.03,3.64-.13,7.29-.26,10.93-.02,.48-.38,.94-.72,1.76-1.17-1.59-1.39-3.07-1.72-4.56-.16-.8-.49-1.66-.97-2.31-.25-.34-1.07-.59-1.46-.44-.41,.15-.85,.85-.85,1.31,.03,1.13,.33,2.26,.48,3.41,.36,2.74,.36,5.38-2.08,7.33-.28,.23-.61,.57-.66,.92-.48,2.53-1.13,5.05-1.23,7.6-.13,3.05,.23,6.12,.38,9.19,.21,4.73-.13,9.37-1.72,13.87-.23,.66-.31,1.62,.02,2.17,.69,1.15,.48,2.18,.2,3.31-.69,2.72-.23,3.5,2.28,4.63,1.43,.64,2.76,1.51,4.35,2.4,.67-.2,1.71-.39,2.66-.8,3.17-1.41,6.47-2.71,5.89-7.33-.03-.26,.1-.62,.28-.8,1.89-1.87,3.12-4.15,4.51-6.38,.97-1.56,1.95-2.97,2.35-4.76,.21-.94,.26-1.92,.59-2.81,2.1-5.86,3.17-11.81,1.84-18.03-.15-.72-.08-1.53-.05-2.3,.23-4.12,.44-8.24,.72-12.36,.16-2.26,.82-4.58,.61-6.79-.69-6.86-.84-13.75-1.89-20.59-.92-6.02-2.38-11.77-4.51-17.43-2.13-5.61-5.38-10.68-7.56-16.28-.89-2.3-2.46-4.3-3.61-6.5-1.02-1.94-1.53-4.23-2.87-5.89-3.38-4.15-5.05-9.19-7.68-13.72-1.25-2.15-2.3-4.4-3.41-6.61-1.64-3.23-3.12-6.55-4.87-9.7-2.48-4.41-5.17-8.7-7.75-13.05-.51-.87-1.15-1.72-.72-2.86,3.76,.8,5.12,.69,5.51-2.99,2.38,1.26,4.78,2.54,7.15,3.82,.08,.03,.18,.11,.2,.2,.54,2.33,2.87,3.13,4.14,4.86,1.36,1.82,2.81,3.59,4.23,5.37,.94,1.18,1.94,2.31,2.89,3.48,3.77,4.59,5.87,10.53,11.13,13.98,.15,.11,.3,.26,.38,.43,1.12,2.28,3.08,3.13,5.45,3.68,1.25,.3,2.84,.72,2.92,2.63,.15,3.05,.34,6.1,.57,9.16,.05,.84,.21,1.67,.43,2.48,.21,.79,.64,1.54,.84,2.35,.41,1.71,1.54,2.49,2.81,1.43,1.62-1.36,3.17-3.05,4.1-4.92,.89-1.72,.87-3.87,1.38-5.81,.18-.67,.69-1.3,1.13-1.89,1.62-2.17,3.08-4.36,2.9-7.25-.1-1.79-.56-3.69-.11-5.35,.79-2.92-.51-5.23-1.61-7.58-.8-1.69-1.89-3.3-3.12-4.73-1.95-2.25-3.28-4.68-3.33-7.91,1.1-1.23,1.81-3.13,4.23-3.08,.49,.02,1.33-1.05,1.46-1.72,.3-1.54-.08-3.04-1.12-4.32-.54-.67-1.28-1.35-1.44-2.12-.64-3-2.56-4.7-4.85-6.14,1.73,.5,3.45,1,5.18,1.5,.29,1.23,1.16,2.31,2.8,2.69,28.68,6.79,59.04,3.82,86.05-7.85,4.89-2.11,9.61-4.55,14.2-7.25-.51,3.9-1.82,7.6-2.98,11.34-.79,2.49-2.18,4.87-2.53,7.4-.38,2.77-1.21,4.96-3.76,6.55,0,2.61,.03,5.27-.03,7.94-.02,.71-.26,1.48-.61,2.12-.62,1.21-1.41,2.38-2.2,3.69-.07,.03-.21,.07-.31,0-5.1-2.59-9.52,.18-14.05,1.87-.26,.1-.44,.38-.66,.56-3.45,2.92-6.74,5.96-8.65,10.21-.39,.85-.98,1.64-1.46,2.46-2.59,4.48-5.32,8.86-7.71,13.42-3.05,5.83-5.2,12.14-9.83,17.05-.31,.33-.48,.82-.71,1.25-4.86,8.89-9.52,17.92-13.19,27.35-2.41,6.24-4.25,12.72-6.15,19.13-1.12,3.74-1.87,7.61-2.72,11.42-.71,3.08-1.53,6.17-1.94,9.3-.87,6.74-1.64,13.5-2.25,20.28-.95,10.5-1.25,21.05-.66,31.6,.08,1.41,.02,2.82,.02,4.28-1.25-.07-2.17-.1-3.07-.15-.16,2.63,0,2.74,3.27,2.12,.15,1.8,.43,3.61,.39,5.4-.05,1.71,.34,2.92,2.48,3.05-.31,1.1-.64,1.89-.77,2.71-.15,.82-.43,1.84-.1,2.48,.51,.98,.38,1.67,.02,2.64-.77,1.99,.11,4.38,1.81,5.69,0,.84-.05,1.71,.02,2.56,.54,6.47,2.2,12.8,2.44,19.31,.02,.46,.2,.94,.26,1.41,.25,1.59,.67,3.22,.64,4.81-.08,3.87,.46,7.65,1.41,11.39,.3,1.1,.36,2.26,.54,3.38,.34,2.08,.51,4.2,1.1,6.2,.31,1.1,.26,1.97,.07,3.04-.3,1.67-.72,3.48-.38,5.09,.59,2.79,1.67,5.48,2.64,8.19,.87,2.43,1.97,4.78,2.77,7.22,.71,2.17,1.07,4.46,1.71,6.66,.84,2.84,1.82,5.63,2.67,8.47,1.33,4.46,2.61,8.94,3.91,13.41,2.76-.34,3.25,.11,3.3,2.79,.02,1.05,0,2.13,.26,3.13,.69,2.58,1.53,5.12,2.28,7.66,1.76,5.87,3.5,11.73,5.25,17.59,.28,.94,.56,1.89,.84,2.82,.25-1.3,.07-2.49-.03-3.71-.08-1.15-.66-2.38,.31-3.58,.69,1.21,1.07,2.59,1.97,3.28,1.41,1.08,3.13,1.82,4.79,2.49,5.22,2.13,10.49,4.12,15.7,6.25,2.1,.87,4.14,1.92,6.17,2.95,3.76,1.89,7.48,3.81,11.22,5.73,.84,.43,1.66,.89,2.48,1.35,2.92,1.64,5.94,3.13,8.73,4.97,4.69,3.13,9.22,6.48,13.82,9.75,3.74,2.66,7.63,5.15,11.16,8.06,5.63,4.66,11.8,8.47,18.05,12.16,7.45,4.41,15.47,7.58,23.56,10.53,.89,.33,1.85,.46,2.81,.61,3.87,.59,7.75,1.36,11.72,.89,.44-.05,.92,.21,1.38,.33,.8,1.59,1.92,2.82,3.04,4.05,.33,.34,.67,.67,.98,1.03,1.71,1.92,3.23,4.05,5.15,5.73,1.59,1.36,2.79,3.5,5.3,3.59,.23,.02,.48,.28,.69,.46,2.12,2.03,4.28,4.04,6.35,6.1,2.99,3.02,6.63,3.95,10.3,3.74,1.18-.95,2.03-2.22,2.9-2.22,2.36,0,3.63-1.21,4.74-3,.39-.62,1-1.17,1.64-1.59,1.67-1.15,2.43-2.66,2.08-4.69-.34-2,.2-3.56,2.33-4.35-.18-1.1-.25-2.05-.48-2.97-1.25-5.1-2.51-10.19-3.79-15.28-.34-1.39-.98-2.77-1.02-4.17-.18-5.6-1.85-10.94-2.71-16.41-1.28-8.16-2.72-16.26-2.46-24.56,.05-1.61-.23-3.25-.57-4.82-.97-4.56-.79-8.81,2.87-12.42-1.43-1.31-1.23-2.84-.46-4.43,.66-1.36,1.3-2.74,1.92-4.14,.66-1.48,1.26-3,3.69-2.77-1.26-1.36-1.56-2.66-.77-4.09,.66-1.23,1.33-2.48,2.08-3.87q-1.03-1.49,.54-3.1c0-1.43-.23-2.69,.05-3.84,1.48-6.22,3.08-12.41,4.64-18.61,.03-.18,.03-.38,.08-.57,.82-3.91,1.66-7.83,2.48-11.73,.13-.64,.3-1.28,.38-1.94,.23-1.87,.38-3.76,.66-5.63,.85-5.84,1.74-11.68,2.61-17.52,.66-4.45,1.35-8.88,1.95-13.32,.97-7.02,2.02-14.03,2.79-21.07,.69-6.45,1.07-12.93,1.59-19.41,.11-1.36,.31-2.63,1.72-3.4,1.05-.59,1.15-1.79,.25-2.4-2.43-1.61-1.56-3.89-1.48-5.99,.15-3.92,.43-7.84,.53-11.77,.08-2.95-.03-5.91-.05-8.88-.02-8.93-.02-17.84-.07-26.76,0-1.36-.11-2.59,1.35-3.46Zm-114.42-297.48s.08-.03,.11-.05v-.02c.49-.85,.98-1.71,1.51-2.56,.59-.98,1.21-1.97,2.1-3.41,.02,.26,.03,.53,.03,.77,0,.33-.02,.64-.05,.94-.05,.31-.11,.62-.2,.9-.07,.23-.13,.44-.25,.64,0,.02,0,.03-.02,.05-.1,.23-.23,.44-.38,.64,0,.02-.02,.02-.02,.03-.15,.2-.31,.38-.49,.56-.02,.02-.02,.03-.03,.03-.18,.16-.36,.33-.57,.49-.03,.02-.05,.03-.08,.05-.21,.16-.44,.3-.69,.44-.2,.11-.41,.23-.64,.33-.03,.02-.08,.03-.11,.05-.02,.02-.05,.03-.07,.03-.02,.02-.03,.03-.05,.03-.02,.03-.03,.05-.05,.08-.02,.03-.05,.05-.07,.08-.02-.03-.02-.08-.02-.11h.02Zm-7.27,10.57c1.44-2.15,2.79-4.33,4.25-6.47,.94-1.36,2-2.64,3.02-3.97,.02,.25,.03,.51,.07,.75,.05,.46,.08,.92,.03,1.36-.08,.67-.25,1.53-.69,1.95-2.17,2.03-3.97,4.27-5.33,6.96-.97,1.89-2.17,3.76-4.74,4.3,1.13-1.64,2.3-3.25,3.4-4.89ZM64.93,998c2.97-4.91,4.71-10.37,7.02-15.59,.57-1.26,1.15-2.2,2.67-2.67,1.97-.61,3.72-1.99,5.99-1.39,.2,.05,.48-.18,.72-.28,.92-.38,1.89-1.15,2.79-1.1,4.1,.3,7.97-.95,12.08-1.48-10.67,10.16-22.25,19.02-34.28,27.42,1-1.64,2-3.27,3-4.91Zm-22.69,20.35c.11,.21,.33,.44,.31,.64-.02,.2-.3,.38-.53,.64-.18-.31-.48-.59-.43-.71,.11-.25,.41-.39,.64-.57ZM61.78,412.87c1.44,1.2,1.87,2.46,1.8,3.99-.16,2.95-.38,5.91-.36,8.86,.02,1.99,.43,3.97,.57,5.96,.1,1.51,.07,3.04,.08,4.55,0,.48-.23,1.05-.02,1.39,1.18,1.94,.69,4.1,.87,6.17,.18,2.08,.46,4.18,.48,6.27,.02,2.08-.15,4.18-.41,6.24-.26,2.12-.74,4.2-1.33,6.28-1.2-16.1-2.22-32.18-2.48-48.29-.02-.39,.43-.8,.79-1.41Zm2.72,55.23c-.23,0-.48-.02-.71-.02,.03-.66,.07-1.33,.11-1.99h.46c.03,.66,.08,1.33,.13,2Zm3.94,153.93c-.98,2.38-2.07,4.71-3.12,7.07-.15,.34-.2,.79-.43,1.07-2.46,2.9-3.27,6.61-4.91,9.91-.62,1.23-1.77,2.18-2.79,3.4-2.25-1.72-3.87-.8-5.66,1.58,.18-1.26,.21-1.84,.34-2.4,.94-4.3,1.67-8.66,2.9-12.88,1.46-4.92,3.31-9.75,5.09-14.57,.49-1.33,.53-2.49,.15-3.87-.57-2.1-1.08-4.15-2.31-6.05-.98-1.51-.74-3.27-.03-5.17,1.59-4.3,2.63-8.8,3.94-13.19,1.43-4.84,2.92-9.65,4.41-14.46,.11-.34,.43-.61,.87-1.2,.33,.61,.59,.87,.56,1.07-.69,3.23,.11,6.45,0,9.68-.05,1.23,.25,2.46,.33,3.69,.03,.64-.05,1.3-.08,1.95-.08,1.99-.23,3.97-.26,5.96-.02,1.72,.08,3.45,.15,5.15,.13,3.15,.18,6.32,.49,9.45,.25,2.44,.64,4.92,1.33,7.29,.72,2.41-.1,4.45-.97,6.53Zm65.06,86.07c-.18-.08-.34-.18-.53-.28,.26-.51,.51-1.02,.77-1.51,.21,.15,.41,.31,.62,.46-.3,.44-.59,.89-.87,1.33Zm46.93-154.28c-.46,.38-.92,.74-1.38,1.1-.28-.53-.77-1.05-.8-1.59-.1-2.38-.36-4.68-1.46-6.86-.31-.61-.2-1.43-.05-2.23,3.17,2.84,4.58,6.6,5.78,11.17-.98-.75-1.56-1.18-2.08-1.59Zm9.25-14.88c-.2,.03-.39,.08-.59,.11-1.59-3.87-1.08-8.04-1.48-12.31,1.12,.28,1.76,.95,1.54,1.77-.66,2.61,.56,5.05,.53,7.58v2.84Zm32.16,253.08c.97,1.84,.95,8.61-.1,13.14-.97-4.58-1.05-8.84,.1-13.14Zm-6.94-174.71c-1.46,.26-2.9,.56-4.1,.79-2.2-5.81-4.23-11.21-6.27-16.61,.21-.05,.43-.1,.64-.15,4.78,4.96,10.35,9.17,14.49,15.19-1.84,.3-3.3,.53-4.76,.77Zm-1.85-59.2c1.2,1.54,2.19,3.2,2.99,4.95,.22,1.95,.43,3.91,.65,5.86-.82-1.75-1.54-3.53-2.03-5.43-.33-1.28-.97-2.48-1.3-3.76-.14-.53-.23-1.08-.31-1.62Zm12.72-14.55c.09,.24,.16,.49,.25,.73-.86-.36-1.82-.47-2.7-.23-2.25,.62-3.32,2.87-2.87,5.05,.08,.4,.14,.79,.21,1.19-2.26-1.44-5-1.99-7.65-1.18-.93,.28-1.64,.86-2.15,1.57-.35-1.27-.64-2.56-.92-3.85-.53-2.43-1.79-4.74-1.99-7.17-.23-2.79,.36-5.66,.62-8.75,1.31,.25,2.59,.28,3.71,.72,2.76,1.07,5.45,2.31,8.16,3.53,1.2,.54,2.26,1.41,3.72,.51,.33-.2,1.08,.3,1.92,.57-.54,.76-.96,1.37-1.36,1.92,1.02,.21,2.02,.46,3.03,.72-1.56,.9-2.64,2.89-1.99,4.66Zm66.9,82.76c-5.89-.26-11.72-.95-17.5-2.05,6.5-.12,12.99-.49,19.48-.99,11.58-.89,23.24-1.76,34.8-3.24,3.04,0,6.08-.02,9.12-.03-14.74,4.81-30.32,6.99-45.9,6.3Zm36.38-14.48c-10.46,.03-20.93,.06-31.39,.09-7.58,.02-15.17,.04-22.75,.06-6.56,.02-13.13,.14-19.66-.57-6.17-.67-12.14-2.47-17.23-6.03-.69-.66-1.44-1.26-2.23-1.8-.49-.34-.98-.67-1.47-1-.05-.03-.08-.05-.11-.07,0,0,0,0,0,0-.19-.16-.38-.33-.56-.51-.17-.17-.33-.35-.49-.53-.01-.03-.02-.04-.05-.09-.13-.21-.26-.42-.38-.64-.02-.03-.11-.22-.18-.35-.05-.14-.13-.34-.14-.38-.07-.24-.14-.48-.2-.72,0-.02-.02-.09-.03-.16,7.6-18.22,8.33-39.14,1.5-57.75-.11-.29-.25-.57-.4-.83,6.32,2.12,12.45,4.83,18.74,7.13,9.06,1.12,18.18,1.83,27.18,1.46,14.79-.6,28.57-6.54,43-9.29,6.53-1.24,13.19-3.02,19.86-4.31,.58-.34,1.2-.62,1.85-.79,1.85-.5,3.73-.78,5.62-1.09,.9-.15,1.8-.3,2.69-.51,.34-.08,3.19-1.04,1.63-.35,1.16-.51,2.33-.81,3.48-.91,.88-.33,1.87-.52,2.98-.52,2.82,0,4.88,1.17,6.2,2.88,.39,.41,.74,.85,1.04,1.33,2.32,3.71,2.43,8.19,2.91,12.41,.93,4.97,.72,9.83,1.78,14.58,1.03,4.63-.75,9.53,.48,14.26-1.05,2.61-.26,5.3-.44,7.94-.28,4.3-.67,8.58-1.03,12.88-.1,1.2-.1,2.44-.23,3.63-.2,.06-.4,.13-.59,.21-13.05,5.79-27.23,8.57-41.37,10.33Zm65.2,65.37c.21-1.21,.51-2.1,1.62-2.77,1.62-.98,3.15-2.17,4.76-3.28,4.56,1.46,9.07,.64,13.59-.28,7.07-1.46,13.73-4.09,20.28-7.06,1.3-.57,2.71-.89,4.53-1.46-.51,.77-.72,1.36-1.13,1.71-4.4,3.74-6.71,8.81-8.84,13.91-1.66,3.97-3.04,8.06-4.33,12.16-2.59,8.2-5.14,16.44-7.48,24.71-1.62,5.69-3.1,11.45-4.28,17.25-.95,4.78-1.35,9.65-2.02,14.47-.16,1.23-.51,2.44-.67,3.68-.33,2.58-1.36,5.07-.26,7.81,.48,1.18-.23,2.82-.38,4.25-.46,4.38-.92,8.76-1.36,13.14-.11,1.31-.74,2.26-1.58,3.27-1.23,1.44-2.31,3.07-3.15,4.76-4.86,9.93-8.48,20.31-11.22,31.01-1.03,4.09-1.89,8.22-2.56,12.37-1.07,6.51-2.22,13.05-2.77,19.61-.57,6.68-.59,13.41-.61,20.12-.02,6.14,.28,12.27,.48,18.39,.05,1.69,.25,3.36,.38,5.04-.23,.07-.44,.11-.67,.18-.23-.72-.57-1.44-.67-2.18-.71-5.73-2.3-11.24-3.95-16.75-.71-2.38-1.03-4.87-1.59-7.29-1.07-4.58-2.26-9.11-3.27-13.69-1.25-5.68-2.13-11.45-3.56-17.08-1.07-4.28-1.36-8.66-2.26-12.96-.1-.46-.26-.95-.21-1.39,.82-6.53-.3-12.96-.72-19.44-.26-4.07-.13-8.17-.11-12.27,.02-1.61,.16-3.23,.31-4.84,.39-4.55,.69-9.11,1.28-13.64,.66-5.12,1.53-10.21,2.38-15.29,.85-5.09,1.82-10.16,2.71-15.24,.33-1.89,.9-3.59,1.95-5.3,.94-1.56,1.13-3.61,1.56-5.45,1.35-5.87,2.53-11.78,4.02-17.61,1.2-4.63,2.74-9.17,4.2-13.73,.82-2.54,1.62-5.1,2.71-7.53,1.62-3.61,2.26-7.45,2.94-11.29Zm-2.92-11.11c-1.35,.11-2.02,2.4-3.86,1.28,.92-1.85,2.44-1.53,3.86-1.28Zm-5.84,1.82c-3.53,2.1-6.76,3.99-10.63,4.43,2.97-2.51,6.02-4.86,10.63-4.43Zm-59.19,300.02c-1.48,.94-2.05,2.07-2.17,3.74-.13,1.87-1.82,2.2-3.2,2.84-2.26-3.82-1.79-8.2-2.87-12.21-1.08-4.05-1.97-8.17-3.07-12.21-1.08-3.97-2.31-7.89-3.2-11.95,2.76,3.12,4.63,6.69,6.53,10.27,1.61,3.04,3.28,6.04,4.94,9.02,1.25,2.25,2.56,4.46,3.79,6.73,.82,1.51,.69,2.87-.75,3.76Zm72.02,14.19c-4.2-4.18-8.43-8.34-12.54-12.62-4.45-4.61-8.84-9.27-13.08-14.06-2.99-3.38-5.68-6.99-8.48-10.5-1.33-1.66-2.53-3.15-5.09-3.12-3.63,.05-5.46-2.69-6.92-5.58-2.33-4.61-4.68-9.22-6.81-13.93-.98-2.15-1.46-4.55-2.22-6.81-.71-2.17-1.53-4.3-2.2-6.48-.74-2.36-1.41-4.74-2.05-7.14-1.89-7.04-3.77-14.06-5.55-21.13-.66-2.59-.98-5.27-1.43-7.91-.53-3.1-1-6.2-1.51-9.32-.64-3.94-1.33-7.88-1.92-11.81-.48-3.12-.95-6.25-1.18-9.4-.38-5.15-.57-10.32-.8-15.47-.2-4.14,.38-8.22,.72-12.32,.31-3.82,.9-7.6,1.23-11.37,.82-9.39,2.87-18.53,4.59-27.73,1.28-6.86,2.56-13.73,3.92-20.58,.23-1.18,.64-2.46,1.36-3.4,2.3-3.04,2.53-6.47,2.49-10.08-.02-1.67-.07-3.61,.72-4.97,1.12-1.95,1.53-4.04,2.22-6.07,.8-2.35,1.48-4.73,2.17-7.12,.33-1.18,.51-2.41,.87-3.58,1.48-4.76,2.53-9.6,2.94-14.57,.13-1.48-.44-3-.44-4.5-.02-3.05,.15-6.09,.23-9.22-1.12-.26-1.59,.72-2.13,1.39-1.26,1.64-2.22,3.54-4.41,4.32-.59,.21-1.02,1.13-1.33,1.8-2.36,4.99-4.84,9.91-5.99,15.42-1.07,5.15-2.77,10.16-4.05,15.28-.67,2.67-1,5.43-1.59,8.12-.59,2.61-1.38,5.17-2,7.76-.97,4.1-1.89,8.2-2.81,12.31-.15,.64-.07,1.33-.13,2-.46,3.89-.85,7.79-1.43,11.67-.57,3.77-1.39,7.52-2.02,11.29-.74,4.35-1.62,8.68-2.02,13.06-.84,9.16-1.51,18.35-2.05,27.53-.31,5.43-.53,10.91-.3,16.34,.21,4.94,1.05,9.85,1.71,14.75,.36,2.66,.84,5.32,1.36,7.94,.98,4.87,2.03,9.75,3.1,14.62,.92,4.28,1.82,8.58,2.86,12.85,1.76,7.25,3.77,14.44,6.27,21.48,.85,2.44,1.51,4.97,2.59,7.32,2.76,5.97,5.71,11.86,8.6,17.79,.36,.75,.71,1.51,1.12,2.41-.95,.43-1.69,.74-2.48,1.1,.21,1.69,1.54,3.08,.57,4.81-.16,.3,.49,1.17,.9,1.67,1.59,2.02,3.18,4.05,4.87,6.01,5.89,6.83,10.78,14.33,15.51,22.28-2.9-.05-4.04-2.69-6.07-3.82-2.13-1.18-3.92-3.02-5.76-4.68-1.79-1.59-3.59-3.22-5.14-5.04-1.58-1.9-2.9-4.04-4.23-6.12-1.35-2.1-2.54-4.27-3.68-6.2,.15-.51,.15-.72,.26-.85,.54-.79,1.38-1.51,.79-2.56-.59-1.05-1.59-.72-2.58-.67-.56,.03-1.26-.31-1.67-.72-.59-.61-1.15-1.36-1.41-2.15-1.03-2.95-3.07-5.25-4.73-7.81-1.66-2.54-2.95-5.32-4.61-7.86-2.02-3.1-4.27-6.07-6.42-9.11-.16-.23-.49-.39-.54-.64-.75-3.54-3.51-6.12-4.66-9.35-1-2.81-2.84-5.46-2.63-8.7,.03-.61-.39-1.23-.64-1.99-.8,.41-1.46,.74-2.02,1.02-.31-.15-.57-.2-.62-.33-.59-1.49-1.43-2.95-1.67-4.51-.74-4.64-1.25-9.32-1.84-13.98-.67-5.22-1.46-10.42-2-15.65-.51-4.94-.82-9.91-1.13-14.87-.07-1.2-.11-2.51,1.41-3.15,.34-.15,.54-.95,.54-1.46,.07-3.17,.18-6.33,.07-9.48-.16-4.1-.59-8.2-.74-12.32-.11-3.25-.03-6.51,0-9.76,.03-3.02-.53-6.05,.02-9.07,.03-.18-.15-.43-.08-.56,2.31-4.02,.21-8.42,1.1-12.57,.51-2.41,.75-4.89,1.15-7.33,.21-1.31,.75-2.63,.69-3.94-.21-4.04,1.38-7.45,3.4-10.88,1.49,.25,1.51,1.53,1.61,2.59,.11,1.03-.08,2.1-.08,3.15,0,.67-.03,1.38,.21,1.97,.18,.44,.77,.97,1.18,.97,.36,0,.97-.59,1.07-1.03,.3-1.2,.25-2.49,.59-3.68,.69-2.43,1.62-4.79,2.33-7.2,1.18-4.04,2.26-8.11,3.4-12.16,.02-.08,.07-.18,.08-.26,.18-4.92,1.66-9.6,2.53-14.39,.25-1.39,.59-2.56,1.8-3.38,1-.66,1.44-1.59,1.66-2.84,.3-1.66,1.08-3.22,1.66-4.81,1.07-2.97,2.12-5.92,3.18-8.89,.39-1.07,.75-2.17,1.21-3.22,1.07-2.56,2.26-5.07,3.28-7.65,.89-2.26,1.44-4.66,2.44-6.88,.71-1.53,1.92-2.82,2.89-4.23,.64-.94,1.35-1.85,1.87-2.86,1.05-1.97,2.44-3.58,4.17-5.05,2-1.72,3.72-3.79,5.45-5.81,.44-.53,.49-1.43,.61-2.17,.13-.85,.07-1.74,.21-2.58,.51-2.84,.98-3.18,4.36-3.05,0,.71,.02,1.43,0,2.13-.07,2.41-.15,4.81-.18,7.2-.03,1.84,.48,3.31,2.4,4.15,1.3,.56,2.43,1.53,3.63,2.3,1.48,.94,3.1,1.3,4.59,.26,2.2-1.51,4.66-1.35,7.38-1.3,1.21-5.86,6.45-6.84,10.52-9.27,.16,.13,.31,.25,.48,.38-.8,1.58-1.74,3.08-2.38,4.73-1.2,3.1-2.25,6.27-3.31,9.44-.71,2.07-1.46,4.14-2,6.25-1.54,6.22-3.1,12.44-4.43,18.71-1.18,5.61-2.02,11.29-3.07,16.93-.56,3.02-1.35,6.01-1.84,9.02-1.18,7.37-2.38,14.74-3.36,22.14-.59,4.51-.85,9.09-1.13,13.64-.34,5.45-.51,10.9-.82,16.34-.25,4.17-.69,8.34-.87,12.5-.11,2.38,.21,4.78,.18,7.15-.02,1.2-.38,2.38-.54,3.56-.05,.36-.08,.79,.08,1.07,1.53,2.66,1.54,2.64,1.66,6.32-.57-1.51-.9-2.4-1.36-3.64-.07,.95-.25,1.61-.13,2.22,1.13,6.02,2.31,12.03,3.5,18.02,.13,.72,.38,1.38,1.31,.77,.23,.46,.54,.92,.66,1.43,1.97,8.09,3.92,16.21,5.84,24.32,1.71,7.25,3.38,14.52,5.1,21.77,.67,2.89,1.43,5.74,2.13,8.63,.98,3.99,1.82,8.04,2.94,12,1.61,5.6,3.46,11.13,5.12,16.7,.8,2.66,1.54,5.33,2.08,8.02,.51,2.63,.59,5.33,1.1,7.96,1.12,5.73,2.41,11.42,3.56,17.13,.82,4,1.51,8.06,2.33,12.06,.39,1.97,.98,3.89,1.46,5.84,.11,.43,.07,.89,.1,1.46-.44-.13-.79-.11-.95-.3Z"/><path d="M404.48,478.26s-.03,.05-.05,.08c-.02,.03-.05,.05-.07,.08v-.11s.08-.03,.11-.05Z"/><path d="M404.53,478.23s-.03,.03-.05,.03v-.02s.03,0,.05-.02Z"/><path d="M42.55,1018.99c-.02,.2-.3,.38-.53,.64-.18-.31-.48-.59-.43-.71,.11-.25,.41-.39,.64-.57,.11,.21,.33,.44,.31,.64Z"/><path d="M134.37,706.77c-.3,.44-.59,.89-.87,1.33-.18-.08-.34-.18-.53-.28,.26-.51,.51-1.02,.77-1.51,.21,.15,.41,.31,.62,.46Z"/><path d="M107.33,706.15s-.02,.02-.03,.02c-.02,.02-.03,.05-.05,.07l.08-.08Z"/><path d="M485.35,92.25c-1.97-3.46-4.45-6.65-6.88-9.81-2.48-3.23-5.28-6.2-7.66-9.48-1.92-2.69-4.04-5.33-4.58-8.81-.56-3.59-2.86-6.1-5.46-8.4-2.86-2.53-5.61-5.12-8.45-7.66-1.13-1.02-2.25-2.08-3.53-2.89-3.54-2.26-6.86-4.79-10.19-7.35-3.35-2.58-6.22-5.6-9.45-8.25-.59-.48-1.18-1.03-1.53-1.69-1.72-3.28-4.78-5.14-7.63-7.2-1.15-.84-2.46-1.54-3.36-2.59-2.38-2.76-5.35-4.58-8.63-5.92-2.82-1.17-5.68-2.3-8.61-3.12-3.56-1-7.2-1.85-10.86-2.43-3.58-.56-7.27-.51-10.85-1.05-6.81-1.05-13.59-2.33-20.36-3.56-.51-.08-1.3-.36-1.39-.71-.51-1.87-1.92-1.41-2.54-.64-.98,1.2-1.99,.82-3.1,.77-1.61-.05-3.31-.43-4.81-.02-5.78,1.58-10.32,4.79-12.91,10.44-1.03,2.25-2.61,4.3-3.41,6.61-1.44,4.17-4.92,7.65-4.33,12.52,.02,.08-.07,.16-.1,.26-1.25,3.63-.23,7.35-.13,10.98,.05,2.26,.03,4.3-.79,6.48-1.28-.11-2.49-.26-3.71-.31-1.31-.05-2.69,.28-3.92-.03-3.94-.97-7.12,.1-9.75,3.1q.18,3.91-1.51,5.76c-1.25-.64-2.59-1.18-3.77-1.97-1.1-.72-2.03-.66-3.22-.25-2.59,.9-4.22,2.9-5.94,4.84-1.17,1.31-2,2.86-4.04,3.4-1.2,.33-2.36,1.69-3.05,2.87-2.1,3.54-4.18,7.12-5.81,10.9-1.38,3.15-3.08,5.89-5.66,8.17-1.23,1.08-2.1,2.72-4.23,2.13-.43-.11-1.05,.38-1.58,.62-2.51,1.18-5,2.4-7.53,3.56-12.54,5.83-24.55,12.62-36.38,19.72-6.24,3.74-12.36,7.68-18.48,11.62-3.22,2.07-6.37,4.25-9.45,6.5-4.41,3.22-8.8,6.45-13.09,9.81-4.97,3.89-9.86,7.89-14.75,11.9-1.2,.98-2.26,2.15-2.76,3.71,.8-.38,1.39-1.02,2.12-1.43,.95-.54,1.82-2.46,3.02-1.05,.89,1.05-.61,1.95-1.39,2.72-4.2,4.09-7.89,8.6-11.06,13.54-.26,.39-.28,.95-.46,1.62,1.97,.28,2.43-1.85,4.07-1.87,.3,.44,.67,.98,1.02,1.49,1.9-.61,3.31-1.74,4.63-3.25,1.74-2.02,3.71-3.89,5.78-5.56,4.99-4.02,10.04-7.96,15.16-11.83,3.87-2.92,7.76-5.83,12.13-8.14,4.3-2.26,8.39-5.05,12.14-8.12,4.1-3.36,8.39-6.37,12.96-8.98,2.99-1.71,6.04-3.3,9.01-5.04,4.5-2.63,8.3-6.35,13.27-8.22,.66-.25,1.08-1.05,1.71-1.48,.36-.26,.9-.3,1.36-.43,.11,.16,.25,.31,.36,.46-.53,.74-1.07,1.46-1.59,2.2-2.28,3.2-4.76,6.27-6.83,9.6-4.66,7.5-8.39,15.42-11.19,23.86-2.12,6.37-3.94,12.82-5.3,19.36-1.58,7.48-2.61,15.08-3.89,22.63-1.49,8.8-2.51,17.64-2.84,26.55-.05,1.3-.51,2.56-.74,3.66-1.8,.31-3.31,.54-4.79,.84-1.61,.3-3.17,.79-4.78,.97-6.42,.72-12.62,2.15-18.35,5.3-1.74,.98-3.53,1.89-5.28,2.84-1.79,.98-2.92,2.69-3.28,4.45-.41,1.97-1.08,3.97-.49,6.17,.36,1.36-.11,3.04-1.35,4.22-.51,.48-.82,1.18-1.38,1.99,1.02,.46,1.8,.75,2.53,1.15,2.95,1.66,4.15,1.64,6.09-.84,1.23-1.58,2.71-2.3,4.48-2.86,2.9-.94,5.79-1.95,8.68-2.92,1.8-.62,3.45-2.31,5.6-.84,.26,.18,.9-.21,1.36-.3,1.8-.31,3.59-.74,5.4-.89,1.38-.1,2.77,.16,4.07,.26,.49,4.07-2.49,29.13-3.64,31.29-1.71-.13-3.41-.34-5.12-.38-2.38-.03-4.79,.26-7.14,.02-1.74-.18-3.2,.2-4.69,.87-5.92,2.69-11.78,5.55-17.8,8.01-3.07,1.25-4.82,3.2-5.53,6.32-.3,1.3-.46,2.35,.95,3.23,.72,.44,1.12,1.48,1.54,2.31,.92,1.81,2.46,2.67,4.45,2.25,.92-.21,1.79-.69,2.69-.98,.72-.23,1.46-.41,2.2-.51,1.59-.2,3.2-.25,4.78-.49,2.81-.43,5.58-.95,8.83-1.53v12.26c4.91-.33,6.58,3.45,9.06,6.05,.02,.18,.05,.28,.03,.36-1.1,4.89-1.72,9.81-1.21,14.83,.08,.69,.49,1.35,.71,2.03,.41,1.39,1.94,1.72,2.59,2.74,.44,.69,.41,1.74,1.48,1.84,.89,.08,1.81-.08,2.63-.13q.9-3.2,2.49-3.99c.57-1.15,.8-2.56,1.48-2.82,2.07-.8,2.17-2.54,2.44-4.18,.36-2.17,.54-4.38,.75-6.56,.18-1.82,.89-2.95,2.94-3.23,4.71-.66,7.63-3.87,9.66-7.79,1.66-3.18,2.84-6.63,4.09-10.01,.31-.82,.34-1.99,0-2.77-1.02-2.26-.98-4.66-1.18-7.01-.21-2.64-1.18-4.22-3.95-4.81-2.87-.61-4.27-2.63-3.92-5.14,.74-5.51,1.53-11.01,2.35-16.51,.71-4.76,1.46-9.52,2.18-14.1,5.04-.85,8.2,2.59,11.63,4.43,1.05-.69,1.77-1.17,3.12-2.03-.21,2.13-.33,3.53-.49,4.92-.57,4.84-1.2,9.7-1.76,14.55-.54,4.66-1.03,9.34-1.54,14.01-1.03,9.44-2.2,18.85-3.04,28.31-.75,8.32-1.46,16.66-1.61,24.99-.15,9.21,.11,18.43,.69,27.62,.28,4.5,.69,9.24,3.84,12.98,.77,.92,1.69,1.74,2.64,2.48,1.39,1.07,2.87,2,4.12,2.87-.8,3.04-3.2,2.53-5.04,3.02-.97,2.41-1.94,4.76-2.84,7.12-.16,.43-.16,.95-.1,1.41,.71,4.23,2.59,7.93,5.2,11.36,1.44-.39,2.69-.75,3.69,.71,.56,.8,1.71,.71,2.3-.03,1.53-1.9,3.51-1.99,5.71-1.94,2.53,.07,2.81-.3,3.43-2.97,.08-.36,.43-.69,.44-1.03,.08-1,.16-2.02,.02-3-.11-.92-.57-1.77-.8-2.67-.87-3.33-1.3-6.79-3.02-9.88-1.25-2.22-2.3-2.9-4.81-2.44-1.74,.31-1.99-.53-1.92-2.02,.75-.15,1.48-.3,2.61-.54-.31-1.17-.54-2.23-.87-3.27-.74-2.36-1.76-4.68-2.22-7.09-1.3-6.78-.71-13.69-1.02-20.53-.18-4.07-.05-8.16,0-12.22,.02-2.28-.31-4.71,.33-6.83,.92-3.05,.77-6.02,.69-9.09-.08-3.15-.46-6.43,.28-9.44,.94-3.86,.95-7.78,1.48-11.63,.75-5.5,.94-11.06,1.46-16.59,.38-3.86,.94-7.71,1.46-11.86,2.86-1.46,2.74-4.76,3.18-7.56,.84-5.17,1.12-10.44,1.64-15.67,.46-4.66,.94-9.32,1.36-13.98,.07-.64-.1-1.3-.16-1.94-.21-.02-.41-.02-.61-.03-.62,4.63-1.25,9.24-1.92,14.23-.87-2-.97-3.72-.61-5.56,.74-3.82,1.33-7.7,2.08-11.52,.21-1.1,.49-2.49,1.26-3.08,1.49-1.13,1.44-2.49,1.56-4.05,.26-3.72,.46-7.47,1.16-11.13,.61-3.1,1.25-6.17,1.43-9.34,.3-4.78,1.56-9.37,2.66-14,.59-2.49,1.12-5.02,1.64-7.52,1.1-5.25,2.3-10.49,3.23-15.75,2.2-12.54,4.33-25.11,7.7-37.4,2.63-9.6,5.55-19.13,8.37-28.68,.59-2.03,1.54-3.92,3.36-5.22,.36-.28,.9-.74,.89-1.08-.18-2.92,1.51-4.78,3.53-6.47,.07-.05,.07-.18,.11-.26,1.64-2.43,3.31-4.82,4.91-7.29,.84-1.28,1.51-2.66,2.28-3.97,.38-.62,.79-1.59,1.31-1.71,1.44-.3,1.89-1.13,1.95-2.4,.07-1.33,.85-1.59,1.97-1.33,.75,.18,1.56,.25,2.22,.59,4.22,2.25,7.73,5.25,10.16,9.47,6.55,11.37,12.95,22.82,17.9,35.02,2.23,5.5,4.59,10.96,6.58,16.56,2.76,7.76,5.22,15.62,7.83,23.45,.18,.54,.31,1.3,.71,1.51,1.38,.77,1.54,2.13,1.92,3.4,.51,1.74,.98,3.5,1.46,5.25,.9,3.33,1.85,6.65,2.67,9.99,1.1,4.46,2.03,8.96,3.18,13.42,.54,2.12,1.54,4.12,2.08,6.24,.75,3.07,1.31,6.19,1.9,9.29,.67,3.58,1.36,7.15,1.95,10.75,.54,3.38,.97,6.78,1.49,10.49-7.02,3.07-13.85,6.2-19.35,11.6-2.48-1.35-4.82-.72-7.22-.07,.98,3.81,.8,4.17-2.58,6.05-.48,.26-.97,.61-1.26,1.05-.92,1.35-1.74,2.77-2.77,4.46,4.56-.05,7.79,3.17,11.88,4.96,2.28-1.58,4.91-2.08,7.79-1.84,1.9,.16,3.84-.05,5.74-.25,.94-.08,2.05-.23,2.71-.8,2.18-1.92,5.12-1.17,7.53-2.82,.31,1.03,.61,1.64,.67,2.26,.84,7.71,1.67,15.44,2.46,23.17,.25,2.28,.49,4.58,.51,6.88,.02,.84-.48,2.26-1,2.41-2.43,.64-4.66,1.97-7.47,1.26-2.64-.67-5.53-1.15-8.2,0-2.3,.98-4.15,2.89-6.68,3.46-.08,.02-.15,.11-.21,.2-1.85,2.33-4.45,4.07-5.41,7.12-.48,1.51-1.36,2.9-2,4.36-.26,.61-.48,1.26-.56,1.9-.26,2.1-.56,4.18-.61,6.28-.05,1.9,.02,3.86,.38,5.73,.74,3.86,1.07,4.05,4.99,4.61q2.28,.31,2.63,2.81c-.51,.36-1.02,.74-1.95,1.41,1.21,.2,1.92,.43,2.64,.41,1.97-.07,4-.54,5.91-.25,1.66,.26,3.15,.46,4.73-.21,.49-.21,1.13-.18,1.69-.1,1.74,.23,3.15-.46,4.61-1.3,2.87-1.64,3.86-4.59,5.22-7.27,1.62-3.2,3.17-6.43,4.73-9.66,.2-.02,.38-.05,.57-.07,.18,3.77,2.12,6.3,5.35,8.32,.2-.79,.46-1.31,.44-1.82-.02-1.25-.21-2.48-.26-3.72-.05-1.08,.36-1.66,1.67-1.18,.05,.53,.23,1.1,.13,1.62-.48,2.74-.16,5.51-.31,8.25-.28,4.74-1.61,9.45-.84,14.28,.1,.62-.46,1.43-.84,2.08-1.49,2.61-2.12,5.45-2.56,8.4-.95,6.25-2.13,12.45-3.2,18.67-.46,2.64-1.08,5.28-1.21,7.96-.08,1.77-.53,3.35-1.03,4.99-1.33,4.18-2.86,8.34-2.66,12.86,.07,1.39-.41,2.82-.75,4.22-.25,1.02-.74,1.97-1,2.99-.43,1.74-.2,3.81,1.1,4.68,1.12,.72,1.9,1.59,2.86,3.04,.72-.8,1.2-1.39,1.74-1.92,.8-.79,1.51-1.9,2.46-2.18,1.38-.39,2.08-1.25,2.74-2.31,.36-.56,.69-1.38,1.2-1.58,2.74-1.02,3.61-3.48,4.81-5.74,1.56-2.95,2.36-6.2,3.72-9.25,2.79-6.15,4.89-12.65,6.74-19.17,1.53-5.3,2.36-10.8,3.35-16.23,.46-2.45,.57-4.94,.8-7.42,.3-3.13,.57-6.25,.8-9.39,.1-1.25,.03-2.49,.08-3.74,.13-2.56,.3-5.12,.43-7.68,.05-.84,.13-1.69,.08-2.54-.03-1.13-.16-2.26-.28-3.4-.26-2.76-.48-5.53-.84-8.27-.23-1.8-1.16-3.63-.95-5.33,.69-5.4-1.92-10.32-1.94-15.59,0-.74-.33-1.49-.56-2.23-.77-2.44-1.74-4.86-2.31-7.35-.85-3.74-4.1-6.05-5.38-9.5-.03-.13-.31-.18-.49-.25-1.97-.85-2-2.49-1.89-4.3,.92,.07,1.84,.43,2.38,.13,1.95-1.12,3.82-.87,5.68-.05,.13-.21,.23-.3,.23-.38-.03-1.79,.67-3.18,2.38-3.82,1.95-.72,2.44,.79,3.04,2.13,.08,.2,.85,.36,.97,.23,.26-.3,.48-.79,.43-1.18-.03-.28-.54-.46-.79-.74-.72-.79-.75-1.51,.28-2.08,.36-.2,.72-.41,1.26-.72-1.48-2.59-2.77-5.02-4.27-7.33-.46-.72-1.41-1.25-2.25-1.64-3.1-1.41-6.22-2.76-9.37-4.07-1.23-.51-1.82-1.26-1.74-2.61,.07-1.15,.11-2.31-.05-3.45-.87-6.43-1.79-12.86-2.71-19.3-.31-2.17-.66-4.35-1-6.51-.72-4.45-1.43-8.88-2.2-13.29-.33-1.89-.79-3.74-1.3-5.6-.64-2.38-1.69-4.71-2-7.14-.53-3.91-1.33-7.7-2.41-11.49-1.41-4.87-2.49-9.83-3.84-14.72-1.44-5.25-3.05-10.45-4.58-15.65-.62-2.12-1.12-4.28-1.94-6.33-2.56-6.47-4.94-12.98-7.17-19.58-1.76-5.19-3.5-10.57-7.33-14.78-.2-.2-.31-.49-.38-.77-.95-3.97-2.94-7.42-5.19-10.78-.71-1.05-1.44-2.33,.02-3.59,.39-.33,.38-1.18,.46-1.82,.08-.66-.11-1.41,.15-1.97,.72-1.56,1.61-3.02,2.18-4.09-1.39-1.13-2.95-1.82-3.56-2.99-2.26-4.43-4.96-8.83-6.1-13.59-1.54-6.35-.98-12.96,.98-19.31,.59-1.9,1.87-2.95,3.79-2.86,2.46,.11,4.92,.49,7.52,.77-.41,2.46,.8,3.43,2.76,3.81,.38,.08,.75,.15,1.13,.25,4,1.15,7.99,2.1,11.44,4.87,2.79,2.23,6.32,3.54,9.52,5.25,1.92,1.03,3.99,1.87,5.78,3.1,5.07,3.54,10.8,5.66,16.46,7.96,2.02,.82,4.15,1.44,6.15,2.33,5.78,2.53,11.37,5.6,17.33,7.61,4.94,1.67,9.04,4.38,13.08,7.42,.46,.34,.92,.72,1.25,1.18,2.72,3.81,5.4,7.65,8.11,11.47,1.76,2.49,3.38,5.1,5.33,7.47,4.14,5.02,8.61,9.76,12.62,14.88,2,2.59,4.41,4.3,7.29,5.56,1.61,.69,2.99,.36,3.54-1.2,1.16-3.35,3.46-4.91,6.92-5,.23,0,.46-.26,.98-.56-.25-1.87,.02-4.12-.87-5.69Zm-232.2,102.84c-1.31,9.58-2.36,19.2-3.53,28.81-.21,.05-.41,.1-.62,.15-.44-.56-.98-1.07-1.28-1.69-.69-1.43-1.84-1.92-3.28-1.77-2.03,.21-3.69-.57-5.41-1.53-1.02-.57-2.28-.72-3.99-1.23,.18-2.46,.25-4.94,.53-7.4,.67-5.79,1.33-11.6,2.18-17.38,.57-3.87,1.46-7.71,2.25-11.54,1.08-5.17,2.22-10.3,3.28-15.46,.94-4.51,2.43-8.84,4.2-13.08,.44-1.07,.8-2.15,1.2-3.23,.38-1.02,.77-2.18,2.1-1.94,1.26,.23,1.97,1.44,1.82,2.58-.44,3.58-1.1,7.12-1.71,10.68-.13,.84-.61,1.67-.54,2.48,.07,.62,.64,1.58,1.16,1.72,1.81,.51,3.68,.75,5.94,1.17-1.43,9.47-2.99,19.03-4.3,28.65Z"/><path d="M501.56,429.11c-.05-.46-.13-1.15-.43-1.3-1.8-.95-2.35-3.71-4.97-3.25,0-1.18,.03-2.12,0-3.07-.31-10.16-.49-20.33-2.49-30.36-.33-1.67-.54-3.38-1.76-4.76-.9,.16-1.72,.3-2.61,.46,.18-.87,.57-1.61,.43-2.22-1.05-4.43-.13-8.8,.36-13.13,.67-6.09,2.2-12.06,2.17-18.21,0-.48,.18-.94,.26-1.41,.67-3.86,1.46-7.71,1.97-11.58,.61-4.53,1.15-9.07,1.39-13.62,.21-3.81-.02-7.65-.07-11.47-.02-2.54-1.13-5.04-.34-7.63,.13-.44-.03-.95-.08-1.43-.71-6.2-1.31-12.41-2.18-18.56-.62-4.41-.82-8.96-2.77-13.11-.18-.38-.11-.95,.03-1.39,1.48-4.59,.18-9.09-.49-13.6-.03-.18-.36-.3-.89-.71-.11,1.13-.11,1.97-.3,2.76-.13,.57-.36,1.39-.79,1.58-1.28,.59-1.38,1.67-1.17,2.66,.74,3.27,1.25,6.53,1.21,9.89-.02,2.76,.61,5.53-.26,8.29-.59-3.31-.89-6.65-1.33-9.96-.54-4.09-1.21-8.16-1.82-12.22-.54-3.59-1.13-7.17-1.61-10.78-.07-.53,.44-1.13,.67-1.69,.64,.26,1.31,.49,1.9,.82,.26,.15,.36,.56,.85,1.38,.48-1.77,.84-3.04,1.13-4.3,.13-.54-.03-1.31,.28-1.66,1.21-1.31,.97-2.87,.85-4.36-.79-10.24-1.38-20.49-3.31-30.6-.33-1.79-.72-3.59-.8-5.4-.05-.94,.23-2.2,.85-2.81,1.38-1.3,1.36-2.64,.82-4.18-.46-1.33-1.36-2.64-1.38-3.97-.02-2.64-1.03-4.81-2.22-7.02-1.43-2.69-2.69-5.46-4.1-8.16-1.02-1.95-2.26-3.76-4.51-5.23,.75,2.54,1.36,4.58,1.97,6.61-.18,.11-.38,.21-.56,.33-.95-1.25-2.41-2.38-2.72-3.77-.48-2.17-1.61-3.87-2.66-5.68-3.17-5.45-6.89-10.55-9.85-16.15-2.48-4.68-4.74-9.37-6.17-14.47-.34-1.21-1.03-2.31-1.58-3.48-.18,.07-.36,.13-.54,.2,.05,.54,0,1.12,.13,1.64,1.03,3.86,2.08,7.7,3.15,11.54,.18,.64,.39,1.3,.71,1.89,2.43,4.66,4.84,9.35,7.38,13.96,1.66,3.02,3.56,5.91,5.32,8.88,.43,.71,1.08,1.43,.11,2.54-.59-.79-1.2-1.48-1.69-2.26-1.49-2.43-2.81-4.99-4.43-7.35-4.43-6.47-7.24-13.72-9.96-20.95-2.61-6.99-4.5-14.23-6.92-21.28-2.69-7.78-5.64-15.47-8.5-23.19-.2-.56-.64-1.02-1.02-1.62-.61,1.03-1.08,1.82-1.53,2.58,.3,.75,.61,1.44,.85,2.17,1.59,4.71,2.89,9.55,4.82,14.11,2.03,4.79,2.94,9.88,4.69,14.74,1.43,3.97,2.69,7.99,4.1,11.96,.97,2.71,2.08,5.33,3.1,8.02,.71,1.87,1.05,4.25,.85,5.92-1.59-3.58-2.95-6.94-4.56-10.17-.75-1.49-1.69-3.3-3.05-4.02-2.33-1.26-2.92-3.41-4-5.4-1.44-2.64-2.82-5.33-4.4-7.89-2.95-4.82-7.04-8.76-10.58-13.13-.3-.38-.75-.62-1.33-1.08,.07,.56,.03,.77,.1,.92,1.12,2.13,2.28,4.2,1.39,6.79-.16,.48,.41,1.23,.71,1.81,3.41,6.65,6.84,13.26,10.24,19.89,1.35,2.64,2.86,5.23,3.91,8.01,3.76,10.04,7.45,20.13,10.99,30.26,2.84,8.14,4.66,16.56,6.66,24.93,.59,2.44,1.97,4.73,3.15,6.97,.41,.75,1.35,1.23,1.94,1.74,1.51-.61,1.69-1.62,1.67-2.72-.05-1.25-.25-2.51-.13-3.74,.1-.89,.36-1.94,.94-2.56,.92-.98,.98-1.94,.77-3.15-.72-4.04-1.41-8.07-2.28-12.11-1.33-6.12-3.22-12.01-5.38-17.84-1.76-4.74-3.74-9.39-5.56-14.1-.16-.41,.05-.97,.13-2.07,1.49,2.38,2.67,4.2,3.79,6.05,2.58,4.27,5.35,8.43,7.58,12.86,2.31,4.61,4.09,9.48,6.12,14.24,.23,.51,.54,1.35,.89,1.38,2.25,.25,2.23,2.02,2.63,3.56,.36,1.49,.59,3.05,1.25,4.41,1.72,3.63,2.02,7.6,2.49,11.42,1.18,9.21,1.82,18.49,2.64,27.75,.2,2.18,.54,4.4,.38,6.56-.39,5.12,.3,10.09,1.26,15.06,.2,1.07,.2,2.15,.3,3.23-.2,.03-.38,.07-.57,.11-.87-3.02-1.74-6.02-2.77-9.63-1.43,5.64-1.18,10.72-.8,15.74,.53,7.17,1.51,14.31,1.97,21.48,.48,7.35,.95,14.72,.44,22.1-.21,3.02,.31,5.97-.11,9.06-.57,4.14-.54,8.35-1,12.54-.44,4.25-.59,8.58-1.18,12.85-.07,.57-.23,1.15-.46,2.22-.57-1.43-.94-2.31-1.3-3.2-.21,.02-.44,.03-.66,.05-.25,1.44-.54,2.9-.71,4.36-.31,2.94-.33,5.94-.87,8.83-.56,2.86-.3,5.51,.77,8.14,.2,.53,.69,1.12,.59,1.56-.48,1.84-.85,3.79-1.79,5.38-.49,.8-2.08,.97-3.18,1.41-.13,.05-.34-.1-.61-.16-.51-10.21-1.02-20.41-1.54-30.72-1.1,.41-1.9,.71-2.77,1.03-.44,2.53-.95,5.32-1.38,8.12-.08,.53,.21,1.1,.36,1.64,.16,.64,.49,1.26,.49,1.9,.08,7.11,.18,14.19,.1,21.28-.07,4.5,.13,8.99-.72,13.46-.26,1.36,.74,2.94,.66,4.38-.07,1.44-1.03,2.86-1.12,4.3-.28,4.3-.11,8.61-1.43,12.8-.1,.34,.05,.75,.08,1.13,.11,1.33,.39,2.66,.34,3.97-.18,5.84-.44,11.68-.72,17.52-.05,1.23-.03,2.61-.54,3.68-1.66,3.48-1.85,7.17-2.13,10.9-.49,6.78-.9,13.59-1.53,20.36-.48,5.23-1.23,10.45-1.85,15.69-.64,5.43-1.18,10.86-1.89,16.29-.57,4.36-1.39,8.7-1.99,13.06-.26,1.87-.07,3.82-.38,5.68-.82,4.89-1.85,9.73-2.76,14.62-.82,4.51-1.38,9.09-2.41,13.55-1.61,7.01-3.5,13.95-5.3,20.91-.75,2.92-1.61,5.83-2.43,8.75,1.08-.23,1.62-.74,2.22-1.18,3-2.26,4.86-5.27,5.87-8.88,.72-2.54,1.58-5.09,2.54-7.56,.67-1.76,1.67-3.4,2.46-5.12,.54-1.21,1.08-2.44,1.43-3.72,.79-2.84,2.53-5.33,2.77-8.4,.15-2.03,.79-4.04,1.2-5.96,2.61-.38,1.39,2.03,2.35,3.02,1.08-3.43,2.1-6.58,3.08-9.73,.1-.28,.11-.57,.13-.85,.02-.3-.05-.57-.02-.87,.18-1.61,.26-3.23,.61-4.81,.64-2.89,1.39-5.74,2.18-8.58,.31-1.1,.95-2.1,1.28-3.18,.53-1.71,.98-3.45,1.36-5.19,.67-3.18,.77-6.58,2.02-9.52,.97-2.31,1.85-4.55,2.17-7.01,.62-4.94,1.18-9.88,1.74-14.82,.3-2.48,.54-4.96,.82-7.42,.13-1.05,.33-2.08,.41-3.13,.56-7.06,1.07-14.11,1.64-21.15,.15-1.72,.61-3.4,.74-5.12,.31-3.77-.41-7.65,.95-11.37,.23-.59,.02-1.33,.05-1.99,.05-1.25,.13-2.49,.18-3.74,.07-2,.18-3.99,.15-5.97-.02-1.69-.43-3.4-.31-5.09,.31-4.18,.8-8.35,1.25-12.54,.02-.13,.25-.25,.49-.46,.51,.28,1.05,.57,1.97,1.05,.43-1.51,.98-2.82,1.17-4.18,.31-2.43-.18-5.17,.77-7.25,1-2.17,1.44-4.25,1.66-6.51,0-.07,.31-.11,.53-.2,.11,.25,.31,.48,.36,.74,.64,4.64,1.53,9.29,1.85,13.95,.46,6.3,.53,12.63,.67,18.97,.07,3.25,.28,6.55-.18,9.75-.77,5.4-2.13,10.72-3,16.1-.53,3.2-.85,6.48-.74,9.71,.16,4.2,.53,8.39,.26,12.62-.2,3.22,.2,6.48,.46,9.73,.18,2.35,.53,4.68,.9,6.99,.1,.61,.62,1.13,1.03,1.84,1.54-5.14,.56-10.27,2.48-14.93,.21,.05,.43,.08,.64,.11-.11,1.33-.21,2.66-.31,3.97-.2,2.67-.56,5.35-.54,8.02,.02,2.58,.39,5.14,.67,7.7,.07,.54,.44,1.05,.59,1.59,.34,1.28,.95,2.58,.89,3.82-.61,12.16-1.26,24.32-2,36.48-.59,9.47-2,18.84-3.69,28.19-1.05,5.86-2.86,11.49-4,17.3-1.07,5.42-2.99,10.63-4.76,15.85-1.51,4.53-3.2,8.99-4.74,13.5-.46,1.35-1.17,2.92-.85,4.17,.69,2.76,.11,5.51,.56,8.24,.18,1.03,0,2.25,1.17,3.31,.33-.98,.67-1.66,.77-2.38,.85-6.43,3.36-12.34,5.89-18.23,.64-1.46,1.61-2.79,2.38-4.2,.46-.82,.94-1.66,1.26-2.54,2.49-6.74,4.91-13.5,6.24-20.59,.67-3.58,1.58-7.12,2.18-10.72,1.02-5.94,2.02-11.9,2.72-17.89,.67-5.63,.98-11.29,1.41-16.92,.05-.62,0-1.64-.34-1.84-1.66-.92-1.03-2.3-.94-3.56,.07-.75,.34-1.49,.36-2.25,.08-4.32,.13-8.63,.2-12.95,.02-1.62,.08-3.25,.07-4.87-.03-4.69-.2-9.39-.11-14.06,.07-4.2,.38-8.4,.57-12.59,.11-2.66-.23-5.37,1.43-7.75,.41-.59,.49-1.46,.54-2.22,.23-2.97,.41-5.92,.57-8.89,.18-3.54,.25-7.09,.49-10.63,.48-7.27,.33-14.52-.39-21.77Zm-30.24-247.99c2.51,3.33,3.92,7.19,5.45,11.49-1.82-1.66-5.64-9.52-5.45-11.49Z"/><path d="M540.78,450.49c0,1.89,.02,3.81-.3,5.66-.21,1.25-.8,2.56-1.58,3.58-.8,1.05-1.25,2.03-1.36,3.33-.33,3.69-.87,7.37-1.18,11.08-.26,3.1-.31,6.22-.46,9.34-.03,.75-.07,1.53-.18,2.28-.84,5.28-1.87,10.55-2.46,15.87-.31,2.76-.39,5.51-1.36,8.16-.07,.16-.07,.38-.05,.56,.41,4.07-1.1,7.93-1.38,11.9-.28,3.95-1.03,7.78-1.9,11.6-.26,1.12-.28,2.3-.23,3.43,.07,1.84,.2,3.63-1.21,5.15-.31,.34-.33,1.07-.31,1.61,.25,5.38-.21,10.72-1.23,16.02-.48,2.53-.48,5.15-.87,7.71-.62,4.12-1.41,8.2-2.12,12.32-.15,.84-.2,1.71-.26,2.56-.26,3.35-.44,6.69-.8,10.03-.11,1.16-.39,2.18,.56,3.2,.74,.77,.8,2.17-.11,2.54-1.85,.77-1.76,2.38-2,3.77-.94,5.19-2.2,10.26-4.35,15.1-.46,1.03-.62,2.2-.87,3.31-.95,4.32-2.13,8.53-4.02,12.55-.97,2.07-1.51,4.33-2.4,6.43-.38,.92-1,1.99-1.82,2.4-1.67,.84-3.51,1.51-5.35,1.84-1.79,.31-3.28,.92-4.53,2.18-3.07,3.15-7.07,4.48-11.13,5.69-.71,.21-1.54,.18-2.26,.03-1.18-.23-1.76-1.51-1-2.4,1.43-1.69,2.26-3.87,4.78-4.63,1.71-.53,2.81-2.07,3.71-3.79,2.26-4.3,4.79-8.45,7.19-12.67,.3-.49,.54-1.02,.74-1.54,.57-1.61,1.1-3.23,1.66-4.84,1.8-5.14,3.82-10.22,5.37-15.44,1.23-4.2,1.87-8.57,2.77-12.86,.98-4.68,2.07-9.34,2.9-14.03,.67-3.76,1.02-7.56,1.53-11.34,.46-3.31,.97-6.63,1.46-9.93,.36-2.38,.61-4.76,1.12-7.11,.31-1.54,1.05-3,1.49-4.53,.62-2.08,1.25-4.2,1.71-6.33,.28-1.3,.25-2.66,.38-4,.03-.38-.05-.94,.18-1.1,2.15-1.62,1.18-3.74,1.02-5.73-.05-.48-.15-1-.02-1.43,1.56-5.37,.54-10.88,.94-16.31,.23-3.13,.46-6.27,.53-9.4,.11-5.45,1.58-10.83,.66-16.31-.13-.84-.02-1.74,.15-2.58,.25-1.31,.72-2.56-.39-3.76-.26-.28-.25-.95-.15-1.38,1.41-6.12,1.25-12.36,1.28-18.56,.05-7.38-.15-14.77-.44-22.15-.15-3.81-.77-7.6-1.13-11.4-.28-2.86-.48-5.71-.74-8.57-.44-4.92-.85-9.85-1.38-14.75-.16-1.71-.59-3.38-.94-5.07-.54-2.53-1.2-5.02-1.64-7.56-.2-1.08-.07-2.25,.03-3.36,.08-.95,.66-1.95,.44-2.81-.82-3.3,.26-6.47,.61-9.65,.28-2.59,.26-5.09,0-7.68-.43-4.48-.53-9.01-.69-13.5-.11-3.23,.03-6.48-.2-9.7-.33-4.56-1.03-9.09-1.3-13.65-.36-6.4-.41-12.82-.67-19.22-.08-1.76,.02-3.63-1.67-4.96-.38-.3-.33-1.25-.36-1.9-.71-14.55-1.38-29.11-2.13-43.68-.08-1.59-.64-3.17-.97-4.74-.53-2.61-1.36-5.19-1.49-7.81-.36-7.47-.38-14.95-.66-22.41-.2-5.46-.46-10.93-.97-16.36-.51-5.71-1.18-11.42-2.1-17.07-.71-4.35-1.71-8.66-2.94-12.9-1.62-5.56-1.72-11.11-.69-16.75,.16-.84,.11-1.72,.31-2.56,.16-.74,.33-1.72,.84-2.07,2.3-1.49,3.84-4.09,6.79-4.58,.38-.07,.82-.11,1.08-.34,1.17-1.03,2.38-1.59,3.94-.97,1.8,.74,3.5,1.61,4.18,3.64,.36,1.07,.77,2.15,1.03,3.25,1.33,5.68,2.28,11.47,4,17.02,2.35,7.55,3.33,15.26,3.99,23.07,.26,3.05,.54,6.09,.82,9.14h.16c.23,8.53,.38,17.07,.69,25.58,.39,11.6,.02,23.2,.21,34.79,.11,6.14,.28,12.26,.28,18.39,0,2.58-.39,5.15-.57,7.73-.05,.54-.18,1.18,.02,1.64,1.12,2.77,1.18,5.63,.56,8.47-1,4.56-.36,9.17-.39,13.75-.03,4.48,.3,8.98,.49,13.47,.1,2.36,.69,4.76-.38,7.09-.18,.38-.1,.98,.08,1.39,1.49,3.77,.75,7.73,1.1,11.58,.33,3.59-.48,7.04-.49,10.55-.03,4.99,.26,9.96,.44,14.95,.08,2.2,.28,4.4,.34,6.6,.05,1.66,.72,3.23,1.97,3.97,1.48,.89,2.31,2.23,2.74,3.53,.87,2.69,2.33,5.17,2.4,8.19,.07,3.04,1,6.02,1.3,9.07,.61,6.17,1.26,12.37,1.48,18.58,.28,7.83,.16,15.65,.16,23.5Z"/><path d="M485.33,658.84c-1.03-3.04-1.44-3.53-4.81-3.74-1.99,2.33-3.59,4.87-4.73,7.78-1.79,4.55-3.77,9.01-5.66,13.5-1.08,2.56-2.43,5.05-3.12,7.71-.82,3.12-2.46,5.73-4.27,8.4,.43-2.08,.85-4.15,1.28-6.24-.18-.1-.38-.2-.57-.3-2.23,1.54-4.81,2.54-5.84,5.64-2.13,6.51-4.1,13.08-5.74,19.74-.41,1.67-.85,3.33-1.23,5-.54,2.51-1.05,5.04-1.53,7.58-.67,3.48-1.39,6.96-1.92,10.45-.51,3.3-.69,6.66-1.25,9.96-.92,5.46-2.13,10.9-3,16.38-.25,1.54,.28,3.2,.39,4.81,.11,1.59,.67,3.43,.11,4.78-2.02,4.89-1.43,10.21-2.86,15.18-.9,3.1-1.12,6.4-1.56,9.62-.39,2.76-.64,5.51-1.03,8.25-.62,4.41-1.44,8.81-1.95,13.23-.23,1.95,.16,3.99,.2,5.97,.08,3.89-.21,7.75,.08,11.67,.48,6.38,2.08,12.49,3.53,18.62,1.31,5.46,3.46,10.72,6.04,15.75,.61,1.18,1.05,2.46,1.51,3.71,1.15,3.13,.98,6.43,1.13,9.68,.26,6.4,.41,12.82,.75,19.22,.1,1.99,.72,3.94,1.08,5.91,.11,.66,.2,1.33,.21,1.99,.08,3.07,.11,6.14,.23,9.22,.02,.89,.21,1.77,.33,2.67,.25,0,.49-.02,.74-.02,.1-1.08,.3-2.17,.28-3.25-.05-6.24-.15-12.47-.23-18.71-.02-1.58,.05-3,1.59-4.05,.53-.36,.71-1.53,.71-2.31,.02-5.83-.05-11.65-.07-17.49-.02-1.72-.08-3.45,.97-4.99,.34-.51,.41-1.28,.43-1.92,.07-3.07,.13-6.14,.1-9.19-.11-7.78-.25-15.54-.44-23.3-.11-4.59-.39-9.19-.49-13.77-.08-3.36,0-6.71,.02-10.08,0-.57-.16-1.31,.13-1.67,1.43-1.79,.85-3.84,.97-5.81,.07-1.33,.13-2.67,.25-4.02,.53-6.88,1.05-13.75,1.58-20.61,.03-.39-.02-.77-.02-1.17-.07-1.87-.1-3.63,2.17-4.5,.92-.34,1.35-1.31,.57-2.38-2.12-2.86-1.64-6.04-1.1-9.22,.25-1.49,.67-3,.61-4.48-.18-4.69,.1-9.34,1.23-13.9,.16-.69,.59-1.58,1.17-1.85,1.08-.54,1.16-1.39,1.3-2.35,.43-2.94,.82-5.87,1.31-8.8,.72-4.17,1.46-8.32,2.3-12.44,.85-4.22,1.31-8.53,3.15-12.5,1.43-3.05,2.43-6.24,2.92-9.6,.13-.84,.31-1.84,.85-2.41,2.1-2.23,2.74-5.22,4.05-7.83,2.48-4.94,4.4-10.17,6.5-15.31,1.64-3.99,2.07-8.02,.66-12.24Zm-38.23,192.79c-.64-1.76-1.48-3.48-1.87-5.28-1.85-8.42-3.64-16.85-3.87-25.52-.05-2-.33-4-.38-6.01-.18-6.83,.9-13.54,1.9-20.25,.11-.85,.26-1.69,.43-2.54,.11-.56,.16-1.18,.44-1.64,.66-1.1,1.69-2.05,2.12-3.22,.41-1.07-.05-2.4,.92-3.45,.82,11.31-.54,22.58-.2,33.87,.36,11.32,.56,22.64,.84,33.95-.11,.03-.21,.07-.33,.08Z"/><path d="M321.91,449.28c-.49-.38-1.05-.84-1.25-1.38-.59-1.61-1.76-1.58-3.05-1.28-2.33,.56-4.68,1.02-6.96,1.71-1.89,.57-3.05,.23-4.48-1.31-1.56-1.69-3.82-2.72-5.78-4.04-3.77,.39-7.7-1.02-11.7,1.17-1.23-2.05-2.67-2.05-4.53-1.18-2.12,.97-4.3,.54-6.42-.36-1.76-.75-3.59-1.28-5.32-2.08-3.07-1.38-5.81,.28-8.66,.74-.18,.03-.43,.16-.48,.3-.59,1.76-2.12,1.9-3.59,2.3-.77,.21-1.46,.95-2,1.59-1.64,1.94-3.48,3.76-4.12,6.33-.51,.08-.89,.13-1.25,.2-2.82,.54-4.2,2.3-3.2,4.87,.62,1.61,.02,2.66-.56,3.76,.92,1.54,2.31,1,3.48,1.21,2.63,.46,5.23,.97,7.84,1.51,.31,.05,.56,.44,.89,.74-.36,.75-.67,1.41-1.03,2.15,.72,.71,1.39,1.35,2.23,2.15-1.64-.31-2.9-.56-4.63-.89,1.3,2,2.22,3.61,3.31,5.12,.57,.8,1.41,1.46,2.17,2.13,2.48,2.22,5.68,2.51,8.73,3.22,1.89,.43,3.74,.64,5.68,.03,2.44-.75,4.97-1.31,7.45-1.97,.62-.17,1.24-.34,1.75-.14,.59-.23,1.26-.38,1.95-.47,.64-.21,1.35-.34,2.11-.39,.02-.09,.06-.19,.07-.25,1.33-.53,2.54-.87,3.61-1.46,3.45-1.89,6.68-4.1,9.47-6.91,1.43-1.41,3.23-1.92,5.2-2.05,1.13-.08,2.28-.13,3.36-.44,1.74-.49,3.36-1.35,5.1-1.79,2.82-.69,4.69-2.53,6.14-4.82,1.51-2.41,.66-6.28-1.56-8.01Z"/><path d="M188.43,826.36c-.62,3.94-.23,8.04-.33,12.08-.02,1.08-.23,2.17-.43,3.86-1.31-.98-1.97-1.49-2.77-2.1-.51,.8-.92,1.49-1.38,2.22,0-2.36,.11-4.64-.03-6.89-.23-3.71-.71-7.42-.92-11.13-.28-4.82-1.59-9.45-2.36-14.18-.95-5.94-1.94-11.91-1.59-18,.07-1.36-.48-2.79-.9-4.15-.51-1.64-1.18-3.23-.57-5,.11-.34,.1-.77,.03-1.13-1.74-9.19-3.66-18.35-5.14-27.57-.49-3.1-1.43-6.09-1.82-9.19-.13-1.03-.07-2.1-.23-3.12-.21-1.2-.57-2.38-.9-3.56-.39-1.38-.98-2.71-1.23-4.1-1.13-6.32-2.87-12.45-4.92-18.54-1.49-4.43-2.64-8.98-4.15-13.41-1-2.99-2.12-5.97-3.61-8.73-2.4-4.45-5.15-8.7-7.75-13.05-.67-1.15-1.31-2.33-1.82-3.54-.2-.48,.03-1.12,.1-2.36,3.68,4.07,6.88,7.6,10.09,11.14,.15-2.95-3.23-4.63-2.51-7.75,1.43-.21,1.49,1.13,2.2,1.62,3.04,2.03,4.25,5.32,5.83,8.34,2.9,5.5,5.45,11.17,6.81,17.34,.84,.26,1.64,.53,2.53,.8,0,.64,.23,1.33-.03,1.71-1.2,1.77-.53,3.41-.03,5.2,1.82,6.63,3.5,13.31,5.27,19.95,.3,1.17,.74,2.28,1.58,3.33-.15-1.02-.28-2.02-.41-3.04,.16-.05,.33-.1,.49-.15,.2,.44,.51,.87,.61,1.33,.85,3.92,1.66,7.81,1.41,11.91-.11,2.02,.92,4.07,1.26,6.15,.62,3.77,1.05,7.56,1.67,11.34,.26,1.53,.82,2.99,1.25,4.48,.2-.03,.39-.08,.59-.13v-2.05c.15-.02,.28-.03,.43-.05,.34,1.74,.67,3.5,1.08,5.6-.77-.34-1.17-.51-1.36-.61,.3,3.87,.44,7.86,.94,11.8,.77,6.17,1.77,12.31,2.66,18.44,.05,.3,.05,.57,.07,.87,.25,3.91,.71,7.83,.66,11.73-.03,4.09,.33,8.14-.33,12.27Z"/><path d="M456.16,453.81c-.57,4.56-1.26,9.09-1.81,13.65-.66,5.61-1.03,11.24-2.54,16.74-.31,1.13-.05,2.43-.18,3.64-.51,4.36-1,8.75-1.66,13.11-.59,3.95-1.82,7.84-2,11.81-.2,4.33-1.13,8.5-2.17,12.59-.77,3-.57,6.32-2.4,9.04-.31,5.09-3.63,9.21-4.43,14.16-.26,1.56-1.33,2.97-1.85,4.5-.79,2.36-1.85,4.61-2.1,7.19-.41,4.32-.9,8.65-2.35,12.8-.74,2.08-1.2,4.17,.02,6.35,.46,.8,.44,2.05,.23,3-1.48,6.92-2.99,13.83-4.68,20.71-1.08,4.43-2.51,8.8-3.76,13.19-.23,.82-.34,1.69-.49,2.4-1.21,.89-2.13,1.56-3.1,2.26-1.85-.92-2.66-2.51-2.08-4.76,.71-2.77,1.58-5.5,2.33-8.27,.31-1.1,.57-2.22,.8-3.35,.62-2.97,1.21-5.96,1.81-8.93,.1-.48,.23-.94,.26-1.41,.64-8.99,2.82-17.74,4.02-26.63,.16-1.21,.74-2.4,.87-3.63,.56-4.81,1-9.65,1.54-14.47,.2-1.69,.49-3.38,.92-5.02,1.2-4.61,.79-9.32,1.1-14,.05-.67-.08-1.36,.07-2,.87-4.07,.21-8.16,.25-12.22,.03-4.12-.34-8.24-.11-12.34,.43-7.71-1.33-15.24-1.61-22.89-.05-1.33-.39-2.66-.54-3.99-.2-1.64-.23-3.27,.97-4.79,1.38,1.23,1.2,2.99,1.43,4.43,.75,4.91,1.28,9.85,1.81,14.78,.21,1.9,.18,3.82,.26,5.73,.02,.3-.08,.59-.03,.85,1.46,6.55,.74,13.19,.79,19.77,.03,6.02-.69,12.04-1.03,18.05-.15,2.67-.07,5.37-.25,8.04-.16,2.18-.61,4.33-.85,6.51-.1,.84-.02,1.71-.02,2.59,.25-.05,.53-.07,.53-.1-.02-3.56,2.94-6.02,3.41-9.45,.38-2.71,1.26-5.35,1.92-8.02,.28-1.12,.54-2.23,.82-3.35,.38-1.46,1.05-2.9,1.13-4.38,.2-3.72,.1-7.47,.18-11.21,.05-2.1,.28-4.18,.31-6.28,.03-2.36-.1-4.73-.11-7.09-.05-5.55-.05-11.09-.13-16.62-.03-1.82-.33-3.64-.33-5.46,.02-1.17,.36-2.33,.92-3.51,2.15,3.63,2.64,7.66,3.12,12.04,.74-.57,1.2-.74,1.28-1.02,.61-2.18,1.58-4.38,1.64-6.6,.13-4.73,1.02-9.32,1.84-13.93,.53-2.92,.79-5.87,1.2-8.81,.07-.56,.2-1.17,.49-1.61,1.2-1.82,2.46-3.59,3.99-5.76,.2,.95,.44,1.48,.38,1.95Z"/><path d="M325.66,384.43c-1.21,2.51-3.56,3.86-6.12,4.74-.97,.34-2.02,.53-3.4,.85,.39,2.94-.71,5.05-2.58,6.79-2.81,.84-5.78,1.31-8.35,2.59-2.15,1.07-4.3,.69-6.42,1.07-6.94,1.25-13.72,.38-20.27-2.26-1.92-.77-3.51-3.54-2.72-5.74,.9-2.53,.87-5.04,.75-7.6-.02-.36,.18-.74,.31-1.31,2,.31,3.92-1.71,5.94,.05,3.46-1.99,6.24,1.56,9.5,1.17,1.1-.15,2.33,.07,3.27-.36,2.77-1.3,5.73-1.53,8.66-1.72,2.56-.16,2.81-.59,3.58-3.05,1.03-3.25,.1-5.97-1.23-8.78-.69-1.46-1.51-2.92-.94-4.86,.72-.11,1.53-.26,2.02-.34,.54-2.31,1.02-4.4,1.44-6.24,2.41-.72,4.45-1.35,6.5-1.95,4.18-1.26,6.07-.54,8.22,3.3,1.02,1.82,1.9,3.74,2.82,5.63,.21,.43,.46,.9,.49,1.36,.41,5.63,1.07,11.34-1.49,16.67Z"/><path d="M487.66,783.11c-.08,4.51-.16,9.02-.31,13.52-.16,4.97-.31,9.96-.64,14.92-.2,3.05-.95,6.05-1.08,9.11-.18,4.22-1.31,8.24-2,12.34-.26,1.62-1.35,3.08-1.92,4.68-.43,1.23-.67,2.53-.95,3.82-.44,2.13-.85,4.27-1.3,6.42-.08,.36-.25,.72-.3,1.08-.54,3.79-1,7.58-1.61,11.36-.28,1.69-.89,3.33-1.28,5-1.53,6.43-1.67,13.08-2.67,19.58-1.07,7.04-1.13,14.1-1.82,21.13-.89,9.06-1.07,18.16-1.79,27.24-.57,7.09-.89,14.16-.59,21.27,.03,.94-.89,1.92-1.58,3.3-1.23-2.08-1.18-3.94-1.26-5.63-.21-4.87-.38-9.78-.25-14.67,.34-12.65,.75-25.32,2.23-37.91,1.21-10.39,2.66-20.74,4.09-31.1,.41-3.04,1.23-6.01,1.69-9.04,.34-2.26,.38-4.56,.57-6.83,.08-1.05,.13-2.12,.33-3.13,.56-2.9,1.35-5.76,1.74-8.68,.31-2.26,.1-4.58,.25-6.86,.18-2.77,.54-5.53,.77-8.3,.15-1.59-.02-3.1-.34-4.73-.56-2.71-1.03-5.55-.25-8.48,.66-2.53,.54-5.25,.75-7.89-2.07-2.58-.38-5.56-.84-8.34-.2-1.21,.71-2.58,.74-3.87,.11-3.31,.08-6.65-.02-9.98-.15-4.27-.53-8.55-.57-12.82-.03-1.31,.66-2.64,1.02-3.97,.25,.02,.49,.03,.74,.05,.39,2.13,.79,4.27,1.2,6.42,.23-.03,.48-.07,.72-.08,.23-5.94-.28-11.88-.66-17.82,.25-.03,.49-.05,.75-.08,.28,1.61,.56,3.22,.84,4.82,.21,.02,.44,.02,.66,.03,.11-1.44,.21-2.87,.31-4.32,.18,0,.36-.02,.54-.02,.71,5.05,1.61,10.09,2.07,15.18,.44,5,.41,10.06,.59,15.08,.23-1.03,.46-2.12,.69-3.18,.15-.02,.3-.02,.44-.03,.1,.48,.31,.95,.3,1.41Z"/><path d="M139.28,528.55c.05,1.51-.16,3.05-.18,4.58-.03,4.09,0,8.16-.08,12.24-.07,3.45-.21,6.89-.39,10.34-.3,5.63-.69,11.24-.95,16.87-.08,1.99-1.38,3.17-2.71,4.14-1.25,.94-1.59,1.89-1.59,3.36-.02,1.99-.44,3.95-.66,5.94-.39,3.71-.77,7.42-1.2,11.13-.03,.41-.33,.79-.49,1.18-.25-.03-.49-.08-.74-.13,0-1.21-.02-2.45,0-3.66,.02-3.15,.11-6.32,.05-9.47-.03-1.61-.18-3.25-.57-4.78-1.02-3.89-.03-7.83-.53-11.7-1.2,1.23-1.16,1.23-1.2,2.86,0,.1,.05,.2,.03,.28-1.08,3.36-1.95,6.81-3.3,10.08-1.95,4.76-4.23,9.37-6.45,14.23-.67-.75-.59-1.58-.1-2.3,1.8-2.58,2.36-5.56,3-8.57,.33-1.54,1.13-3,1.66-4.51,.56-1.69,1.08-3.4,1.54-5.12,1.28-4.84,2.33-9.7,3.12-14.65,.79-4.92,.75-9.89,1.58-14.78,.9-5.35,1.39-10.75,1.44-16.18,.02-2.2,.21-4.41,.16-6.61-.2-9.3-.62-18.59-.62-27.9,.02-3.38,.03-6.86,1.1-10.24,.54-1.74,.59-3.66-.21-5.6-.48-1.08-.08-2.54,.44-3.94,.28,.79,.57,1.58,.87,2.35,.41-.67,.8-1.35,1.59-2.66,.53,1.67,1,2.71,1.17,3.77,.46,3.22,.75,6.47,1.2,9.7,.36,2.56,1.02,5.09,1.23,7.65,.51,6.01,.87,12.03,1.21,18.03,.26,4.69,.43,9.39,.57,14.08Z"/><path d="M416.76,116.13c-1.02,.69-1.97,1.02-2.36,1.67-1.21,2.05-2.97,2.54-5.22,2.81-1.72,.21-2.64-.48-3.25-1.64-.64-1.2-1.31-1.94-2.72-2.18-1.56-.28-2.4-1.46-2.59-3.05-.07-.56-.11-1.13-.16-1.71-.79-8.29-4.61-15.06-10.21-21-1.18-1.25-2.36-2.53-3.28-3.97-.53-.8-.56-1.95-.69-2.95-.1-.75,.16-1.58-.02-2.28-.16-.56-.71-1.31-1.2-1.39-.62-.13-1.54,.11-2,.56-2.25,2.15-2.22,2.15-4.71,.82-1.9-1.02-3.89-1.9-5.46-2.66-1.05-1.59-1.92-2.67-2.53-3.89-.49-.98-.75-2.1-1.02-3.2-.82-3.5-.74-6.97,.46-10.44,.1,.79,.21,1.59,.33,2.56,.71-.21,1.31-.38,2.28-.66v4.71c1.33-.31,2.23-.67,3.13-.71,1.41-.02,2.86,.1,4.25,.33,1.41,.25,2.76,.9,4.15,1.05,2.66,.25,4.02,2.08,5.19,4.05,.79,1.36,.94,2.92-.1,4.35-.56,.79-.71,1.61,.02,2.35,1.67,1.71,3.28,3.5,5.1,5,1.07,.9,2.46,1.41,3.77,1.99,2.31,1,4.17,2.54,5.94,4.36,2.79,2.86,4.58,6.27,6.28,9.78,.66,1.33,1.64,2.49,2.31,3.82,1.16,2.23,1.97,4.55,1.31,7.17-.3,1.13,.31,1.95,1.39,2.54,.62,.36,1.02,1.12,1.59,1.8Z"/><path d="M351.7,376.36c-.62,2.48-1.35,4.94-1.95,7.42-.71,2.87-2.4,5.32-4.84,6.45-2.3,1.07-4.81,1.67-7.04,3-.69,.39-1.87-.15-2.81-.07-.92,.08-1.8,.39-2.72,.61-2.33-4.2-1.53-8.39-1.03-12.54,.15-1.23,.49-2.43,.79-3.64,.11-.44,.3-1.15,.56-1.21,1.74-.43,1.82-2.03,2.49-3.22,.64-1.17,1.33-2.28,2.12-3.63,1.51-.2,2.92-.87,4.18-2.23,1.58-1.71,6.76-.71,7.89,1.49,1,1.92,1.58,4.07,2.28,6.14,.16,.44,.18,.98,.08,1.43Z"/><path d="M467.25,858.93c-.97,7.38-1.71,14.82-2.77,22.19-.87,5.96-1.95,11.9-3.18,17.79-.94,4.56-2.33,9.04-3.38,13.6-.57,2.51-.79,5.09-1.26,7.63-.57,3-1.28,5.97-1.89,8.98-1,4.96-1.97,9.91-2.94,14.87-1.1,5.63-2.17,11.27-3.23,16.9-.03,.18-.02,.44-.13,.54-2.4,2.05-1.92,5.04-2.53,7.66-.05,.23-.28,.43-.62,.92-.56-2.79,0-5.2,.26-7.61,.07-.57,.38-1.13,.38-1.69,0-1.77-.1-3.56-.15-5.33,1.94-1.2,1.12-3.22,1.43-4.89,.71-3.56,1.36-7.14,1.95-10.72,.26-1.71,.33-3.43,.53-5.15,.15-1.31,.28-2.64,1.39-3.64,.36-.33,.44-1.02,.54-1.58,.87-4.79,1.56-9.62,2.59-14.37,1.17-5.41,2.66-10.76,3.94-16.16,.39-1.66,.56-3.38,.89-5.41-1.46-.36-3.18-.02-2.99-1.89,.21-2.25,2.23-.66,3.31-1.46,3.18-11.72,4.28-23.92,6.5-36.05,1.36,1.49,1.59,3.07,1.36,4.89Z"/><path d="M21.79,715.2c-.46,0-.89-.04-1.32-.1-.23,.7-.44,1.37-.56,2.03-.43,2.25-.64,4.55-1,6.81-.62,3.86-.84,7.88-2.05,11.54-1.89,5.69-1.67,11.52-2.18,17.3-.08,.98-.11,2.18,1.33,2.63,.26-.23,.69-.44,.77-.75,.71-2.84,1.74-5.53,3.56-7.86,.16-.21,.13-.56,.23-.82,1.72-4.81,1.48-9.96,2.84-14.87,1.03-3.71,.71-7.79,1.33-11.65,.31-1.86-.1-3.23-1.11-4.42-.57,.12-1.18,.18-1.84,.18Z"/><path d="M250.81,69.64c-1.71,1.12-3.4,2.25-5.12,3.31-1.71,1.07-3.36,2.25-5.2,3.04-1.9,.82-2.86,2.79-5.04,3.4-1.82,.49-3.35,2.12-4.99,3.25-1.74,1.18-3.43,2.43-5.23,3.51-1.66,1.02-3.43,1.85-5.5,2.95-.2-.18-.72-.64-1.2-1.03,.15-.38,.15-.61,.26-.71,2.76-2.45,5.51-4.87,8.27-7.32,.36-.31,.61-.84,1-1,4.43-1.82,7.47-5.91,12.22-7.32,1.92-.57,3.5-2.3,5.25-3.45,.51-.34,1.12-.54,1.92-.92,.21,1,.33,1.53,.44,2.02,1-.1,1.87-.18,2.72-.26,.07,.18,.11,.36,.18,.53Z"/><path d="M426.59,508.63c-1.46,2.81-2.18,5.68-2.2,8.61-.02,2.28-.57,4.38-1.41,6.4-.67,1.64-.9,3.23-.79,4.97,.07,1.07-.26,2.17-.51,3.87-1.35-1.77-.97-3.12-.8-4.35,.69-5.6,1.44-11.19,2.22-16.77,.23-1.67,.64-3.31,.97-4.99,.21-.03,.43-.07,.64-.11,.64,.8,1.26,1.59,1.89,2.36Z"/><path d="M455.32,574.42c-.67,2.36-1.44,4.69-2.17,7.04-.15-.05-.3-.1-.44-.15v-4.94c2.22-.46,.97-2.76,1.72-4.2,.77-1.48,1.08-3.2,1.72-5.22,.66,2.12,.69,2.12-.84,7.47Z"/><path d="M107.33,706.15v.07s-.05,.02-.08,.02l.08-.08Z"/><path d="M111.11,707.77c-.05,1.23-.8,1.92-1.99,2.03-1.16,.11-1.79-.51-1.84-1.67-.03-.64,.03-1.28,.05-1.92,.71-.13,1.43-.36,2.13-.36,1.18,.02,1.67,.84,1.64,1.92Z"/><path d="M497.51,412.05c-.36-5.32-.71-10.62-1.03-15.61,1.05,2.22,1.89,11.4,1.03,15.61Z"/><path d="M67.51,403.47v13.55c-1.31-1.33-.95-2.79-.74-4.09,.38-2.3,.31-4.48-.43-6.71-.3-.84,.2-1.94,.34-2.9,.26,.05,.54,.1,.82,.15Z"/><path d="M450.3,961.64c.34-3.35,.34-6.74,1.49-9.96,.15,3.41,.18,6.81-1.49,9.96Z"/><path d="M435.83,484.79c-.18,.02-.36,.05-.53,.07-.46-3.64-.92-7.29-1.38-10.93,.15-.02,.31-.03,.46-.07,.49,3.64,.97,7.29,1.44,10.93Z"/><path d="M452.63,948.89c-.23-.02-.46-.03-.67-.05,.51-2.63,1.02-5.25,1.59-8.19,.54,2.13,.16,5.09-.92,8.24Z"/><path d="M67.51,398.66c-.21,.02-.43,.03-.64,.03-.72-3.35-.72-6.73,.13-10.14,.16,3.36,.33,6.74,.51,10.11Z"/><path d="M486.71,476.32v10.85c-.84-1.67-.82-1.67-.46-5.28,.16-1.67,.28-3.35,.46-5.56Z"/><path d="M437.04,495.27c-.25,.02-.49,.05-.75,.07-.16-2.49-.33-4.97-.49-7.47,.15,.02,.28,.05,.43,.07,.26,2.44,.54,4.89,.82,7.33Z"/><path d="M23.58,772.59c-.08,.25-.94,.51-1.13,.36-1-.75-.87-1.72-.2-2.84,1.61,.44,1.76,1.41,1.33,2.48Z"/><path d="M496.18,392.64c-.21,.03-.41,.05-.62,.08-.34-2-.69-3.99-1.03-5.99,.25-.03,.49-.08,.74-.11,.3,2,.61,4.02,.92,6.02Z"/><path d="M181.57,751.57c-.39-1.69-.79-3.38-1.3-5.64,1.38,1.77,1.89,3.68,1.3,5.64Z"/><path d="M12.32,992.95s.07-.02,.1-.02c-.02,.03-.02,.07-.03,.1l-.07-.08Z"/><path d="M282.88,7.48c-1.43,.26-2.87,.53-4.63,.84,2.2-1.71,2.63-1.8,4.63-.84Z"/><path d="M78.3,803.58c-1.1-.94-.72-2.08-.82-3.28q1.44,1.36,.82,3.28Z"/><path d="M187.84,787.55c-.25,.02-.49,.03-.74,.05-.16-1.08-.33-2.15-.49-3.22,.25-.05,.48-.08,.72-.11,.16,1.08,.34,2.18,.51,3.28Z"/><path d="M449.27,530.62c-.07,.66-.11,1.31-.16,1.97-.16,0-.33-.02-.49-.03,.07-.66,.11-1.31,.16-1.97,.16,0,.33,.02,.49,.03Z"/><path d="M184.59,763.84c-.21,.05-.43,.1-.62,.15-.18-.74-.34-1.48-.53-2.22,.2-.05,.41-.1,.61-.15,.18,.74,.36,1.48,.54,2.22Z"/><path d="M472.47,118.36c-.39,.25-.74,.56-.8,.51-.25-.21-.48-.51-.59-.82-.03-.08,.46-.51,.54-.46,.28,.15,.51,.43,.85,.77Z"/><path d="M447.46,540.42c-1.35-.48-1.46-1.12-.38-2.25,.18,1.02,.28,1.64,.38,2.25Z"/><path d="M442.37,561.83c-.95-.66-1.07-1.26-.36-2.2,.98,.67,1.05,1.28,.36,2.2Z"/><path d="M473.62,618.2c-.15,.67-.3,1.35-.44,2.02-.15-.03-.3-.07-.44-.1,.16-.67,.33-1.33,.49-2,.13,.03,.26,.05,.39,.08Z"/><path d="M437.17,501.35c-.15,.02-.3,.02-.44,.03-.02-.33-.03-.66-.07-.97,.15-.02,.3-.03,.44-.03,.02,.33,.05,.64,.07,.97Z"/><path d="M509.22,258.41v1.59c-.07,0-.11,.02-.18,.02-.05-.53-.1-1.05-.15-1.59,.11,0,.21-.02,.33-.02Z"/><path d="M12.39,993.03c-.07,.05-.13,.08-.2,.13,.03-.07,.08-.15,.13-.21l.07,.08Z"/><path d="M24.37,1004.14c0,.07-.02,.13-.05,.2-.05,.1-.11,.18-.18,.21-.1,.07-.3-.05-.44-.08,.1-.2,.18-.43,.28-.66,0-.02,.02-.02,.02-.03,.18,.16,.38,.26,.38,.36Z"/><path d="M472.52,56.46c-.05,.13-.26,.21-.39,.31-.08-.13-.23-.31-.2-.41,.07-.13,.26-.21,.41-.33,.07,.15,.23,.33,.18,.43Z"/><path d="M352.37,179.04c-.07,.11-.13,.23-.2,.34-.3-.18-.59-.36-.9-.53,.07-.11,.13-.23,.2-.34,.31,.18,.61,.34,.9,.53Z"/><path d="M457.96,564.01c-.13,.38-.26,.74-.41,1.12-.15-.05-.3-.11-.44-.16,.11-.36,.23-.72,.38-1.07,.02-.03,.31,.08,.48,.11Z"/><path d="M531.15,178.55c-.11,.11-.23,.23-.33,.31-.1-.08-.23-.2-.34-.31,.11-.11,.23-.23,.34-.34,.11,.11,.23,.23,.33,.34Z"/><path class="cls-1" d="M404.44,478.34s-.05,.05-.07,.08c-.02-.03-.02-.08-.02-.11h.02l.07,.03Z"/><path class="cls-1" d="M404.48,478.26s-.03,.05-.05,.08l-.07-.03s.08-.03,.11-.05Z"/><path class="cls-1" d="M134.37,706.77c-.3,.44-.59,.89-.87,1.33-.18-.08-.34-.18-.53-.28,.26-.51,.51-1.02,.77-1.51,.21,.15,.41,.31,.62,.46Z"/><path class="cls-1" d="M42.55,1018.99c-.02,.2-.3,.38-.53,.64-.18-.31-.48-.59-.43-.71,.11-.25,.41-.39,.64-.57,.11,.21,.33,.44,.31,.64Z"/></g><path d="M118.97,285.01c-2.6-4.04-6.17-6.9-10.33-8.47-2.35-1.75-4.69-2.41-7.96-2.69-1.19-.45-2.41-.83-3.77-.95-3.81-.35-7.65,.9-11.12,2.24-6.83,2.63-12.37,7.06-13.56,14.3h.09c-.02,.09-.04,.17-.06,.25-4.33,10.59,1.67,19.62,4.55,29.9,3.29,11.77,4.68,23.81,9.63,35.22,2.09,4.82,6.8,8.47,11.64,8.88,5.48,3.28,12.83,1.09,14.88-5.21,3.35-10.34,.04-20.93,2.6-31.43,2.69-11.07,3.89-22.16,4.64-33.49,.04-.58,.02-1.12-.04-1.64,.62-2.08,.38-4.47-1.19-6.9Z"/><path class="cls-2" d="M115.51,293.47c-1.89-3.1-4.51-5.29-7.54-6.49-1.72-1.34-3.42-1.84-5.81-2.06-.87-.35-1.76-.63-2.75-.73-2.78-.27-5.58,.69-8.11,1.71-4.98,2.02-9.03,5.41-9.9,10.96h.06c-.01,.07-.03,.13-.04,.19-3.16,8.11,1.22,15.04,3.32,22.91,2.4,9.02,3.41,18.25,7.02,26.99,1.53,3.69,4.97,6.49,8.49,6.8,4,2.51,9.36,.84,10.86-3.99,2.45-7.92,.03-16.04,1.89-24.09,1.96-8.49,2.84-16.98,3.39-25.66,.03-.44,.01-.86-.03-1.26,.46-1.6,.28-3.42-.86-5.29Z"/><path d="M455.53,306.73c3.54-3.24,7.74-5.09,12.16-5.54,2.72-1.09,5.15-1.12,8.38-.56,1.26-.13,2.54-.18,3.89,.05,3.77,.64,7.16,2.83,10.17,5.01,5.93,4.29,10.15,10,9.45,17.3h-.09c0,.07,0,.15,0,.23,1.48,11.35-6.64,18.54-12.05,27.74-6.19,10.53-10.62,21.82-18.33,31.58-3.26,4.12-8.75,6.45-13.52,5.6-6.13,1.77-12.68-2.23-13.05-8.85-.6-10.85,5.32-20.24,5.54-31.05,.24-11.39,1.91-22.41,4.09-33.56,.11-.57,.27-1.09,.46-1.58-.07-2.17,.78-4.41,2.91-6.37Z"/><path class="cls-2" d="M456.71,315.79c2.62-2.51,5.71-3.96,8.95-4.34,2-.86,3.78-.91,6.14-.5,.93-.11,1.86-.16,2.85,0,2.76,.46,5.22,2.1,7.4,3.73,4.3,3.22,7.34,7.54,6.76,13.13h-.06c0,.05,0,.11,0,.18,.98,8.65-5.03,14.22-9.08,21.3-4.63,8.1-7.97,16.76-13.7,24.29-2.42,3.18-6.46,5.01-9.95,4.4-4.51,1.41-9.27-1.59-9.47-6.64-.34-8.28,4.08-15.51,4.34-23.77,.28-8.71,1.6-17.14,3.3-25.67,.09-.44,.21-.83,.35-1.21-.03-1.66,.61-3.38,2.19-4.89Z"/></g><path d="M372.1,590.81c-6.66,5.97-13.92,11.47-22.54,14.23-9.33,2.99-19.31,3.52-29.02,4.08-10.32,.59-20.68,.74-31.01,.44-9.44-.28-18.99-.7-28.34-2.14-9.82-1.52-19.42-4.29-27.66-10.01-1.82-1.26-4.56-.33-5.61,1.47-1.19,2.04-.35,4.35,1.47,5.61,16.25,11.29,37.39,12.39,56.51,13.15,10.74,.42,21.49,.36,32.22-.18,10.48-.53,21.33-1.04,31.48-3.87,10.91-3.04,19.97-9.51,28.3-16.98,3.94-3.53-1.88-9.32-5.8-5.8Z"/></g></g></svg>